<svg width="264" height="89" xmlns="http://www.w3.org/2000/svg"><path d="M62.181 42.351c3.872 2.259 6.857 5.042 8.954 8.349 2.098 3.307 3.146 7.099 3.146 11.374 0 5.324-1.532 10.003-4.598 14.036-3.065 4.033-7.38 7.139-12.947 9.317-5.566 2.178-11.979 3.267-19.239 3.267-7.26 0-13.673-1.089-19.239-3.267-5.566-2.178-9.881-5.284-12.947-9.317C2.246 72.077.713 67.398.713 62.074c0-4.275 1.049-8.067 3.146-11.374 2.098-3.307 5.082-6.09 8.954-8.349-2.904-2.017-5.142-4.477-6.715-7.381-1.573-2.904-2.36-6.13-2.36-9.68 0-4.92 1.412-9.256 4.235-13.007C10.797 8.53 14.77 5.648 19.892 3.63 25.014 1.614 30.882.606 37.497.606S49.98 1.614 55.103 3.631c5.122 2.017 9.095 4.9 11.918 8.652 2.824 3.75 4.235 8.086 4.235 13.007 0 3.55-.786 6.776-2.36 9.68-1.572 2.904-3.81 5.364-6.715 7.381zM37.497 17.425c-2.984 0-5.404.786-7.26 2.36-1.855 1.573-2.783 3.77-2.783 6.594 0 2.743.908 4.9 2.723 6.473 1.815 1.574 4.255 2.36 7.32 2.36 3.066 0 5.526-.786 7.381-2.36 1.856-1.573 2.783-3.73 2.783-6.473 0-2.823-.927-5.021-2.783-6.595-1.855-1.573-4.315-2.359-7.38-2.359zm0 54.45c3.872 0 6.958-.948 9.257-2.843 2.299-1.896 3.448-4.457 3.448-7.684 0-3.227-1.15-5.788-3.448-7.683-2.3-1.896-5.385-2.844-9.257-2.844s-6.957.948-9.256 2.844c-2.3 1.895-3.449 4.456-3.449 7.683 0 3.227 1.15 5.788 3.449 7.684 2.299 1.895 5.384 2.843 9.256 2.843zm80.526 16.819c-7.26 0-13.714-1.734-19.36-5.203-5.647-3.469-10.063-8.53-13.25-15.186-3.186-6.655-4.78-14.54-4.78-23.655 0-9.115 1.594-17 4.78-23.655 3.187-6.656 7.603-11.717 13.25-15.186 5.646-3.469 12.1-5.203 19.36-5.203 7.18 0 13.592 1.734 19.239 5.203 5.646 3.469 10.063 8.53 13.25 15.186 3.186 6.655 4.779 14.54 4.779 23.655 0 9.115-1.593 17-4.78 23.655-3.186 6.656-7.603 11.717-13.25 15.186-5.646 3.469-12.059 5.203-19.238 5.203zm0-19.602c4.033 0 7.24-1.956 9.62-5.868 2.379-3.913 3.569-10.104 3.569-18.574 0-8.47-1.19-14.661-3.57-18.574-2.38-3.912-5.586-5.868-9.62-5.868-4.113 0-7.36 1.956-9.74 5.868-2.38 3.913-3.57 10.104-3.57 18.574 0 8.47 1.19 14.661 3.57 18.574 2.38 3.912 5.627 5.868 9.74 5.868zm64.19-20.933c-6.372 0-11.575-2.097-15.609-6.292-4.033-4.195-6.05-9.922-6.05-17.182 0-4.76.928-8.914 2.783-12.463 1.856-3.55 4.417-6.272 7.684-8.168 3.267-1.895 6.998-2.843 11.192-2.843 6.454 0 11.697 2.117 15.73 6.352 4.034 4.236 6.05 9.943 6.05 17.122 0 7.26-2.016 12.987-6.05 17.182-4.033 4.195-9.276 6.292-15.73 6.292zM232.307 2.3h17.424L191.893 87H174.47l57.838-84.7zm-50.094 34.364c2.178 0 3.913-.968 5.203-2.904 1.29-1.936 1.936-4.961 1.936-9.075 0-4.114-.645-7.139-1.936-9.075-1.29-1.936-3.025-2.904-5.203-2.904-2.097 0-3.811.988-5.142 2.964-1.331 1.977-1.997 4.982-1.997 9.015s.666 7.038 1.997 9.014c1.33 1.977 3.045 2.965 5.142 2.965zm59.774 51.425c-6.453 0-11.676-2.097-15.67-6.292-3.992-4.195-5.989-9.922-5.989-17.182 0-7.18 2.017-12.886 6.05-17.121 4.034-4.236 9.237-6.353 15.61-6.353 6.453 0 11.696 2.117 15.73 6.353 4.033 4.235 6.05 9.942 6.05 17.121 0 7.26-2.017 12.987-6.05 17.182-4.034 4.195-9.277 6.292-15.73 6.292zm0-11.495c2.178 0 3.913-.968 5.203-2.904 1.29-1.936 1.936-4.961 1.936-9.075 0-4.114-.645-7.139-1.936-9.075-1.29-1.936-3.025-2.904-5.203-2.904-2.178 0-3.912.968-5.203 2.904-1.29 1.936-1.936 4.961-1.936 9.075 0 4.114.646 7.139 1.936 9.075 1.29 1.936 3.025 2.904 5.203 2.904z" fill="#CECECE"/></svg>