<svg xmlns="http://www.w3.org/2000/svg" data-name="Layer 1" viewBox="0 0 128 160"><path d="M110 0H18A18.02 18.02 0 000 18v92a18.02 18.02 0 0018 18h92a18.02 18.02 0 0018-18V18a18.02 18.02 0 00-18-18zm14 110a14 14 0 01-14 14H18a14 14 0 01-14-14V18A14 14 0 0118 4h92a14 14 0 0114 14z"/><path d="M64 9a55 55 0 1055 55A55.062 55.062 0 0064 9zm0 106a51 51 0 1151-51 51 51 0 01-51 51z"/><path d="M41.7 83.322l-7.866-2.36L35.749 76H31.46l-4.193 10.864a4 4 0 002.416 5.218l7.737 2.695a3.996 3.996 0 005.048-2.337L48.813 76h-4.287zM38.737 91L31 88.304l1.39-3.599 7.866 2.36zm10.526-50.018L55.737 37 57 43.678 53.788 52h4.288l2.656-6.882a4 4 0 00.198-2.183l-1.263-6.678a4 4 0 00-6.026-2.664l-6.474 3.982a4 4 0 00-1.636 1.967L40.723 52h4.288zM98.076 76h-4.288L97 84.322 95.737 91l-6.474-3.982L85.011 76h-4.288l4.808 12.458a4 4 0 001.636 1.967l6.474 3.982a4 4 0 006.026-2.664l1.263-6.678a4 4 0 00-.198-2.183zM71.461 52h4.288l-1.833-4.75 7.697-2.799L84.526 52h4.287L82.47 35.56a3.996 3.996 0 00-5.048-2.337l-7.737 2.695a4 4 0 00-2.416 5.218zm7.276-15l1.435 3.718-7.697 2.8L71 39.695zM28 56a7.008 7.008 0 00-7 7v2a7.008 7.008 0 007 7h72a7.008 7.008 0 007-7v-2a7.008 7.008 0 00-7-7zm75 7v2a3 3 0 01-3 3H28a3 3 0 01-3-3v-2a3 3 0 013-3h72a3 3 0 013 3z"/></svg>