<svg width="172" height="25" xmlns="http://www.w3.org/2000/svg"><path d="M0 0v10.704h10.493V0H0zm6.795 6.934h-3.1V3.772h3.1v3.162zm15.383 7.2h4.74c1.784 0 2.643.787 2.643 2.233 0 1.888-1.37 2.334-2.952 2.334h-4.43v-4.567zM14.63 24.537h13.901c4.327 0 8.583-2.543 8.583-7.45 0-3.604-2.06-5.354-4.256-6.112 1.821-.993 3.018-2.334 3.018-4.804 0-2.508-1.37-6.144-7.824-6.144H14.63v24.51zM22.178 5.86h3.984c1.545 0 2.574.447 2.574 1.683 0 1.58-.995 2.026-2.574 2.026h-3.984V5.86zm22.172 7.76c.311-1.922 1.476-2.986 3.505-2.986 1.748 0 2.983 1.337 2.983 2.988H44.35l-.001-.002zm13.012 3.535c0-6.933-3.057-10.882-10.127-10.882-5.634 0-9.408 4.224-9.408 9.408 0 5.936 4.292 9.302 9.992 9.302 4.048 0 7.793-1.786 9.163-5.632h-6.348c-.55.858-1.753 1.27-2.854 1.27-2.124 0-3.291-1.444-3.464-3.468H57.36l.001.002zm8.52-15.86h-6.8V6.72h-3.02v4.187h3.02v8.517c0 4.873 3.194 5.318 6.079 5.318 1.44 0 2.987-.204 4.36-.204v-5.153c-.516.073-1.03.105-1.547.105-1.715 0-2.094-.721-2.094-2.368v-6.215h3.64V6.72h-3.642V1.295h.004zm4.767 23.242h6.796V15.13c0-2.85 1.545-3.435 2.714-3.435 1.989 0 2.23 1.443 2.23 3.502v9.34h6.8V12.313c0-4.085-2.922-6.041-6.116-6.041-2.88 0-4.394.998-5.562 2.369h-.067V.027h-6.795v24.51zM96.591 13.62c.308-1.922 1.478-2.986 3.505-2.986 1.751 0 2.983 1.337 2.983 2.988h-6.487v-.002zm13.012 3.535c0-6.933-3.052-10.882-10.128-10.882-5.631 0-9.408 4.224-9.408 9.408 0 5.936 4.293 9.302 9.996 9.302 4.045 0 7.792-2.113 9.16-5.958h-6.346c-.547.858-1.752 1.594-2.853 1.594-2.126 0-3.295-1.443-3.464-3.466h13.045l-.002.002zm17.102-5.253c-.168-4.563-4.805-5.628-8.65-5.628-3.571 0-8.413 1.167-8.413 5.665 0 3.054 2.093 4.703 7.278 5.595 3.159.549 3.742.858 3.742 1.89 0 1.03-1.406 1.373-2.297 1.373-.826 0-1.476-.21-1.82-.517-.517-.444-.789-.631-.822-1.252h-6.487c.1 4.602 4.703 5.958 8.888 5.958 4.326 0 9.067-1.341 9.067-6.285 0-2.92-1.992-4.257-4.259-4.98-2.266-.753-4.837-.89-5.972-1.374-.375-.17-.787-.409-.787-.926 0-1.166 1.096-1.37 2.06-1.37.548 0 1.1.17 1.507.514.45.308.756.754.794 1.337l6.173-.001-.002.001zM146.75.027h-6.796v8.65h-.07c-1.029-1.513-2.85-2.403-4.875-2.403-5.974 0-7.587 5.082-7.587 9.268 0 4.464 2.437 9.444 7.485 9.444 3.33 0 4.358-1.272 5.218-2.407h.07v1.958h6.556V.028l-.001-.001zm-6.555 15.585c0 2.126-.55 4.427-2.984 4.427-2.439 0-2.99-2.301-2.99-4.427 0-2.094.55-4.395 2.989-4.395 2.432 0 2.983 2.301 2.983 4.395h.002zm19.384 2.574c-.104 1.853-1.303 2.778-2.85 2.778-1.232 0-2.13-.821-2.13-1.642 0-1.205.79-1.584 2.3-1.925.932-.21 1.856-.448 2.68-.86v1.649zm6.525-4.944c0-3.432.064-6.97-8.45-6.97-4.221 0-8.958.824-9.164 5.836h6.314c.037-.753.453-1.82 2.542-1.82 1.103 0 2.233.449 2.233 1.651 0 1.134-.929 1.407-1.852 1.58-3.47.652-10.057.444-10.057 6.078 0 3.74 2.844 5.388 6.28 5.388 2.201 0 4.29-.483 5.733-2.13h.07a4.692 4.692 0 00.24 1.683h6.935c-.757-1.133-.821-2.643-.821-3.983v-7.31l-.003-.003zm1.984-3.752h-.516V7.388h-.79v-.446h2.073v.446h-.765V9.49h-.002zm1.556 0h-.485V6.942h.809l.46 1.759.464-1.759h.81V9.49h-.491V7.458l-.554 2.032h-.464l-.547-2.031.001 2.033-.003-.002z" opacity=".5"/></svg>