<svg xmlns="http://www.w3.org/2000/svg" viewBox="0 0 128 160"><path d="M15.086 77.048C7.87 77.048 2 71.195 2 64s5.87-13.048 13.086-13.048S28.172 56.805 28.172 64s-5.87 13.048-13.086 13.048zm0-22.096C10.076 54.952 6 59.011 6 64s4.076 9.048 9.086 9.048c5.01 0 9.086-4.059 9.086-9.048s-4.076-9.048-9.086-9.048zm97.828 22.096c-7.216 0-13.086-5.853-13.086-13.048s5.87-13.048 13.086-13.048S126 56.805 126 64s-5.87 13.048-13.086 13.048zm0-22.096c-5.01 0-9.086 4.059-9.086 9.048s4.076 9.048 9.086 9.048S122 68.989 122 64s-4.076-9.048-9.086-9.048z"/><path d="M92.927 66.017L26.172 66a2 2 0 010-4l66.755.017a2 2 0 010 4z"/><path d="M84.4 74.514a2 2 0 01-1.412-3.416l7.105-7.08-7.14-7.114a2 2 0 012.824-2.833l8.561 8.531a2.002 2.002 0 010 2.834l-8.526 8.497c-.39.386-.901.581-1.412.581zm28.514-38.418c-7.216 0-13.086-5.853-13.086-13.048S105.698 10 112.914 10 126 15.853 126 23.048s-5.87 13.048-13.086 13.048zm0-22.096c-5.01 0-9.086 4.059-9.086 9.048s4.076 9.048 9.086 9.048S122 28.037 122 23.048 117.924 14 112.914 14zm0 104c-7.216 0-13.086-5.853-13.086-13.048s5.87-13.048 13.086-13.048S126 97.757 126 104.952 120.13 118 112.914 118zm0-22.096c-5.01 0-9.086 4.059-9.086 9.048s4.076 9.048 9.086 9.048 9.086-4.059 9.086-9.048-4.076-9.048-9.086-9.048zM24.065 59.523a2 2 0 01-.825-3.822l68.756-31.094a2 2 0 111.648 3.644L24.888 59.345a1.989 1.989 0 01-.823.178z"/><path d="M87.804 39.357a2 2 0 01-1.816-2.835l4.179-9.105-9.185-4.187a2 2 0 111.658-3.639l11.01 5.018a2.003 2.003 0 01.988 2.654l-5.016 10.928a2 2 0 01-1.818 1.166zm5.015 64.332c-.276 0-.558-.058-.826-.18L23.237 72.285a2 2 0 011.654-3.642l68.756 31.225a2 2 0 01-.828 3.821z"/><path d="M81.812 108.707a2 2 0 01-.83-3.82l9.185-4.186-4.179-9.105a2 2 0 113.634-1.669l5.016 10.928a2 2 0 01-.988 2.654l-11.01 5.018c-.269.121-.551.18-.828.18z"/></svg>