<svg width="127" height="25" xmlns="http://www.w3.org/2000/svg"><path d="M54.87 9.54c.691-.517 1.687-.345 2.508-.273.51.043.749.345.887.726l3.882 9.499h-3.024c-.182-.697-.385-1.53-.64-2.214-1.294.022-2.588.008-3.882 0l-.734 2.214H50.99c1.344-3.291 2.558-6.654 3.881-9.952zm.497 5.855c.754-.007 1.507 0 2.26 0-.16-1.205-.688-2.382-1.123-3.53-.434 1.14-1.035 2.318-1.137 3.53zm54.808-5.006c-.015-.665.698-1.088 1.309-1.066l13.592.014c.938.315 1.506 1.281 1.76 2.183l-4.64-.015-.014 7.987h-2.567l-.073-8.137c-2.233.022-4.465.014-6.698.014-.4.172-.465 2.19.45 2.255l2.597-.043v1.739c-.778-.072-1.556-.058-2.334-.05-.451-.036-.844.386-.822.815l.022 3.4h-2.567c.014-2.999-.037-6.09-.015-9.096zm-9.774-1.021c1.354-.079 2.715-.015 4.07-.036.735.014 1.543-.121 2.198.299 1.034.634 1.558 1.872 1.521 3.04-.022 1.346.03 2.691-.029 4.03-.08 1.36-1.23 2.713-2.664 2.755-1.762.093-3.53-.028-5.292-.014-1.5-.057-2.155-1.737-2.3-2.983.014-1.517-.059-3.033 0-4.55.058-1.295 1.179-2.413 2.496-2.541zm1.092 2.121c-.445.19-.868.596-.847 1.107-.043 1.12-.093 2.234-.079 3.354-.021.694.574 1.457 1.334 1.408.803-.007 1.614.056 2.41-.035.538-.063 1.111-.42 1.154-.994.086-1.198.015-2.403.029-3.6.036-.707-.588-1.303-1.305-1.275-.897.021-1.807-.063-2.696.035zM89.55 9.282c.86-.152 1.756.014 2.63-.101.043 2.42 0 4.848.021 7.276 0 .498.503.932.998.845 1.027-.043 2.061.03 3.088-.072.342.824.59 1.3 1.31 2.262H90.33c-.547-.008-.801-.65-.75-1.12-.008-3.028-.044-6.055-.03-9.09zm-10.734 1.406c-.037-.678.51-1.363 1.193-1.457l7.612-.05.007 2.127c-1.957-.022-3.922-.144-5.887-.05-.59.612-.575 2.184.575 2.069l4.752-.022v1.99h-4.81c-1.099-.014-1.31 1.493-.444 1.947l5.873-.043c-.022.786.036 1.5.021 2.293l-7.699-.058c-.596.021-1.23-.433-1.193-1.067-.007-2.567 0-5.12 0-7.68zm-15.355-.074c.015-1.699 2.77-1.713 3.151-.943 1.097 1.677 2.215 3.354 3.32 5.024.167.245.467.022.57-.173 1.008-1.598 2.003-3.203 3.026-4.794.337-.568 3.4-1.158 3.305 1.015l-.044 8.767h-2.595l-.073-6.708-3.963 6.83-3.948-6.578-.037 6.464h-2.756c.037-2.944-.03-5.96.044-8.904zM42.917 9.26c2.27-.086 4.547.058 6.809-.08.007.751.029 1.495-.007 2.245-1.436-.08-6.367-.527-6.65.837-.152.736-.26 3.796.182 4.36.573.735 3.879 1.096 3.886 0 .037-.86.225-1.776-.384-2.498 1.059-.043 2.11-.014 3.169-.036.152 1.249.029 2.512.065 3.767.036.722-.464 1.718-1.29 1.631H43.3c-.826.03-1.631-.404-2.182-.996-.71-.851-.885-1.999-.863-3.067.036-1.234-.022-2.468.029-3.695.08-1.35 1.327-2.388 2.632-2.468zM14.193.065C18.5.037 22.815.021 27.119.24c1.289.078 2.59.22 3.818.644 1.284.488 2.427 1.388 3.136 2.573a9.747 9.747 0 011.277 3.627c.212 1.311.143 2.643.155 3.966.012 1.848.024 3.7.024 5.549-.065 2.162-.411 4.458-1.72 6.245a6.308 6.308 0 01-2.444 1.885c-.465.24-.93-.102-1.236-.431-.065-.196.163-.326.273-.456 1.122-.998 1.844-2.398 2.125-3.86.266-1.425.31-2.874.323-4.32-.05-1.93-.09-3.867-.36-5.78-.138-1.015-.432-2.032-1.035-2.867-.592-.753-1.367-1.413-2.309-1.661-.681-.2-1.395-.122-2.093-.171-4.98-.138-9.964-.252-14.949-.143-1.525.114-3.083-.183-4.576.212-1.367.322-2.199 1.73-2.333 3.05-.14 1.942-.07 3.892-.115 5.842 0 1.29.188 2.69 1.098 3.684.526.737 1.415 1.128 2.308 1.136 4.81.244 9.63.175 14.448.216.656-.033 1.338.077 1.978-.102.734-.305 1.13-1.14 1.126-1.905.008-.745.065-1.51-.151-2.231-.127-.424-.592-.631-1.008-.607-4.907.098-9.818.15-14.729.232-.856-.036-1.766.334-2.178 1.12-.612-.073-1.24-.11-1.831-.281a56.891 56.891 0 01-.09-5.073C6.13 8.876 7.462 7.671 8.915 7.68c5.73-.155 11.465-.224 17.196-.061 1.518.101 3.186.447 4.218 1.66.8.86 1.252 1.983 1.387 3.14.204 1.697.11 3.407.126 5.113-.049 1.156-.057 2.345-.49 3.436-.668 1.91-2.455 3.29-4.42 3.648-.915.175-1.845.15-2.77.187-6.645.171-13.302.175-19.93-.3-1.322-.033-2.464-.892-3.084-2.02-.783-1.413-.926-3.074-.995-4.658-.008-3.677-.102-7.353-.114-11.03.053-1.327.22-2.723.983-3.851C1.817 1.665 3.224.908 4.664.587 7.817.15 11.015.17 14.193.065z" fill="#191919" opacity=".5"/></svg>