<svg width="227" height="179" xmlns="http://www.w3.org/2000/svg"><g fill="none" fill-rule="evenodd"><path d="M105.34 163.754l-12.343 13.94-22.47-10.96 3.293-17.804a52.242 52.242 0 01-7.225-8.943l-18.125-.166L42 115.673l16.093-9.488.487 1.818a51.749 51.749 0 012.818-13.367L51.14 79.696l16.07-19.15 15.865 7.222a51.763 51.763 0 0110.709-5.047L98.429 46h25l4.752 17.11a51.797 51.797 0 0110.081 4.958l16.526-7.522 16.07 19.15-10.575 15.401-1.16-1.383a51.732 51.732 0 013.156 14.318l.495-1.847 16.093 9.488-6.47 24.148-18.135.166a52.242 52.242 0 01-7.187 8.905l.311-.159 3.717 18.308-22.275 11.35-12.627-13.768 2.51-1.28a52.63 52.63 0 01-13.371.41zM109.93 140c15.74 0 28.5-12.76 28.5-28.5S125.67 83 109.93 83s-28.5 12.76-28.5 28.5 12.76 28.5 28.5 28.5z" fill="#9D9D9D"/><path d="M102.34 158.754l-12.343 13.94-22.47-10.96 3.293-17.804a52.242 52.242 0 01-7.225-8.943l-18.125-.166L39 110.673l16.093-9.488.487 1.818a51.749 51.749 0 012.818-13.367L48.14 74.696l16.07-19.15 15.865 7.222a51.763 51.763 0 0110.709-5.047L95.429 41h25l4.752 17.11a51.797 51.797 0 0110.081 4.958l16.526-7.522 16.07 19.15-10.575 15.401-1.16-1.383a51.732 51.732 0 013.156 14.318l.495-1.847 16.093 9.488-6.47 24.148-18.135.166a52.242 52.242 0 01-7.187 8.905l.311-.159 3.717 18.308-22.275 11.35-12.627-13.768 2.51-1.28a52.63 52.63 0 01-13.371.41zM106.93 135c15.74 0 28.5-12.76 28.5-28.5S122.67 78 106.93 78s-28.5 12.76-28.5 28.5 12.76 28.5 28.5 28.5z" fill="#D8D8D8"/><path d="M68 .373C67.878 14.96 75.42 22.503 90.627 23 75.42 22.569 67.877 30.111 68 45.627 68.122 30.42 60.58 22.877 45.373 23 60.578 22.805 67.813 14.968 68 .373z" fill="#FDE4FF"/><path d="M201 71.544c-.137 16.413 8.348 24.898 25.456 25.456-17.108-.485-25.593 8-25.456 25.456.137-17.108-8.348-25.593-25.456-25.456 17.107-.22 25.245-9.036 25.456-25.456z" fill="#FAEDC1"/><path d="M16 81.444C15.916 91.474 21.101 96.659 31.556 97c-10.455-.297-15.64 4.889-15.556 15.556C16.084 102.101 10.899 96.916.444 97 10.898 96.866 15.87 91.478 16 81.444z" fill="#FFF"/></g></svg>