<svg xmlns="http://www.w3.org/2000/svg" viewBox="0 0 100 125"><path d="M8.87 53.996c.205 0 .412-.04.611-.127l74.518-32.56-.085.219a1.527 1.527 0 002.848 1.101l1.405-3.634c.013-.034.017-.068.028-.102.018-.06.039-.121.05-.184.008-.046.008-.091.012-.137.004-.054.012-.107.01-.162 0-.047-.01-.093-.015-.14-.006-.052-.008-.104-.02-.156-.013-.058-.035-.114-.054-.17-.013-.037-.02-.074-.036-.11l-.003-.006a1.537 1.537 0 00-.147-.26c-.02-.028-.045-.051-.066-.078-.041-.051-.081-.104-.13-.15-.025-.024-.055-.043-.083-.065-.049-.041-.097-.084-.152-.119a1.533 1.533 0 00-.262-.133l-.006-.003-3.633-1.404a1.527 1.527 0 00-1.101 2.848l.172.067L8.26 51.07a1.528 1.528 0 00-.788 2.01c.251.573.811.915 1.4.915zm83.873 27.437H78.316V62.065l4.363-4.363a1.526 1.526 0 10-2.159-2.158l-2.204 2.204v-8.536c.174.008.354.014.548.014 2.153 0 5.488-.59 8.495-3.597 4.844-4.845 3.416-10.538 3.353-10.777a1.523 1.523 0 00-1.103-1.091c-.24-.061-5.966-1.437-10.761 3.357-.88.88-1.548 1.79-2.059 2.693a12.492 12.492 0 00-2.058-2.693c-4.795-4.795-10.522-3.419-10.761-3.357-.54.135-.962.553-1.103 1.09-.064.24-1.492 5.933 3.353 10.778 3.007 3.007 6.341 3.597 8.495 3.597.194 0 .375-.006.548-.014V71.08L73.4 69.217a1.526 1.526 0 10-2.159 2.159l3.584 3.582c.13.13.282.218.438.292v6.183H51.942v-6.728l2.699-2.7a1.526 1.526 0 10-2.158-2.158l-.541.541v-7.99c.173.009.354.015.547.015 2.155 0 5.49-.59 8.495-3.598 4.845-4.844 3.417-10.536 3.353-10.776a1.525 1.525 0 00-1.102-1.09c-.242-.061-5.967-1.439-10.761 3.355a12.51 12.51 0 00-2.059 2.694 12.495 12.495 0 00-2.059-2.694c-4.794-4.794-10.518-3.416-10.76-3.356a1.525 1.525 0 00-1.103 1.091c-.063.24-1.491 5.932 3.352 10.776 3.008 3.007 6.342 3.598 8.495 3.598.194 0 .375-.006.549-.014v19.034H24.525v-5.848c.173.009.354.014.548.014 2.154 0 5.487-.59 8.495-3.596 4.844-4.845 3.416-10.537 3.353-10.777a1.523 1.523 0 00-1.102-1.091c-.243-.063-5.97-1.439-10.762 3.357-.88.88-1.548 1.79-2.059 2.693a12.491 12.491 0 00-2.059-2.693c-4.792-4.794-10.518-3.418-10.76-3.357a1.525 1.525 0 00-1.102 1.091c-.064.24-1.492 5.932 3.352 10.777 3.007 3.006 6.34 3.596 8.495 3.596.194 0 .374-.005.548-.014v5.848H7.257a1.527 1.527 0 000 3.053h85.486a1.527 1.527 0 000-3.053zM81.006 39.276c2.55-2.548 5.42-2.766 6.886-2.682.096 1.459-.122 4.306-2.692 6.876-2.572 2.572-5.412 2.792-6.876 2.692-.008-.127-.008-.278-.01-.425 0-.08 0-.161-.002-.244.027-1.57.49-4.012 2.694-6.217zM68.378 43.47c-2.572-2.572-2.787-5.421-2.692-6.876 1.464-.083 4.337.135 6.886 2.682 2.204 2.205 2.667 4.646 2.694 6.217 0 .083-.002.164-.001.244-.002.147-.003.298-.01.425-1.466.09-4.308-.123-6.877-2.692zm-13.746 8.993c2.548-2.548 5.418-2.774 6.886-2.681.095 1.459-.122 4.305-2.692 6.875-2.572 2.572-5.411 2.788-6.876 2.692-.008-.126-.009-.275-.01-.42 0-.083 0-.167-.002-.252.028-1.571.49-4.01 2.694-6.214zm-12.628 4.194c-2.572-2.572-2.788-5.421-2.691-6.875 1.47-.083 4.337.133 6.885 2.68 2.205 2.206 2.667 4.646 2.694 6.217l-.002.246c-.001.146-.002.297-.01.424-1.457.09-4.305-.121-6.876-2.692zM27.215 65.65c2.548-2.55 5.417-2.764 6.886-2.683.096 1.46-.122 4.306-2.692 6.876-2.572 2.571-5.413 2.79-6.876 2.692-.008-.126-.008-.275-.01-.42 0-.083 0-.167-.002-.253.028-1.57.491-4.009 2.694-6.212zm-12.628 4.193c-2.572-2.572-2.787-5.422-2.691-6.876 1.474-.081 4.338.134 6.885 2.683 2.205 2.204 2.667 4.644 2.694 6.215 0 .083-.002.165-.001.245-.002.147-.003.297-.01.425-1.458.088-4.306-.122-6.877-2.692z"/></svg>