<svg width="120" height="25" xmlns="http://www.w3.org/2000/svg"><path d="M100.452.372h-4.168c-.235 0-.353.118-.353.353v16.499c0 .822-.264 1.438-.616 1.908s-.822.588-1.41.588a2.015 2.015 0 01-1.438-.588c-.352-.47-.587-1.086-.587-1.908V.724c0-.234-.235-.352-.353-.352H87.33c-.235 0-.352.118-.352.353v16.617c0 2.143.47 4.168 1.79 5.49 1.293 1.32 3.083 2.025 5.138 2.025 2.144 0 3.934-.704 5.138-2.026 1.292-1.291 1.791-3.2 1.791-5.49V.726c.117-.117-.117-.353-.382-.353zm16 11.715c.705-.705 2.027-2.379 2.027-4.551 0-2.525-.97-4.051-1.703-4.903-1.321-1.41-3.083-2.143-5.138-2.143h-6.576a.382.382 0 00-.382.352v23.31c0 .235.235.353.382.353h6.958c2.143 0 4.168-.822 5.49-2.525.704-.94 1.556-2.525 1.556-4.903-.235-2.847-1.997-4.52-2.613-4.99zm-6.928-6.812h2.143c.588 0 1.057.118 1.41.587.381.382.499.97.499 1.703 0 .734-.118 1.292-.5 1.791-.352.352-.821.587-1.291.587h-2.143V5.275h-.118zm3.817 13.74c-.353.47-.822.587-1.556.587h-2.378v-5.05h2.378c.587 0 1.057.265 1.409.617.382.47.617 1.057.617 1.79.117.97-.089 1.557-.47 2.056zm-85.022-4.903c.47-.352.852-.587 1.204-1.086.822-.94 1.908-2.613 1.908-5.255 0-2.525-.969-4.17-1.908-5.138-1.204-1.41-2.995-2.143-5.02-2.26h-6.929c-.235 0-.352.235-.352.352v23.281c0 .235.235.352.352.352h4.169c.235 0 .352-.235.352-.352v-8.602h1.439l2.613 8.837c0 .117.264.235.381.235h4.404c.118 0 .235-.118.352-.118.118 0 .118-.235.118-.352l-3.083-9.894zm-2.642-4.316c-.352.47-.94.734-1.673.734h-2.026V5.275h2.026c.704 0 1.291.235 1.673.705.47.5.616 1.086.616 1.908 0 .852-.117 1.439-.616 1.908zm37.96 2.29c.734-.704 2.026-2.378 2.026-4.55 0-2.525-.94-4.051-1.673-4.903C62.669 1.223 60.877.49 58.852.49h-6.547c-.235 0-.352.235-.352.352v23.31c0 .235.235.353.352.353h6.929c2.143 0 4.168-.822 5.519-2.525.705-.94 1.556-2.525 1.556-4.903-.147-2.847-1.938-4.52-2.672-4.99zm-6.899-6.81h2.143c.587 0 1.057.117 1.41.586.352.382.47.97.47 1.703 0 .734-.118 1.292-.47 1.791-.353.352-.823.587-1.292.587h-2.144V5.275h-.117zm3.934 13.739c-.352.47-.822.587-1.556.587h-2.378v-5.05h2.378c.587 0 1.057.265 1.41.617.351.47.616 1.057.616 1.79.03.97-.088 1.557-.47 2.056zM6.917.02C4.774.02 2.983.725 1.78 2.046.488 3.367.018 5.246.018 7.536v9.923c0 2.143.47 4.169 1.761 5.49 1.322 1.321 3.112 2.026 5.138 2.026 2.143 0 3.963-.705 5.167-2.026 1.292-1.292 1.762-3.2 1.762-5.49v-5.46c0-.265-.235-.5-.47-.5H7.299a.514.514 0 00-.5.5v4.05c0 .236.236.47.5.47h1.556v.97c0 .821-.235 1.555-.587 2.025-.353.47-.852.587-1.439.587-.587 0-1.057-.235-1.438-.587-.353-.47-.587-1.204-.587-2.026V7.683c0-.852.234-1.586.587-2.026.381-.47.851-.587 1.438-.587s1.086.235 1.439.587c.352.47.587 1.174.587 2.026v.94c0 .234.235.38.352.38h4.169c.235 0 .352-.146.352-.38v-.94c0-2.144-.47-4.17-1.79-5.49C10.88.725 8.943.02 6.918.02zm40.867.352h-4.17c-.234 0-.351.118-.351.353v16.499c0 .822-.265 1.438-.617 1.908s-.822.588-1.41.588a2.015 2.015 0 01-1.438-.588c-.352-.47-.587-1.086-.587-1.908V.724c0-.234-.264-.352-.381-.352h-4.17c-.234 0-.351.118-.351.353v16.617c0 2.143.499 4.168 1.79 5.49 1.321 1.32 3.112 2.025 5.138 2.025 2.143 0 3.963-.704 5.138-2.026 1.32-1.291 1.79-3.2 1.79-5.49V.726c-.029-.117-.146-.353-.381-.353zm35.112 0h-4.169c-.234 0-.352.236-.352.353v9.071h-4.169V.725c0-.235-.235-.353-.352-.353h-4.169c-.235 0-.352.236-.352.353v23.281c0 .235.235.352.352.352h4.169c.235 0 .352-.235.352-.352V14.7h4.17v9.307c0 .235.234.352.351.352h4.17c.234 0 .352-.235.352-.352V.725c0-.117-.118-.353-.353-.353z" fill="#5E5E5E" opacity=".7"/></svg>