<svg width="1440" height="636" xmlns="http://www.w3.org/2000/svg"><defs><linearGradient x1="50%" y1="10.548%" x2="50%" y2="100%" id="a"><stop stop-color="#2C0083" offset="0%"/><stop stop-color="#3600A1" offset="21.54%"/><stop stop-color="#6C0AEA" offset="59.668%"/><stop stop-color="#C78BFF" offset="100%"/></linearGradient></defs><g fill="none" fill-rule="evenodd"><path fill="url(#a)" d="M.007 28h1441v638H.007z" transform="translate(-.007 -30)"/><path d="M1 15l149.28.66L227 16c14 1.333 21 8.333 21 21s-7 19.667-21 21H85c-11.875 2.28-17.875 9.28-18 21s5.875 19.053 18 22h82c10.19 3.298 15.19 10.298 15 21-.19 10.702-5.19 18.035-15 22H21c-14.257-.519-21.257 6.481-21 21 .257 14.519 7.257 21.519 21 21h220c10.594 4.097 15.927 11.43 16 22 .073 10.57-5.26 17.903-16 22h-34c-10.118 3.594-14.785 10.594-14 21 .785 10.406 5.452 17.073 14 20l92 1c10.278 2.09 15.611 9.09 16 21 .389 11.91-4.945 19.244-16 22H150c-10.009 1.442-15.009 8.442-15 21 .009 12.558 5.009 19.558 15 21h85c11.055 2.182 16.722 9.85 17 23 .278 13.15-5.389 20.484-17 22H85c-8-.667-14.667 6.333-20 21-6.667 18.667-28.333 27.333-65 26L1 15zm1454.02 389.133l-149.28-.66-76.72-.34c-14-1.333-21-8.333-21-21 0-12.666 7-19.666 21-21h142c11.875-2.28 17.875-9.28 18-21s-5.875-19.053-18-22h-82c-10.191-3.298-15.191-10.298-15-21 .19-10.701 5.19-18.035 15-22h146c14.257.52 21.257-6.48 21-21-.257-14.519-7.257-21.519-21-21h-220c-10.594-4.096-15.927-11.43-16-22-.073-10.57 5.26-17.903 16-22h34c10.118-3.593 14.785-10.593 14-21-.785-10.406-5.452-17.073-14-20l-92-1c-10.278-2.09-15.612-9.09-16-21-.389-11.91 4.945-19.243 16-22h149c10.009-1.441 15.009-8.441 15-21-.009-12.558-5.009-19.558-15-21h-85c-11.055-2.182-16.722-9.849-17-23-.278-13.15 5.388-20.484 17-22h150c8 .667 14.666-6.333 20-21 6.666-18.666 28.333-27.333 65-26l-1 434z" fill="#D8D8D8" opacity=".06"/><path d="M187.774 25.307l10.367 17.155a2 2 0 01.004 2.062L187.778 61.83a2 2 0 01-3.463-.054l-9.65-17.307a2 2 0 01.004-1.955l9.65-17.154a2 2 0 013.455-.054zm-157 275.415l10.367 17.154a2 2 0 01.004 2.062l-10.367 17.307a2 2 0 01-3.463-.054l-9.65-17.307a2 2 0 01.004-1.954l9.65-17.154a2 2 0 013.455-.054z" fill="#FFF" opacity=".05"/><path d="M790.774 8.378l6.963 11.523a2 2 0 01.004 2.062l-6.963 11.625a2 2 0 01-3.463-.053l-6.481-11.626a2 2 0 01.003-1.954l6.482-11.523a2 2 0 013.455-.054z" fill="#8A2782" opacity=".186"/><path d="M1096.774 33.236l15.472 25.602a2 2 0 01.004 2.062l-15.472 25.83a2 2 0 01-3.463-.053l-14.401-25.83a2 2 0 01.003-1.955l14.402-25.602a2 2 0 013.455-.054z" fill="#8A2782" opacity=".237"/><path d="M1410.274 339.343l9.09 15.042a2 2 0 01.004 2.063l-9.09 15.176a2 2 0 01-3.463-.054l-8.461-15.176a2 2 0 01.003-1.955l8.462-15.042a2 2 0 013.455-.054z" fill="#C75BBF" opacity=".187"/></g></svg>