<svg width="1457" height="666" xmlns="http://www.w3.org/2000/svg"><defs><linearGradient x1="50%" y1="0%" x2="50%" y2="100%" id="a"><stop stop-color="#20A6FF" offset="0%"/><stop stop-color="#2074FF" offset="32.32%"/><stop stop-color="#0E57D1" offset="66.132%"/><stop stop-color="#0041AD" offset="100%"/></linearGradient></defs><g fill="none"><path fill="url(#a)" d="M.007 0h1457v666H.007z"/><path d="M1.007 45l149.279.66 76.72.34c14 1.333 21 8.333 21 21s-7 19.667-21 21h-142c-11.874 2.28-17.874 9.28-18 21-.124 11.72 5.876 19.053 18 22h82c10.192 3.298 15.192 10.298 15 21-.19 10.702-5.19 18.035-15 22h-146c-14.256-.519-21.256 6.481-21 21 .258 14.519 7.258 21.519 21 21h220c10.595 4.097 15.928 11.43 16 22 .074 10.57-5.26 17.903-16 22h-34c-10.117 3.594-14.784 10.594-14 21 .786 10.406 5.452 17.073 14 20l92 1c10.279 2.09 15.612 9.09 16 21 .39 11.91-4.944 19.244-16 22h-149c-10.008 1.442-15.008 8.442-15 21 .01 12.558 5.01 19.558 15 21h85c11.056 2.182 16.723 9.85 17 23 .279 13.15-5.388 20.484-17 22h-150c-8-.667-14.666 6.333-20 21-6.666 18.667-28.333 27.333-65 26l1-434zm1454.02 389.133l-149.28-.66-76.72-.34c-14-1.333-21-8.333-21-21 0-12.666 7-19.666 21-21h142c11.874-2.28 17.874-9.28 18-21 .125-11.72-5.875-19.053-18-22h-82c-10.191-3.298-15.191-10.298-15-21 .19-10.701 5.19-18.035 15-22h146c14.256.52 21.256-6.48 21-21-.257-14.519-7.257-21.519-21-21h-220c-10.594-4.096-15.928-11.43-16-22-.073-10.57 5.26-17.903 16-22h34c10.118-3.593 14.784-10.593 14-21-.785-10.406-5.452-17.073-14-20l-92-1c-10.278-2.09-15.612-9.09-16-21-.389-11.91 4.944-19.243 16-22h149c10.008-1.441 15.008-8.441 15-21-.01-12.558-5.01-19.558-15-21h-85c-11.056-2.182-16.722-9.849-17-23-.278-13.15 5.388-20.484 17-22h150c8 .667 14.666-6.333 20-21 6.666-18.666 28.333-27.333 65-26l-1 434z" fill="#CFFFFB" opacity=".081"/><path d="M187.78 55.307l10.367 17.155a2 2 0 01.004 2.062L187.785 91.83a2 2 0 01-3.463-.054l-9.65-17.307a2 2 0 01.004-1.955l9.65-17.154a2 2 0 013.454-.054zm-157 275.415l10.367 17.154a2 2 0 01.004 2.062l-10.366 17.307a2 2 0 01-3.463-.054l-9.65-17.307a2 2 0 01.004-1.954l9.65-17.154a2 2 0 013.454-.054zm760-292.344l6.964 11.523a2 2 0 01.004 2.062l-6.963 11.625a2 2 0 01-3.463-.053l-6.482-11.626a2 2 0 01.004-1.954l6.482-11.523a2 2 0 013.454-.054zm306 24.858l15.473 25.602a2 2 0 01.004 2.062l-15.472 25.83a2 2 0 01-3.463-.053l-14.402-25.83a2 2 0 01.004-1.955l14.402-25.602a2 2 0 013.454-.054zm313.5 306.107l9.091 15.042a2 2 0 01.004 2.063l-9.09 15.176a2 2 0 01-3.463-.054l-8.462-15.176a2 2 0 01.004-1.955l8.462-15.042a2 2 0 013.454-.054z" fill="#5CA9FF" opacity=".608"/></g></svg>