<svg width="95" height="25" xmlns="http://www.w3.org/2000/svg"><g fill="none" opacity=".5"><path d="M69.487 1.819c0-.988.822-1.789 1.834-1.789h21.144c1.013 0 1.835.801 1.835 1.79v21.39c0 .988-.82 1.788-1.834 1.788H71.321c-1.012 0-1.834-.8-1.834-1.788V1.82z" fill="#545454"/><path d="M.03 20.946h10.356v-3.4H3.779V4.576H.03v16.37zm15.598 0V9.67H11.88v11.275h3.748zM13.755 8.132c1.306 0 2.12-.866 2.12-1.949-.025-1.106-.814-1.947-2.095-1.947-1.283 0-2.12.841-2.12 1.947 0 1.083.813 1.949 2.07 1.949h.025zm3.613 12.814h3.748v-6.297c0-.337.024-.674.123-.914.27-.673.887-1.37 1.923-1.37 1.356 0 1.899 1.033 1.899 2.548v6.032h3.747v-6.464c0-3.464-1.85-5.075-4.315-5.075-2.022 0-2.91 1.13-3.403 1.9h.026V9.67h-3.748c.05 1.058 0 11.275 0 11.275zm16.727-16.37h-3.748v16.37h3.748V17.29l.936-1.18 2.934 4.836h4.61l-4.93-7 4.314-4.761h-4.51s-3.083 4.26-3.354 4.765V4.576z" fill="#000"/><path d="M52.597 16.242c.05-.289.124-.844.124-1.473 0-2.914-1.48-5.873-5.375-5.873-4.167 0-6.09 3.295-6.09 6.284 0 3.697 2.342 6.005 6.435 6.005 1.627 0 3.13-.24 4.364-.745l-.493-2.475c-1.011.335-2.047.503-3.329.503-1.75 0-3.278-.719-3.402-2.25l7.766.024zm-7.79-2.535c.098-.962.74-2.382 2.342-2.382 1.701 0 2.096 1.516 2.096 2.382h-4.438zm17.164-9.13v5.666h-.05c-.542-.793-1.676-1.323-3.18-1.323-2.884 0-5.424 2.31-5.4 6.253 0 3.656 2.294 6.037 5.154 6.037 1.553 0 3.032-.674 3.772-1.972h.074l.148 1.708h3.328a62.735 62.735 0 01-.099-3.512V4.576h-3.747zm0 11.15c0 .288-.025.577-.074.817-.221 1.035-1.11 1.755-2.194 1.755-1.553 0-2.564-1.25-2.564-3.222 0-1.852.863-3.343 2.589-3.343 1.158 0 1.972.794 2.194 1.78.049.216.049.457.049.673v1.54z" fill="#000"/><path d="M77.009 20.932V9.657H73.26v11.275h3.748zM75.135 8.118c1.307 0 2.12-.866 2.12-1.948-.024-1.107-.813-1.948-2.095-1.948-1.282 0-2.12.841-2.12 1.948 0 1.082.813 1.948 2.07 1.948h.025zm3.948 12.814h3.747v-6.296c0-.336.025-.674.124-.914.27-.674.887-1.37 1.923-1.37 1.355 0 1.898 1.033 1.898 2.549v6.03h3.747v-6.464c0-3.463-1.848-5.074-4.314-5.074-2.021 0-2.91 1.13-3.402 1.899h.024V9.657h-3.747c.049 1.058 0 11.275 0 11.275z" fill="#FFF"/></g></svg>