<svg width="136" height="32" xmlns="http://www.w3.org/2000/svg"><path d="M135.918 12.532V10.23h-8.382v12.587H136v-2.301h-5.325v-2.85h4.68v-2.285h-4.68v-2.85h5.243zm-11.024 3.92a2.732 2.732 0 001.468-1.015c.38-.498.57-1.075.57-1.73 0-1.011-.39-1.845-1.174-2.5-.782-.651-1.921-.977-3.416-.977h-5.292v12.587h5.879c1.332 0 2.386-.32 3.164-.96.772-.64 1.158-1.46 1.158-2.46 0-1.535-.786-2.516-2.357-2.945zm-1.142-2.603c0 .45-.203.812-.611 1.088-.413.275-1.025.412-1.835.412h-1.141v-2.817h1.647c1.294 0 1.94.439 1.94 1.317zm-3.587 6.667V17.61h1.647c1.527 0 2.291.484 2.291 1.452 0 .969-.77 1.453-2.307 1.453h-1.631zm-11.84-10.286h-3.107v7.841c0 1.572.503 2.786 1.509 3.643 1.01.857 2.359 1.286 4.044 1.286 1.68 0 3.02-.431 4.02-1.294.995-.862 1.492-2.119 1.492-3.77V10.23h-3.106v7.738c0 1.614-.81 2.42-2.43 2.42-1.615 0-2.422-.777-2.422-2.332V10.23zM97.52 16.54c0-1.17.37-2.106 1.109-2.81.739-.703 1.69-1.055 2.854-1.055 1.163 0 2.253.285 3.27.857V10.77c-.827-.476-2.004-.714-3.531-.714-2.093 0-3.787.605-5.08 1.817-1.305 1.212-1.957 2.767-1.957 4.667 0 1.904.671 3.452 2.014 4.643 1.337 1.185 3.003 1.777 4.998 1.777 1.544 0 2.729-.233 3.555-.698v-2.825c-.902.597-1.965.896-3.188.896-1.218 0-2.196-.338-2.935-1.016-.74-.682-1.11-1.608-1.11-2.777zm-3.564-6.31H90.85v12.587h3.106V10.23zm-14.979 0h-3.416l-1.175 12.587h3.123l.424-4.88c.115-1.567.172-2.791.172-3.675.282.984 1.356 3.794 3.22 8.428h1.835c1.963-4.857 3.085-7.666 3.368-8.428l.269 3.675.506 4.88h3.106L89 10.23h-3.417l-1.924 4.556c-.723 1.72-1.194 2.99-1.411 3.81a17.441 17.441 0 00-.506-1.628c-.212-.571-1.133-2.817-2.764-6.738zm-16.3 0H59.26l-1.174 12.587h3.123l.424-4.88c.115-1.567.172-2.791.172-3.675.282.984 1.356 3.794 3.22 8.428h1.835c1.963-4.857 3.085-7.666 3.368-8.428l.269 3.675.505 4.88h3.107L72.7 10.23h-3.417l-1.924 4.556c-.723 1.72-1.194 2.99-1.411 3.81a17.44 17.44 0 00-.506-1.628c-.212-.571-1.133-2.817-2.764-6.738zm-12.655 0h-3.107v7.841c0 1.572.503 2.786 1.509 3.643 1.01.857 2.359 1.286 4.044 1.286 1.68 0 3.02-.431 4.02-1.294.995-.862 1.492-2.119 1.492-3.77V10.23h-3.106v7.738c0 1.614-.81 2.42-2.43 2.42-1.615 0-2.422-.777-2.422-2.332V10.23zm-4.51 3.429v-2.873c-1.12-.524-2.446-.786-3.979-.786-2.18 0-3.982.595-5.406 1.786C34.71 12.96 34 14.54 34 16.524c0 1.979.682 3.547 2.047 4.706 1.359 1.154 3.074 1.73 5.145 1.73 2.071 0 3.754-.433 5.047-1.301v-6.35h-5.226v2.445h2.201v2.373a6.12 6.12 0 01-1.712.246c-1.283 0-2.294-.35-3.034-1.048-.744-.698-1.117-1.635-1.117-2.81 0-1.179.38-2.118 1.142-2.817.745-.703 1.78-1.055 3.107-1.055 1.32 0 2.625.338 3.914 1.016zM27.926 8.945a.307.307 0 00-.196-.115.557.557 0 00-.09-.008.293.293 0 00-.13-.139L16.068 2.075c.038-.142.057-.291.057-.45 0-.452-.16-.835-.482-1.151A1.544 1.544 0 0014.499 0c-.453 0-.84.158-1.161.474-.311.316-.467.7-.467 1.152 0 .272.058.52.172.743L2.977 8.185a2.055 2.055 0 00-.205-.237 1.544 1.544 0 00-1.145-.474c-.452 0-.84.158-1.16.474C.154 8.264 0 8.648 0 9.1c0 .452.155.833.466 1.143.284.284.616.442.998.474l.016 11.975c-.392.028-.73.183-1.014.466-.31.316-.466.7-.466 1.152 0 .452.155.833.466 1.143.322.322.709.482 1.161.482.453 0 .834-.16 1.145-.482.055-.054.107-.109.156-.163l11.236 6.478c.25.147.395.223.433.228a.35.35 0 00.22-.04l13.02-7.516a.438.438 0 00.122-.122.33.33 0 00.041-.163V9.149a.314.314 0 00-.074-.204zM3.255 9.1a1.58 1.58 0 00-.123-.63l10.091-5.823c.033.038.07.079.115.122a1.59 1.59 0 001.144.482l.009 12.94L3.165 9.662c.06-.174.09-.362.09-.563zm-.483 1.143a.27.27 0 01.041-.032l11.35 6.543L2.88 23.272a2.056 2.056 0 00-.107-.114 1.53 1.53 0 00-.965-.466l-.016-11.975c.381-.032.709-.19.981-.474zM15.644 2.77a.796.796 0 00.114-.122l11.26 6.502-12.2 7.05-.008-12.972c.321-.06.6-.213.834-.458zm.482 26.36V17.513l10.075-5.824v11.624L16.126 29.13zM3.255 24.31c0-.282-.063-.538-.188-.767l11.26-6.494v14.058L3.214 24.702c.027-.126.04-.256.04-.392z" fill="#FFF"/></svg>