<svg width="836" height="197" xmlns="http://www.w3.org/2000/svg"><path d="M835.25 78.35v-14.5h-51.4v79.3h51.9v-14.5H803.1V110.7h28.7V96.3h-28.7V78.35h32.15zm-67.6 24.7c3.7-1.1 6.7-3.233 9-6.4 2.333-3.133 3.5-6.767 3.5-10.9 0-6.367-2.4-11.617-7.2-15.75-4.8-4.1-11.783-6.15-20.95-6.15h-32.45v79.3h36.05c8.167 0 14.633-2.017 19.4-6.05 4.733-4.033 7.1-9.2 7.1-15.5 0-9.667-4.817-15.85-14.45-18.55zm-7-16.4c0 2.833-1.25 5.117-3.75 6.85-2.533 1.733-6.283 2.6-11.25 2.6h-7V78.35h10.1c7.933 0 11.9 2.767 11.9 8.3zm-22 42v-18.3h10.1c9.367 0 14.05 3.05 14.05 9.15 0 6.1-4.717 9.15-14.15 9.15h-10zm-72.6-64.8H647v49.4c0 9.9 3.083 17.55 9.25 22.95 6.2 5.4 14.467 8.1 24.8 8.1 10.3 0 18.517-2.717 24.65-8.15 6.1-5.433 9.15-13.35 9.15-23.75V63.85H695.8v48.75c0 10.167-4.967 15.25-14.9 15.25-9.9 0-14.85-4.9-14.85-14.7v-49.3zM599.8 103.6c0-7.367 2.267-13.267 6.8-17.7 4.533-4.433 10.367-6.65 17.5-6.65 7.133 0 13.817 1.8 20.05 5.4v-17.4c-5.067-3-12.283-4.5-21.65-4.5-12.833 0-23.217 3.817-31.15 11.45-8 7.633-12 17.433-12 29.4 0 12 4.117 21.75 12.35 29.25 8.2 7.467 18.417 11.2 30.65 11.2 9.467 0 16.733-1.467 21.8-4.4v-17.8c-5.533 3.767-12.05 5.65-19.55 5.65-7.467 0-13.467-2.133-18-6.4-4.533-4.3-6.8-10.133-6.8-17.5zm-21.85-39.75H558.9v79.3h19.05v-79.3zm-91.85 0h-20.95l-7.2 79.3h19.15l2.6-30.75c.7-9.867 1.05-17.583 1.05-23.15 1.733 6.2 8.317 23.9 19.75 53.1h11.25c12.033-30.6 18.917-48.3 20.65-53.1l1.65 23.15 3.1 30.75h19.05l-8.65-79.3H526.6l-11.8 28.7c-4.433 10.833-7.317 18.833-8.65 24-.8-3.233-1.833-6.65-3.1-10.25-1.3-3.6-6.95-17.75-16.95-42.45zm-99.95 0H365.2l-7.2 79.3h19.15l2.6-30.75c.7-9.867 1.05-17.583 1.05-23.15 1.733 6.2 8.317 23.9 19.75 53.1h11.25c12.033-30.6 18.917-48.3 20.65-53.1l1.65 23.15 3.1 30.75h19.05l-8.65-79.3h-20.95l-11.8 28.7c-4.433 10.833-7.317 18.833-8.65 24-.8-3.233-1.833-6.65-3.1-10.25-1.3-3.6-6.95-17.75-16.95-42.45zm-77.6 0H289.5v49.4c0 9.9 3.083 17.55 9.25 22.95 6.2 5.4 14.467 8.1 24.8 8.1 10.3 0 18.517-2.717 24.65-8.15 6.1-5.433 9.15-13.35 9.15-23.75V63.85H338.3v48.75c0 10.167-4.967 15.25-14.9 15.25-9.9 0-14.85-4.9-14.85-14.7v-49.3zm-27.65 21.6v-18.1c-6.867-3.3-15-4.95-24.4-4.95-13.367 0-24.417 3.75-33.15 11.25-8.7 7.4-13.05 17.35-13.05 29.85 0 12.467 4.183 22.35 12.55 29.65 8.333 7.267 18.85 10.9 31.55 10.9s23.017-2.733 30.95-8.2v-40H253.3v15.4h13.5v14.95a36.594 36.594 0 01-10.5 1.55c-7.867 0-14.067-2.2-18.6-6.6-4.567-4.4-6.85-10.3-6.85-17.7 0-7.433 2.333-13.35 7-17.75 4.567-4.433 10.917-6.65 19.05-6.65 8.1 0 16.1 2.133 24 6.4zm-109.85-30.4c-.333-.4-.733-.633-1.2-.7a3.4 3.4 0 00-.55-.05 1.795 1.795 0 00-.8-.85L98.55 13c.233-.867.35-1.783.35-2.75 0-2.767-.983-5.117-2.95-7.05-1.9-1.933-4.233-2.9-7-2.9-2.767 0-5.133.967-7.1 2.9C79.95 5.133 79 7.483 79 10.25c0 1.667.35 3.183 1.05 4.55L18.5 50.4c-.367-.5-.783-.983-1.25-1.45-1.9-1.933-4.233-2.9-7-2.9-2.767 0-5.133.967-7.1 2.9C1.25 50.883.3 53.233.3 56c0 2.767.95 5.1 2.85 7 1.733 1.733 3.767 2.7 6.1 2.9l.1 73.3c-2.4.167-4.467 1.117-6.2 2.85-1.9 1.933-2.85 4.283-2.85 7.05 0 2.767.95 5.1 2.85 7 1.967 1.967 4.333 2.95 7.1 2.95 2.767 0 5.1-.983 7-2.95.333-.333.65-.667.95-1l68.7 39.65c1.533.9 2.417 1.367 2.65 1.4.467.067.917-.017 1.35-.25l79.6-46c.3-.2.55-.45.75-.75.167-.3.25-.633.25-1V56.3c0-.467-.15-.883-.45-1.25zM20.2 56c0-1.4-.25-2.683-.75-3.85l61.7-35.65c.2.233.433.483.7.75 1.933 1.933 4.267 2.917 7 2.95l.05 79.2-69.25-39.95c.367-1.067.55-2.217.55-3.45zm-2.95 7c.067-.067.15-.133.25-.2l69.4 40.05-69 39.9c-.2-.233-.417-.467-.65-.7-1.633-1.667-3.6-2.617-5.9-2.85l-.1-73.3c2.333-.2 4.333-1.167 6-2.9zm78.7-45.75c.267-.233.5-.483.7-.75l68.85 39.8-74.6 43.15-.05-79.4c1.967-.367 3.667-1.3 5.1-2.8zM98.9 178.6v-71.1l61.6-35.65V143l-61.6 35.6zm-78.7-29.5c0-1.733-.383-3.3-1.15-4.7l68.85-39.75v86.05l-67.95-39.2c.167-.767.25-1.567.25-2.4z" fill="#2074FF"/></svg>