<svg height="498" viewBox="0.265 0.265 113.109 22.119" width="2500" xmlns="http://www.w3.org/2000/svg"><path d="M56.753 14.631l-2.963-1.746-.212.344c-.661 1.059-1.587 1.588-2.725 1.588-1.958 0-3.413-1.482-3.413-3.413 0-1.958 1.481-3.414 3.413-3.414 1.164 0 2.01.503 2.725 1.588l.212.344 2.963-1.746-.264-.37c-1.43-2.065-3.255-3.043-5.663-3.043-4.524 0-6.958 3.44-6.958 6.667 0 3.228 2.434 6.668 6.958 6.668 2.302 0 4.472-1.165 5.663-3.07zm-.159 3.414h4.075l1.217-3.017h6.112l1.217 3.017h4.101L66.014.397h-3.652l.98 2.355zm8.388-10.69l1.64 4.154h-3.334zM75.01 18.071h3.571v-7.937h2.329V6.8h-2.33V5.239c0-.688.45-1.403 1.297-1.403.45 0 .74.08 1.005.186l.397.158L82.762.926l-.397-.132c-.662-.265-1.588-.37-2.25-.37-1.613 0-2.962.529-3.862 1.534-.794.873-1.244 2.09-1.244 3.44v1.428h-1.587v3.334h1.587zM38.444 7.885v10.16h3.89V.29l-7.647 5.768L27.014.291v17.727l3.89.027V7.885l3.783 2.804zM88.98 4.763c-4.499 0-6.933 3.413-6.933 6.64 0 3.228 2.434 6.642 6.932 6.642 2.064-.027 3.996-.953 5.504-2.673l-2.91-1.587c-.742.767-1.668 1.164-2.673 1.164-1.482 0-2.778-.979-3.122-2.275h9.737V11.8c.026-4.841-3.81-7.011-6.536-7.037zM85.856 9.79c.477-1.217 1.482-1.905 2.778-1.905 1.323 0 2.355.688 2.884 1.931zm17.754-5.001c-4.497 0-6.931 3.413-6.931 6.641s2.434 6.641 6.932 6.641c2.064-.026 3.995-.952 5.503-2.672l-2.91-1.588c-.741.768-1.667 1.164-2.673 1.164-1.481 0-2.778-.979-3.122-2.275h9.737v-.873c.027-4.842-3.81-7.038-6.535-7.038zm-3.121 5c.476-1.216 1.481-1.93 2.778-1.904 1.323 0 2.355.688 2.884 1.931zm9.207-5.609h1.508v.291h-.608V6.06h-.318V4.471h-.582zm1.747 0h.45l.528 1.456.503-1.456h.45v1.88h-.318V4.604l-.529 1.455h-.264l-.53-1.455v1.455h-.317V4.18zM9.869 4.71L.265.265v17.674l9.604 4.445v-4.34l-5.662-2.619V6.43l5.662 2.62z" fill="#c01818"/><path d="M9.869 4.71l9.63-4.445v17.674l-9.63 4.445v-4.34l5.688-2.619V6.43L9.87 9.05z" fill="#75160d"/></svg>