<svg width="124" height="25" xmlns="http://www.w3.org/2000/svg"><g fill="none" opacity=".7"><path d="M61.61 15.883l-3.216-1.895-.23.373c-.718 1.15-1.723 1.724-2.959 1.724-2.125 0-3.705-1.609-3.705-3.705 0-2.126 1.608-3.706 3.705-3.706 1.264 0 2.182.546 2.959 1.724l.23.373 3.216-1.895-.286-.402c-1.553-2.242-3.534-3.303-6.148-3.303-4.911 0-7.553 3.734-7.553 7.237 0 3.505 2.642 7.239 7.553 7.239 2.5 0 4.855-1.265 6.148-3.333l.286-.43zm-.172 3.706h4.424l1.32-3.275h6.636l1.321 3.275h4.452L71.664.431h-3.965l1.064 2.557-7.325 16.601zm9.106-11.604l1.78 4.509h-3.62l1.84-4.51zM81.43 19.618h3.877V11h2.528V7.382h-2.53V5.687c0-.746.489-1.523 1.409-1.523.488 0 .803.087 1.09.202l.432.172 1.61-3.533-.432-.143C88.696.574 87.691.46 86.972.46c-1.751 0-3.216.575-4.193 1.666-.862.947-1.35 2.268-1.35 3.734v1.55h-1.723v3.62h1.723l.001 8.588zM41.734 8.56v11.03h4.223V.314l-8.301 6.261-8.33-6.26V19.56l4.223.03V8.56l4.107 3.044zm54.862-3.39c-4.884 0-7.527 3.706-7.527 7.209 0 3.504 2.643 7.21 7.526 7.21 2.24-.029 4.338-1.034 5.975-2.901l-3.16-1.723c-.805.832-1.81 1.263-2.901 1.263-1.61 0-3.016-1.062-3.39-2.47h10.571v-.948c.028-5.255-4.136-7.611-7.095-7.64zm-3.392 5.458c.518-1.321 1.61-2.068 3.016-2.068 1.436 0 2.557.747 3.13 2.096l-6.146-.028zm19.274-5.43c-4.882 0-7.524 3.706-7.524 7.21 0 3.505 2.642 7.21 7.525 7.21 2.24-.029 4.337-1.034 5.974-2.901l-3.16-1.724c-.804.834-1.809 1.264-2.901 1.264-1.608 0-3.016-1.063-3.39-2.47h10.571v-.948c.03-5.256-4.136-7.64-7.094-7.64h-.001zm-3.388 5.429c.516-1.32 1.607-2.095 3.015-2.067 1.437 0 2.557.747 3.131 2.096l-6.146-.03zm9.995-6.09h1.637v.317h-.66v1.725h-.346V4.854h-.631v-.316zm1.896 0h.489l.573 1.581.546-1.58h.488v2.04h-.345v-1.58l-.574 1.58h-.287l-.575-1.58v1.58h-.344v-2.04h.03zm-110.267.576L.288.288v19.186L10.714 24.3v-4.712l-6.147-2.843V6.98l6.147 2.845z" fill="#3C3C3C"/><path fill="#2A2A2A" d="M10.714 5.113L21.168.288v19.186L10.714 24.3v-4.712l6.174-2.843V6.98l-6.173 2.845z"/></g></svg>