<svg width="118" height="25" xmlns="http://www.w3.org/2000/svg"><g fill="none" opacity=".8"><path d="M41.318 14.4l-.698 1.976h-.058a14.034 14.034 0 00-.678-1.938l-3.74-9.4H32.48V20.02h2.422v-9.244c0-.581 0-1.24-.02-2.054-.019-.407-.057-.717-.077-.95h.058c.117.582.252 1.008.35 1.28l4.495 10.93h1.706l4.457-11.028c.097-.251.194-.755.29-1.182h.059a139.79 139.79 0 00-.116 2.694v9.496h2.577V5h-3.527l-3.837 9.4zm9.806-5.175h2.52V19.96h-2.52V9.225zm1.28-4.535a1.51 1.51 0 00-1.067.426c-.29.272-.446.62-.446 1.047 0 .407.156.756.446 1.027.29.271.64.407 1.066.407.426 0 .795-.155 1.066-.407.29-.271.446-.62.446-1.027 0-.407-.155-.756-.446-1.047-.252-.271-.62-.426-1.066-.426zm10.174 4.438a7.027 7.027 0 00-1.415-.155c-1.144 0-2.19.252-3.062.756-.872.504-1.57 1.201-2.016 2.073-.465.892-.697 1.919-.697 3.101 0 1.027.232 1.938.678 2.771.446.814 1.066 1.473 1.9 1.919.794.446 1.724.678 2.77.678 1.202 0 2.23-.252 3.043-.717l.02-.02V17.21l-.097.078a4.33 4.33 0 01-1.221.64c-.446.154-.853.232-1.202.232-1.008 0-1.802-.29-2.364-.93-.582-.62-.872-1.473-.872-2.54 0-1.104.29-1.976.891-2.615.6-.64 1.395-.97 2.364-.97.814 0 1.648.272 2.404.815l.096.077V9.535l-.019-.02c-.33-.135-.698-.29-1.201-.387zm8.313-.078c-.62 0-1.201.194-1.705.601-.426.349-.717.853-.969 1.454h-.02v-1.88h-2.519V19.96h2.52v-5.484c0-.93.193-1.706.62-2.268.426-.581.969-.872 1.628-.872.232 0 .465.058.756.097.27.078.465.155.6.252l.097.078v-2.52l-.058-.02c-.174-.115-.523-.174-.95-.174zm6.86-.058c-1.763 0-3.177.524-4.166 1.55-1.007 1.028-1.492 2.442-1.492 4.225 0 1.667.504 3.024 1.473 4.012.969.97 2.287 1.473 3.934 1.473 1.725 0 3.1-.523 4.09-1.57 1.007-1.046 1.491-2.442 1.491-4.166 0-1.706-.465-3.063-1.414-4.05-.911-.99-2.248-1.474-3.915-1.474zm2.016 8.256c-.465.6-1.201.892-2.112.892-.91 0-1.647-.291-2.17-.93-.524-.601-.776-1.474-.776-2.578 0-1.144.272-2.016.775-2.636.524-.62 1.24-.93 2.152-.93.891 0 1.589.29 2.093.891s.775 1.473.775 2.617c-.039 1.162-.252 2.073-.737 2.674zm8.935-3.566c-.795-.33-1.299-.581-1.531-.794-.194-.194-.291-.466-.291-.814a.9.9 0 01.407-.776c.29-.193.62-.29 1.104-.29.427 0 .873.077 1.299.194.426.116.814.29 1.124.523l.097.077V9.438l-.058-.02a6.993 6.993 0 00-1.144-.329 7.769 7.769 0 00-1.24-.116c-1.202 0-2.19.29-2.965.93-.775.6-1.144 1.415-1.144 2.364 0 .504.078.95.252 1.318.175.368.427.717.776 1.008.348.271.852.581 1.55.872.581.252 1.027.446 1.298.6.272.156.446.33.582.466a1.1 1.1 0 01.155.6c0 .718-.543 1.067-1.647 1.067-.427 0-.873-.078-1.396-.252a5.392 5.392 0 01-1.414-.717l-.097-.078v2.461l.058.02c.368.174.814.29 1.356.426.543.097 1.027.175 1.454.175 1.298 0 2.364-.291 3.12-.93.775-.62 1.182-1.415 1.182-2.443 0-.717-.194-1.356-.62-1.84a7.858 7.858 0 00-2.267-1.338zm9.534-4.69c-1.763 0-3.178.524-4.166 1.55-.989 1.028-1.492 2.442-1.492 4.225 0 1.667.503 3.024 1.472 4.012.97.97 2.287 1.473 3.934 1.473 1.725 0 3.101-.523 4.09-1.57 1.007-1.046 1.492-2.442 1.492-4.166 0-1.706-.465-3.063-1.415-4.05-.91-.99-2.248-1.474-3.915-1.474zm1.997 8.256c-.466.6-1.202.892-2.113.892-.93 0-1.647-.291-2.17-.93-.524-.601-.776-1.474-.776-2.578 0-1.144.272-2.016.776-2.636.523-.62 1.24-.93 2.15-.93.873 0 1.59.29 2.094.891.504.601.775 1.473.775 2.617 0 1.162-.252 2.073-.736 2.674zm16.802-5.95V9.225h-2.539V6.047l-.077.019-2.403.717-.059.02v2.422h-3.798V7.868c0-.62.155-1.104.426-1.415.272-.31.679-.465 1.182-.465.35 0 .717.078 1.124.252l.097.058v-2.19l-.058-.019c-.349-.116-.814-.194-1.414-.194a4.55 4.55 0 00-2.016.465c-.6.33-1.047.776-1.376 1.376-.33.582-.504 1.24-.504 1.997v1.492h-1.763v2.054h1.763v8.682h2.539v-8.663h3.798v5.524c0 2.267 1.066 3.41 3.198 3.41.349 0 .717-.058 1.066-.116.368-.077.64-.174.795-.252l.019-.019v-2.074l-.097.078c-.155.097-.29.174-.523.232a1.774 1.774 0 01-.504.078c-.504 0-.853-.116-1.105-.407-.232-.271-.349-.717-.349-1.376v-5.078h2.578z" fill="#737373"/><path fill="#6F6F6F" d="M0 0h11.88v11.88H0z"/><path fill="#A0A0A0" d="M13.12 0H25v11.88H13.12z"/><path fill="#878787" d="M0 13.12h11.88V25H0z"/><path fill="#BBB" d="M13.12 13.12H25V25H13.12z"/></g></svg>