<svg width="1440" height="337" xmlns="http://www.w3.org/2000/svg"><g fill="none" fill-rule="evenodd"><path fill="#F1F1F1" d="M0 0h1440v337H0z"/><path stroke="#737373" stroke-width="4" stroke-linecap="round" d="M219 124l-36 36 36 36m1000-72l36 36-36 36"/><path d="M747.474 55c-9.115 0-15.165 6.815-15.165 15.49 0 9.172 6.132 15.478 15.165 15.478 8.86 0 15.134-6.59 15.134-15.485 0-8.894-6.274-15.483-15.134-15.483zm-51.895.022c-2.895 0-6.56 1.002-9.255 3.23-3.216 2.66-5.705 6.82-5.705 12.417 0 4.826 1.556 8.713 4.362 11.345C687.73 84.593 691.615 86 696.433 86c3.879 0 8.564-1.472 10.573-2.72.703-.437.924-.625.741-1.339l-1.254-3.571c-.146-.586-.792-.736-1.318-.474-.882.436-1.54.779-2.435 1.11-1.737.646-3.534 1.086-5.245 1.086-3.602 0-5.65-.984-7.219-2.8-.996-1.154-1.58-2.615-1.761-4.304h19.878c.723 0 1.045-.503 1.045-1.353v-1.44c0-.701-.031-1.803-.09-2.461-.366-4.024-1.839-7.26-4.296-9.454-2.367-2.116-5.544-3.258-9.473-3.258zm32.409.029c-5.74 0-9.245 1.323-11.495 4.238-1.723 2.236-2.034 4.736-2.032 10.085v14.683c.08 1.046.498 1.535 1.47 1.535h4.542c1.05 0 1.48-.55 1.48-1.535V69.1c0-3.37.04-5.25 1.219-6.522 1.014-1.093 2.374-1.809 5.227-1.809.565 0 1.92.15 2.393.208.179.022.324.036.401.036.492 0 .663-.18.82-.808l.682-3.366c.126-.69.021-1.227-.663-1.39-1.04-.247-2.696-.4-4.044-.4zm-75.314.4c-.494 0-.85.395-.646 1.064 1.353 4.443 4.785 9.719 8.344 14.05-4.535 4.106-7.706 9.569-9.298 13.958-.234.646.13 1.068.487 1.068h5.352c.77 0 1.123-.276 1.477-1.063 1.446-3.212 3.594-6.919 6.411-9.925 2.583 2.5 4.842 6.3 6.29 9.925.406 1.003.875 1.063 1.482 1.063h5.834c1.117 0 1.216-.609 1.015-1.14-2.225-5.896-6.96-11.915-9.63-14.458 2.445-2.623 6.878-7.691 8.815-13.478.285-.852-.242-1.064-.68-1.064h-4.885c-.592 0-.988.208-1.426 1.064-2.631 4.988-5 7.93-6.02 8.99-1.607-1.919-3.72-5.369-5.266-8.99-.336-.786-.691-1.064-1.37-1.064h-6.286zm112.494 0c-.492 0-.848.395-.646 1.064 1.353 4.443 4.785 9.719 8.344 14.05-4.534 4.106-7.705 9.569-9.296 13.958-.235.646.131 1.068.487 1.068h5.35c.77 0 1.124-.276 1.476-1.063 1.447-3.212 3.595-6.919 6.413-9.925 2.583 2.5 4.842 6.3 6.289 9.925.41 1.003.878 1.063 1.482 1.063h5.835c1.116 0 1.215-.609 1.015-1.14-2.227-5.896-6.962-11.915-9.629-14.458 2.444-2.623 6.878-7.691 8.814-13.478.286-.852-.242-1.064-.68-1.064h-4.884c-.593 0-.99.208-1.428 1.064-2.63 4.988-4.999 7.93-6.018 8.99-1.609-1.919-3.722-5.369-5.268-8.99-.335-.786-.692-1.064-1.37-1.064h-6.286zm-17.69 5.22c5.307 0 7.307 4.613 7.307 9.814 0 5.202-2 9.819-7.307 9.818-5.308 0-7.353-4.616-7.353-9.818 0-5.2 2.045-9.815 7.353-9.815zm-51.65.026c3.97 0 6.396 2.71 6.396 6.734v.183h-13.72a9.469 9.469 0 01.878-2.854c1.223-2.48 3.556-4.063 6.446-4.063z" opacity=".5" fill="#3A3A3A" fill-rule="nonzero"/><path d="M329.268 132.108c.25.147.44.345.572.594.132.25.198.528.198.836 0 .572-.187 1.041-.561 1.408-.374.367-.825.55-1.353.55-.484 0-.887-.161-1.21-.484-.323-.323-.484-.733-.484-1.232a2 2 0 01.143-.737c.095-.242.253-.554.473-.935l2.024-3.432h1.76l-1.562 3.432zm4.664 0c.25.147.44.345.572.594.132.25.198.528.198.836 0 .572-.187 1.041-.561 1.408-.374.367-.825.55-1.353.55-.484 0-.887-.161-1.21-.484-.323-.323-.484-.733-.484-1.232a2 2 0 01.143-.737c.095-.242.253-.554.473-.935l2.024-3.432h1.76l-1.562 3.432zm13.574 5.016h2.706l-1.254 6.204a8.886 8.886 0 01-2.651 1.397 9.71 9.71 0 01-3.091.495c-1.51 0-2.83-.275-3.96-.825-1.13-.55-1.998-1.32-2.607-2.31-.609-.99-.913-2.138-.913-3.443 0-1.73.396-3.3 1.188-4.708.792-1.408 1.914-2.519 3.366-3.333 1.452-.814 3.124-1.221 5.016-1.221 1.393 0 2.61.216 3.652.649 1.041.433 1.885 1.06 2.53 1.881l-2.068 1.716a4.467 4.467 0 00-1.782-1.32c-.69-.279-1.51-.418-2.464-.418-1.305 0-2.453.29-3.443.869a6.039 6.039 0 00-2.299 2.365c-.543.997-.814 2.112-.814 3.344 0 1.305.425 2.34 1.276 3.102.85.763 2.068 1.144 3.652 1.144 1.07 0 2.068-.242 2.992-.726l.968-4.862zm18.348-3.872L363.5 145h-2.618l.264-1.298c-1.056.968-2.383 1.452-3.982 1.452-1.29 0-2.321-.348-3.091-1.045s-1.155-1.676-1.155-2.937c0-.47.051-.939.154-1.408l1.298-6.512h2.75l-1.298 6.446a4.588 4.588 0 00-.088.902c0 .69.194 1.217.583 1.584.389.367.972.55 1.749.55.997 0 1.826-.282 2.486-.847.66-.565 1.1-1.412 1.32-2.541l1.232-6.094h2.75zm18.106-.132c1.32 0 2.358.337 3.113 1.012.755.675 1.133 1.643 1.133 2.904 0 .47-.051.953-.154 1.452L386.754 145h-2.75l1.298-6.446c.059-.293.088-.601.088-.924 0-1.408-.748-2.112-2.244-2.112-1.95 0-3.153 1.122-3.608 3.366L378.306 145h-2.75l1.298-6.446c.059-.293.088-.601.088-.924 0-1.408-.748-2.112-2.244-2.112-1.95 0-3.153 1.13-3.608 3.388L369.858 145h-2.75l2.332-11.748h2.618l-.242 1.276c.997-.939 2.28-1.408 3.85-1.408.85 0 1.591.165 2.222.495.63.33 1.107.81 1.43 1.441 1.203-1.29 2.75-1.936 4.642-1.936zm23.166 0c1.32 0 2.358.337 3.113 1.012.755.675 1.133 1.643 1.133 2.904 0 .47-.051.953-.154 1.452L409.92 145h-2.75l1.298-6.446c.059-.293.088-.601.088-.924 0-1.408-.748-2.112-2.244-2.112-1.95 0-3.153 1.122-3.608 3.366L401.472 145h-2.75l1.298-6.446c.059-.293.088-.601.088-.924 0-1.408-.748-2.112-2.244-2.112-1.95 0-3.153 1.13-3.608 3.388L393.024 145h-2.75l2.332-11.748h2.618l-.242 1.276c.997-.939 2.28-1.408 3.85-1.408.85 0 1.591.165 2.222.495.63.33 1.107.81 1.43 1.441 1.203-1.29 2.75-1.936 4.642-1.936zm8.646.132h2.75L416.19 145h-2.75l2.332-11.748zm2.002-1.936c-.484 0-.88-.15-1.188-.451a1.466 1.466 0 01-.462-1.089c0-.499.172-.917.517-1.254.345-.337.796-.506 1.353-.506.484 0 .88.143 1.188.429.308.286.462.634.462 1.045 0 .543-.172.983-.517 1.32-.345.337-.796.506-1.353.506zm7.898 13.838c-1.159 0-2.174-.216-3.047-.649-.873-.433-1.544-1.038-2.013-1.815-.47-.777-.704-1.68-.704-2.706 0-1.305.3-2.479.902-3.52a6.473 6.473 0 012.497-2.453c1.063-.594 2.277-.891 3.641-.891 1.188 0 2.211.231 3.069.693.858.462 1.522 1.148 1.991 2.057l-2.354 1.21c-.543-1.085-1.518-1.628-2.926-1.628-.777 0-1.47.187-2.079.561a3.956 3.956 0 00-1.441 1.562c-.352.667-.528 1.426-.528 2.277 0 .924.271 1.646.814 2.167.543.52 1.313.781 2.31.781.675 0 1.283-.136 1.826-.407a3.722 3.722 0 001.386-1.221l2.024 1.364c-.543.821-1.29 1.463-2.244 1.925-.953.462-1.995.693-3.124.693zm20.636-11.902L443.954 145h-2.618l.264-1.298c-1.056.968-2.383 1.452-3.982 1.452-1.29 0-2.321-.348-3.091-1.045s-1.155-1.676-1.155-2.937c0-.47.051-.939.154-1.408l1.298-6.512h2.75l-1.298 6.446a4.588 4.588 0 00-.088.902c0 .69.194 1.217.583 1.584.389.367.972.55 1.749.55.997 0 1.826-.282 2.486-.847.66-.565 1.1-1.412 1.32-2.541l1.232-6.094h2.75zm9.79-.132c.968 0 1.844.205 2.629.616a4.576 4.576 0 011.859 1.782c.455.777.682 1.694.682 2.75 0 1.305-.29 2.482-.869 3.531a6.398 6.398 0 01-2.376 2.464c-1.005.594-2.123.891-3.355.891-.968 0-1.804-.172-2.508-.517a3.595 3.595 0 01-1.606-1.507l-.374 1.87h-2.618l3.256-16.324h2.75l-1.122 5.676c.997-.821 2.215-1.232 3.652-1.232zm-1.65 9.68c.777 0 1.47-.187 2.079-.561a3.956 3.956 0 001.441-1.562c.352-.667.528-1.426.528-2.277 0-.924-.271-1.646-.814-2.167-.543-.52-1.305-.781-2.288-.781-.777 0-1.47.187-2.079.561a3.956 3.956 0 00-1.441 1.562c-.352.667-.528 1.426-.528 2.277 0 .924.271 1.646.814 2.167.543.52 1.305.781 2.288.781zm20.504-4.532a7.89 7.89 0 01-.176 1.672h-9.328c.044 1.921 1.173 2.882 3.388 2.882a5.51 5.51 0 001.892-.319 4.342 4.342 0 001.496-.891l1.144 1.914c-.601.543-1.324.95-2.167 1.221a8.602 8.602 0 01-2.651.407c-1.173 0-2.196-.213-3.069-.638-.873-.425-1.544-1.03-2.013-1.815-.47-.785-.704-1.69-.704-2.717 0-1.305.29-2.482.869-3.531a6.228 6.228 0 012.42-2.453c1.034-.587 2.196-.88 3.487-.88 1.643 0 2.955.458 3.938 1.375.983.917 1.474 2.174 1.474 3.773zm-5.544-2.948c-.924 0-1.712.25-2.365.748-.653.499-1.104 1.18-1.353 2.046h6.732c.015-.88-.253-1.566-.803-2.057-.55-.491-1.287-.737-2.211-.737zm21.67-2.2c1.32 0 2.365.345 3.135 1.034.77.69 1.155 1.672 1.155 2.948 0 .352-.051.814-.154 1.386L493.916 145h-2.75l1.276-6.446a4.56 4.56 0 00.088-.902c0-1.423-.785-2.134-2.354-2.134-1.012 0-1.848.282-2.508.847-.66.565-1.107 1.412-1.342 2.541L485.094 145h-2.75l3.256-16.324h2.75l-1.144 5.742c1.012-.865 2.303-1.298 3.872-1.298zm20.152.132L508.898 145h-2.618l.242-1.21c-1.027.91-2.303 1.364-3.828 1.364-.968 0-1.844-.205-2.629-.616a4.556 4.556 0 01-1.859-1.793c-.455-.785-.682-1.705-.682-2.761 0-1.305.29-2.482.869-3.531a6.318 6.318 0 012.376-2.453c1.005-.587 2.13-.88 3.377-.88 1.877 0 3.212.623 4.004 1.87l.33-1.738h2.75zm-7.832 9.548c.777 0 1.47-.187 2.079-.561a3.956 3.956 0 001.441-1.562c.352-.667.528-1.426.528-2.277 0-.924-.271-1.646-.814-2.167-.543-.52-1.305-.781-2.288-.781-.777 0-1.47.187-2.079.561a3.956 3.956 0 00-1.441 1.562c-.352.667-.528 1.426-.528 2.277 0 .924.271 1.646.814 2.167.543.52 1.305.781 2.288.781zm13.112 2.354a10.95 10.95 0 01-2.849-.363c-.902-.242-1.602-.546-2.101-.913l1.144-2.112c.484.352 1.093.63 1.826.836a8.364 8.364 0 002.266.308c.88 0 1.544-.121 1.991-.363.447-.242.671-.59.671-1.045 0-.352-.187-.609-.561-.77-.374-.161-.964-.33-1.771-.506-.836-.161-1.522-.334-2.057-.517a3.346 3.346 0 01-1.386-.902c-.389-.418-.583-.994-.583-1.727 0-1.217.51-2.182 1.529-2.893 1.02-.711 2.372-1.067 4.059-1.067.807 0 1.591.092 2.354.275.763.183 1.386.429 1.87.737l-1.012 2.112a5.37 5.37 0 00-1.639-.682 7.816 7.816 0 00-1.837-.22c-.865 0-1.522.132-1.969.396-.447.264-.671.609-.671 1.034 0 .381.194.656.583.825.389.169.994.341 1.815.517.821.161 1.496.334 2.024.517s.983.48 1.364.891c.381.41.572.968.572 1.672 0 1.261-.513 2.237-1.54 2.926-1.027.69-2.39 1.034-4.092 1.034zm25.696-6.886a7.89 7.89 0 01-.176 1.672h-9.328c.044 1.921 1.173 2.882 3.388 2.882a5.51 5.51 0 001.892-.319 4.342 4.342 0 001.496-.891l1.144 1.914c-.601.543-1.324.95-2.167 1.221a8.602 8.602 0 01-2.651.407c-1.173 0-2.196-.213-3.069-.638-.873-.425-1.544-1.03-2.013-1.815-.47-.785-.704-1.69-.704-2.717 0-1.305.29-2.482.869-3.531a6.228 6.228 0 012.42-2.453c1.034-.587 2.196-.88 3.487-.88 1.643 0 2.955.458 3.938 1.375.983.917 1.474 2.174 1.474 3.773zm-5.544-2.948c-.924 0-1.712.25-2.365.748-.653.499-1.104 1.18-1.353 2.046h6.732c.015-.88-.253-1.566-.803-2.057-.55-.491-1.287-.737-2.211-.737zm14.036 3.784l3.344 5.896h-2.904l-2.244-4.07-3.85 4.07h-3.168l5.896-6.072-3.19-5.676h2.86l2.112 3.85 3.696-3.85h3.08l-5.632 5.852zm11.308 6.05c-1.159 0-2.174-.216-3.047-.649-.873-.433-1.544-1.038-2.013-1.815-.47-.777-.704-1.68-.704-2.706 0-1.305.3-2.479.902-3.52a6.473 6.473 0 012.497-2.453c1.063-.594 2.277-.891 3.641-.891 1.188 0 2.211.231 3.069.693.858.462 1.522 1.148 1.991 2.057l-2.354 1.21c-.543-1.085-1.518-1.628-2.926-1.628-.777 0-1.47.187-2.079.561a3.956 3.956 0 00-1.441 1.562c-.352.667-.528 1.426-.528 2.277 0 .924.271 1.646.814 2.167.543.52 1.313.781 2.31.781.675 0 1.283-.136 1.826-.407a3.722 3.722 0 001.386-1.221l2.024 1.364c-.543.821-1.29 1.463-2.244 1.925-.953.462-1.995.693-3.124.693zm19.206-6.886a7.89 7.89 0 01-.176 1.672h-9.328c.044 1.921 1.173 2.882 3.388 2.882a5.51 5.51 0 001.892-.319 4.342 4.342 0 001.496-.891l1.144 1.914c-.601.543-1.324.95-2.167 1.221a8.602 8.602 0 01-2.651.407c-1.173 0-2.196-.213-3.069-.638-.873-.425-1.544-1.03-2.013-1.815-.47-.785-.704-1.69-.704-2.717 0-1.305.29-2.482.869-3.531a6.228 6.228 0 012.42-2.453c1.034-.587 2.196-.88 3.487-.88 1.643 0 2.955.458 3.938 1.375.983.917 1.474 2.174 1.474 3.773zm-5.544-2.948c-.924 0-1.712.25-2.365.748-.653.499-1.104 1.18-1.353 2.046h6.732c.015-.88-.253-1.566-.803-2.057-.55-.491-1.287-.737-2.211-.737zm10.12-6.644h2.75L585.282 145h-2.75l3.256-16.324zm6.358 0h2.75L591.64 145h-2.75l3.256-16.324zm15.4 9.592a7.89 7.89 0 01-.176 1.672h-9.328c.044 1.921 1.173 2.882 3.388 2.882a5.51 5.51 0 001.892-.319 4.342 4.342 0 001.496-.891l1.144 1.914c-.601.543-1.324.95-2.167 1.221a8.602 8.602 0 01-2.651.407c-1.173 0-2.196-.213-3.069-.638-.873-.425-1.544-1.03-2.013-1.815-.47-.785-.704-1.69-.704-2.717 0-1.305.29-2.482.869-3.531a6.228 6.228 0 012.42-2.453c1.034-.587 2.196-.88 3.487-.88 1.643 0 2.955.458 3.938 1.375.983.917 1.474 2.174 1.474 3.773zm-5.544-2.948c-.924 0-1.712.25-2.365.748-.653.499-1.104 1.18-1.353 2.046h6.732c.015-.88-.253-1.566-.803-2.057-.55-.491-1.287-.737-2.211-.737zm21.604-6.644L620.35 145h-2.618l.242-1.21c-1.056.91-2.325 1.364-3.806 1.364-.968 0-1.844-.205-2.629-.616a4.556 4.556 0 01-1.859-1.793c-.455-.785-.682-1.705-.682-2.761 0-1.32.286-2.5.858-3.542a6.26 6.26 0 012.365-2.442c1.005-.587 2.13-.88 3.377-.88.924 0 1.727.154 2.409.462a3.587 3.587 0 011.595 1.364l1.254-6.27h2.75zm-8.734 14.124c.763 0 1.452-.187 2.068-.561a3.854 3.854 0 001.441-1.562c.345-.667.517-1.426.517-2.277 0-.924-.271-1.646-.814-2.167-.543-.52-1.305-.781-2.288-.781-.763 0-1.452.187-2.068.561a3.854 3.854 0 00-1.441 1.562c-.345.667-.517 1.426-.517 2.277 0 .924.271 1.646.814 2.167.543.52 1.305.781 2.288.781zm28.996-9.548L641.536 145h-2.618l.242-1.21c-1.027.91-2.303 1.364-3.828 1.364-.968 0-1.844-.205-2.629-.616a4.556 4.556 0 01-1.859-1.793c-.455-.785-.682-1.705-.682-2.761 0-1.305.29-2.482.869-3.531a6.318 6.318 0 012.376-2.453c1.005-.587 2.13-.88 3.377-.88 1.877 0 3.212.623 4.004 1.87l.33-1.738h2.75zm-7.832 9.548c.777 0 1.47-.187 2.079-.561a3.956 3.956 0 001.441-1.562c.352-.667.528-1.426.528-2.277 0-.924-.271-1.646-.814-2.167-.543-.52-1.305-.781-2.288-.781-.777 0-1.47.187-2.079.561a3.956 3.956 0 00-1.441 1.562c-.352.667-.528 1.426-.528 2.277 0 .924.271 1.646.814 2.167.543.52 1.305.781 2.288.781zm12.98-1.738c-.03.235-.044.403-.044.506 0 .88.462 1.32 1.386 1.32.572 0 1.085-.154 1.54-.462l.484 2.024c-.748.47-1.694.704-2.838.704-1.012 0-1.826-.279-2.442-.836-.616-.557-.924-1.327-.924-2.31 0-.323.03-.63.088-.924l1.122-5.544h-1.914l.44-2.2h1.914l.528-2.684h2.75l-.55 2.684h3.168l-.44 2.2h-3.168l-1.1 5.522zm23.826-2.794a7.89 7.89 0 01-.176 1.672h-9.328c.044 1.921 1.173 2.882 3.388 2.882a5.51 5.51 0 001.892-.319 4.342 4.342 0 001.496-.891l1.144 1.914c-.601.543-1.324.95-2.167 1.221a8.602 8.602 0 01-2.651.407c-1.173 0-2.196-.213-3.069-.638-.873-.425-1.544-1.03-2.013-1.815-.47-.785-.704-1.69-.704-2.717 0-1.305.29-2.482.869-3.531a6.228 6.228 0 012.42-2.453c1.034-.587 2.196-.88 3.487-.88 1.643 0 2.955.458 3.938 1.375.983.917 1.474 2.174 1.474 3.773zm-5.544-2.948c-.924 0-1.712.25-2.365.748-.653.499-1.104 1.18-1.353 2.046h6.732c.015-.88-.253-1.566-.803-2.057-.55-.491-1.287-.737-2.211-.737zm20.218-2.068L680.146 145h-2.838l-2.706-11.748h2.706l1.958 8.734 5.478-8.734h2.772zm13.178 0L698.362 145h-2.618l.242-1.21c-1.027.91-2.303 1.364-3.828 1.364-.968 0-1.844-.205-2.629-.616a4.556 4.556 0 01-1.859-1.793c-.455-.785-.682-1.705-.682-2.761 0-1.305.29-2.482.869-3.531a6.318 6.318 0 012.376-2.453c1.005-.587 2.13-.88 3.377-.88 1.877 0 3.212.623 4.004 1.87l.33-1.738h2.75zm-7.832 9.548c.777 0 1.47-.187 2.079-.561a3.956 3.956 0 001.441-1.562c.352-.667.528-1.426.528-2.277 0-.924-.271-1.646-.814-2.167-.543-.52-1.305-.781-2.288-.781-.777 0-1.47.187-2.079.561a3.956 3.956 0 00-1.441 1.562c-.352.667-.528 1.426-.528 2.277 0 .924.271 1.646.814 2.167.543.52 1.305.781 2.288.781zm12.364-14.124h2.75L704.72 145h-2.75l3.256-16.324zm16.83 4.576L719.702 145h-2.618l.264-1.298c-1.056.968-2.383 1.452-3.982 1.452-1.29 0-2.321-.348-3.091-1.045s-1.155-1.676-1.155-2.937c0-.47.051-.939.154-1.408l1.298-6.512h2.75l-1.298 6.446a4.588 4.588 0 00-.088.902c0 .69.194 1.217.583 1.584.389.367.972.55 1.749.55.997 0 1.826-.282 2.486-.847.66-.565 1.1-1.412 1.32-2.541l1.232-6.094h2.75zm15.07 0L734.794 145h-2.618l.242-1.21c-1.027.91-2.303 1.364-3.828 1.364-.968 0-1.844-.205-2.629-.616a4.556 4.556 0 01-1.859-1.793c-.455-.785-.682-1.705-.682-2.761 0-1.305.29-2.482.869-3.531a6.318 6.318 0 012.376-2.453c1.005-.587 2.13-.88 3.377-.88 1.877 0 3.212.623 4.004 1.87l.33-1.738h2.75zm-7.832 9.548c.777 0 1.47-.187 2.079-.561a3.956 3.956 0 001.441-1.562c.352-.667.528-1.426.528-2.277 0-.924-.271-1.646-.814-2.167-.543-.52-1.305-.781-2.288-.781-.777 0-1.47.187-2.079.561a3.956 3.956 0 00-1.441 1.562c-.352.667-.528 1.426-.528 2.277 0 .924.271 1.646.814 2.167.543.52 1.305.781 2.288.781zm12.98-1.738c-.03.235-.044.403-.044.506 0 .88.462 1.32 1.386 1.32.572 0 1.085-.154 1.54-.462l.484 2.024c-.748.47-1.694.704-2.838.704-1.012 0-1.826-.279-2.442-.836-.616-.557-.924-1.327-.924-2.31 0-.323.03-.63.088-.924l1.122-5.544h-1.914l.44-2.2h1.914l.528-2.684h2.75l-.55 2.684h3.168l-.44 2.2h-3.168l-1.1 5.522zm7.788-7.81h2.75L750.48 145h-2.75l2.332-11.748zm2.002-1.936c-.484 0-.88-.15-1.188-.451a1.466 1.466 0 01-.462-1.089c0-.499.172-.917.517-1.254.345-.337.796-.506 1.353-.506.484 0 .88.143 1.188.429.308.286.462.634.462 1.045 0 .543-.172.983-.517 1.32-.345.337-.796.506-1.353.506zm10.758 1.804c1.32 0 2.365.345 3.135 1.034.77.69 1.155 1.665 1.155 2.926 0 .352-.051.821-.154 1.408L765.66 145h-2.75l1.276-6.446a4.56 4.56 0 00.088-.902c0-1.423-.785-2.134-2.354-2.134-1.012 0-1.848.282-2.508.847-.66.565-1.107 1.412-1.342 2.541L756.838 145h-2.75l2.332-11.748h2.618l-.264 1.298c1.056-.953 2.405-1.43 4.048-1.43zm20.35.132l-2.002 9.966c-.44 2.156-1.254 3.729-2.442 4.719-1.188.99-2.794 1.485-4.818 1.485-2.303 0-4.136-.535-5.5-1.606l1.43-2.068c.455.396 1.06.715 1.815.957a7.923 7.923 0 002.431.363c1.261 0 2.23-.279 2.904-.836.675-.557 1.122-1.408 1.342-2.552l.11-.572c-1.056.91-2.34 1.364-3.85 1.364-1.012 0-1.918-.198-2.717-.594a4.454 4.454 0 01-1.87-1.694c-.447-.733-.671-1.591-.671-2.574 0-1.203.286-2.299.858-3.289a6.211 6.211 0 012.387-2.343c1.02-.572 2.16-.858 3.421-.858.924 0 1.753.172 2.486.517.733.345 1.29.862 1.672 1.551l.374-1.936h2.64zm-7.964 8.888c.777 0 1.47-.172 2.079-.517a3.721 3.721 0 001.43-1.43c.345-.609.517-1.294.517-2.057 0-.836-.271-1.492-.814-1.969-.543-.477-1.298-.715-2.266-.715-.777 0-1.474.172-2.09.517a3.7 3.7 0 00-1.441 1.43c-.345.609-.517 1.294-.517 2.057 0 .821.275 1.474.825 1.958.55.484 1.309.726 2.277.726zm29.106-8.888L801.982 145h-2.618l.242-1.21c-1.027.91-2.303 1.364-3.828 1.364-.968 0-1.844-.205-2.629-.616a4.556 4.556 0 01-1.859-1.793c-.455-.785-.682-1.705-.682-2.761 0-1.305.29-2.482.869-3.531a6.318 6.318 0 012.376-2.453c1.005-.587 2.13-.88 3.377-.88 1.877 0 3.212.623 4.004 1.87l.33-1.738h2.75zm-7.832 9.548c.777 0 1.47-.187 2.079-.561a3.956 3.956 0 001.441-1.562c.352-.667.528-1.426.528-2.277 0-.924-.271-1.646-.814-2.167-.543-.52-1.305-.781-2.288-.781-.777 0-1.47.187-2.079.561a3.956 3.956 0 00-1.441 1.562c-.352.667-.528 1.426-.528 2.277 0 .924.271 1.646.814 2.167.543.52 1.305.781 2.288.781zm17.842-9.68c1.32 0 2.365.345 3.135 1.034.77.69 1.155 1.665 1.155 2.926 0 .352-.051.821-.154 1.408L817.162 145h-2.75l1.276-6.446a4.56 4.56 0 00.088-.902c0-1.423-.785-2.134-2.354-2.134-1.012 0-1.848.282-2.508.847-.66.565-1.107 1.412-1.342 2.541L808.34 145h-2.75l2.332-11.748h2.618l-.264 1.298c1.056-.953 2.405-1.43 4.048-1.43zm21.076-4.444L832.144 145h-2.618l.242-1.21c-1.056.91-2.325 1.364-3.806 1.364-.968 0-1.844-.205-2.629-.616a4.556 4.556 0 01-1.859-1.793c-.455-.785-.682-1.705-.682-2.761 0-1.32.286-2.5.858-3.542a6.26 6.26 0 012.365-2.442c1.005-.587 2.13-.88 3.377-.88.924 0 1.727.154 2.409.462a3.587 3.587 0 011.595 1.364l1.254-6.27h2.75zm-8.734 14.124c.763 0 1.452-.187 2.068-.561a3.854 3.854 0 001.441-1.562c.345-.667.517-1.426.517-2.277 0-.924-.271-1.646-.814-2.167-.543-.52-1.305-.781-2.288-.781-.763 0-1.452.187-2.068.561a3.854 3.854 0 00-1.441 1.562c-.345.667-.517 1.426-.517 2.277 0 .924.271 1.646.814 2.167.543.52 1.305.781 2.288.781zm21.054 2.354c-1.159 0-2.174-.216-3.047-.649-.873-.433-1.544-1.038-2.013-1.815-.47-.777-.704-1.68-.704-2.706 0-1.305.3-2.479.902-3.52a6.473 6.473 0 012.497-2.453c1.063-.594 2.277-.891 3.641-.891 1.188 0 2.211.231 3.069.693.858.462 1.522 1.148 1.991 2.057l-2.354 1.21c-.543-1.085-1.518-1.628-2.926-1.628-.777 0-1.47.187-2.079.561a3.956 3.956 0 00-1.441 1.562c-.352.667-.528 1.426-.528 2.277 0 .924.271 1.646.814 2.167.543.52 1.313.781 2.31.781.675 0 1.283-.136 1.826-.407a3.722 3.722 0 001.386-1.221l2.024 1.364c-.543.821-1.29 1.463-2.244 1.925-.953.462-1.995.693-3.124.693zm12.716 0c-1.144 0-2.145-.216-3.003-.649-.858-.433-1.522-1.038-1.991-1.815-.47-.777-.704-1.68-.704-2.706 0-1.305.297-2.479.891-3.52a6.395 6.395 0 012.486-2.453c1.063-.594 2.262-.891 3.597-.891 1.144 0 2.149.213 3.014.638.865.425 1.533 1.027 2.002 1.804.47.777.704 1.68.704 2.706 0 1.305-.3 2.479-.902 3.52a6.552 6.552 0 01-2.497 2.464c-1.063.601-2.262.902-3.597.902zm.176-2.354c.777 0 1.47-.187 2.079-.561a3.956 3.956 0 001.441-1.562c.352-.667.528-1.426.528-2.277 0-.924-.271-1.646-.814-2.167-.543-.52-1.305-.781-2.288-.781-.777 0-1.47.187-2.079.561a3.956 3.956 0 00-1.441 1.562c-.352.667-.528 1.426-.528 2.277 0 .924.271 1.646.814 2.167.543.52 1.305.781 2.288.781zm16.94-9.68c1.32 0 2.365.345 3.135 1.034.77.69 1.155 1.665 1.155 2.926 0 .352-.051.821-.154 1.408L880.39 145h-2.75l1.276-6.446a4.56 4.56 0 00.088-.902c0-1.423-.785-2.134-2.354-2.134-1.012 0-1.848.282-2.508.847-.66.565-1.107 1.412-1.342 2.541L871.568 145h-2.75l2.332-11.748h2.618l-.264 1.298c1.056-.953 2.405-1.43 4.048-1.43zm10.208 7.942c-.03.235-.044.403-.044.506 0 .88.462 1.32 1.386 1.32.572 0 1.085-.154 1.54-.462l.484 2.024c-.748.47-1.694.704-2.838.704-1.012 0-1.826-.279-2.442-.836-.616-.557-.924-1.327-.924-2.31 0-.323.03-.63.088-.924l1.122-5.544h-1.914l.44-2.2h1.914l.528-2.684h2.75l-.55 2.684h3.168l-.44 2.2h-3.168l-1.1 5.522zm7.788-7.81h2.75L895.966 145h-2.75l2.332-11.748zm2.002-1.936c-.484 0-.88-.15-1.188-.451a1.466 1.466 0 01-.462-1.089c0-.499.172-.917.517-1.254.345-.337.796-.506 1.353-.506.484 0 .88.143 1.188.429.308.286.462.634.462 1.045 0 .543-.172.983-.517 1.32-.345.337-.796.506-1.353.506zm10.758 1.804c1.32 0 2.365.345 3.135 1.034.77.69 1.155 1.665 1.155 2.926 0 .352-.051.821-.154 1.408L911.146 145h-2.75l1.276-6.446a4.56 4.56 0 00.088-.902c0-1.423-.785-2.134-2.354-2.134-1.012 0-1.848.282-2.508.847-.66.565-1.107 1.412-1.342 2.541L902.324 145h-2.75l2.332-11.748h2.618l-.264 1.298c1.056-.953 2.405-1.43 4.048-1.43zm20.064.132L926.018 145H923.4l.264-1.298c-1.056.968-2.383 1.452-3.982 1.452-1.29 0-2.321-.348-3.091-1.045s-1.155-1.676-1.155-2.937c0-.47.051-.939.154-1.408l1.298-6.512h2.75l-1.298 6.446a4.588 4.588 0 00-.088.902c0 .69.194 1.217.583 1.584.389.367.972.55 1.749.55.997 0 1.826-.282 2.486-.847.66-.565 1.1-1.412 1.32-2.541l1.232-6.094h2.75zm7.062 11.902c-1.144 0-2.145-.216-3.003-.649-.858-.433-1.522-1.038-1.991-1.815-.47-.777-.704-1.68-.704-2.706 0-1.305.297-2.479.891-3.52a6.395 6.395 0 012.486-2.453c1.063-.594 2.262-.891 3.597-.891 1.144 0 2.149.213 3.014.638.865.425 1.533 1.027 2.002 1.804.47.777.704 1.68.704 2.706 0 1.305-.3 2.479-.902 3.52a6.552 6.552 0 01-2.497 2.464c-1.063.601-2.262.902-3.597.902zm.176-2.354c.777 0 1.47-.187 2.079-.561a3.956 3.956 0 001.441-1.562c.352-.667.528-1.426.528-2.277 0-.924-.271-1.646-.814-2.167-.543-.52-1.305-.781-2.288-.781-.777 0-1.47.187-2.079.561a3.956 3.956 0 00-1.441 1.562c-.352.667-.528 1.426-.528 2.277 0 .924.271 1.646.814 2.167.543.52 1.305.781 2.288.781zm21.934-9.548L955.19 145h-2.618l.264-1.298c-1.056.968-2.383 1.452-3.982 1.452-1.29 0-2.321-.348-3.091-1.045s-1.155-1.676-1.155-2.937c0-.47.051-.939.154-1.408l1.298-6.512h2.75l-1.298 6.446a4.588 4.588 0 00-.088.902c0 .69.194 1.217.583 1.584.389.367.972.55 1.749.55.997 0 1.826-.282 2.486-.847.66-.565 1.1-1.412 1.32-2.541l1.232-6.094h2.75zm5.258 11.902a10.95 10.95 0 01-2.849-.363c-.902-.242-1.602-.546-2.101-.913l1.144-2.112c.484.352 1.093.63 1.826.836a8.364 8.364 0 002.266.308c.88 0 1.544-.121 1.991-.363.447-.242.671-.59.671-1.045 0-.352-.187-.609-.561-.77-.374-.161-.964-.33-1.771-.506-.836-.161-1.522-.334-2.057-.517a3.346 3.346 0 01-1.386-.902c-.389-.418-.583-.994-.583-1.727 0-1.217.51-2.182 1.529-2.893 1.02-.711 2.372-1.067 4.059-1.067.807 0 1.591.092 2.354.275.763.183 1.386.429 1.87.737l-1.012 2.112a5.37 5.37 0 00-1.639-.682 7.816 7.816 0 00-1.837-.22c-.865 0-1.522.132-1.969.396-.447.264-.671.609-.671 1.034 0 .381.194.656.583.825.389.169.994.341 1.815.517.821.161 1.496.334 2.024.517s.983.48 1.364.891c.381.41.572.968.572 1.672 0 1.261-.513 2.237-1.54 2.926-1.027.69-2.39 1.034-4.092 1.034zm10.582-16.478h2.75L972.878 145h-2.75l3.256-16.324zm16.456 4.576l-8.096 12.782c-.807 1.276-1.573 2.16-2.299 2.651-.726.491-1.61.737-2.651.737a5.464 5.464 0 01-1.738-.286c-.572-.19-1.02-.44-1.342-.748l1.364-2.002a2.764 2.764 0 001.936.748c.47 0 .88-.121 1.232-.363s.711-.656 1.078-1.243l.374-.572-2.772-11.704h2.75l1.98 8.712 5.434-8.712h2.75zm11.242 11.902c-1.144 0-2.145-.216-3.003-.649-.858-.433-1.522-1.038-1.991-1.815-.47-.777-.704-1.68-.704-2.706 0-1.305.297-2.479.891-3.52a6.395 6.395 0 012.486-2.453c1.063-.594 2.262-.891 3.597-.891 1.144 0 2.149.213 3.014.638.865.425 1.533 1.027 2.002 1.804.47.777.704 1.68.704 2.706 0 1.305-.3 2.479-.902 3.52a6.552 6.552 0 01-2.497 2.464c-1.063.601-2.262.902-3.597.902zm.176-2.354c.777 0 1.47-.187 2.079-.561a3.956 3.956 0 001.441-1.562c.352-.667.528-1.426.528-2.277 0-.924-.271-1.646-.814-2.167-.543-.52-1.305-.781-2.288-.781-.777 0-1.47.187-2.079.561a3.956 3.956 0 00-1.441 1.562c-.352.667-.528 1.426-.528 2.277 0 .924.271 1.646.814 2.167.543.52 1.305.781 2.288.781zm16.742-9.68c.968 0 1.844.205 2.629.616a4.576 4.576 0 011.859 1.782c.455.777.682 1.694.682 2.75 0 1.305-.29 2.482-.869 3.531a6.398 6.398 0 01-2.376 2.464c-1.005.594-2.123.891-3.355.891-.924 0-1.73-.161-2.42-.484a3.668 3.668 0 01-1.606-1.408l-1.188 6.006h-2.75l3.19-16.016h2.618l-.242 1.232c1.027-.91 2.303-1.364 3.828-1.364zm-1.65 9.68c.777 0 1.47-.187 2.079-.561a3.956 3.956 0 001.441-1.562c.352-.667.528-1.426.528-2.277 0-.924-.271-1.646-.814-2.167-.543-.52-1.305-.781-2.288-.781-.777 0-1.47.187-2.079.561a3.956 3.956 0 00-1.441 1.562c-.352.667-.528 1.426-.528 2.277 0 .924.271 1.646.814 2.167.543.52 1.305.781 2.288.781zm12.078-1.738a4.65 4.65 0 00-.044.506c0 .88.462 1.32 1.386 1.32.572 0 1.085-.154 1.54-.462l.484 2.024c-.748.47-1.694.704-2.838.704-1.012 0-1.826-.279-2.442-.836-.616-.557-.924-1.327-.924-2.31 0-.323.03-.63.088-.924l1.122-5.544h-1.914l.44-2.2h1.914l.528-2.684h2.75l-.55 2.684h3.168l-.44 2.2h-3.168l-1.1 5.522zm7.788-7.81h2.75L1036.634 145h-2.75l2.332-11.748zm2.002-1.936c-.484 0-.88-.15-1.188-.451a1.466 1.466 0 01-.462-1.089c0-.499.172-.917.517-1.254.345-.337.796-.506 1.353-.506.484 0 .88.143 1.188.429.308.286.462.634.462 1.045 0 .543-.172.983-.517 1.32-.345.337-.796.506-1.353.506zm18.876 1.804c1.32 0 2.358.337 3.113 1.012.755.675 1.133 1.643 1.133 2.904 0 .47-.051.953-.154 1.452l-1.298 6.512h-2.75l1.298-6.446c.059-.293.088-.601.088-.924 0-1.408-.748-2.112-2.244-2.112-1.95 0-3.153 1.122-3.608 3.366L1051.44 145h-2.75l1.298-6.446c.059-.293.088-.601.088-.924 0-1.408-.748-2.112-2.244-2.112-1.95 0-3.153 1.13-3.608 3.388l-1.232 6.094h-2.75l2.332-11.748h2.618l-.242 1.276c.997-.939 2.28-1.408 3.85-1.408.85 0 1.591.165 2.222.495.63.33 1.107.81 1.43 1.441 1.203-1.29 2.75-1.936 4.642-1.936zm8.646.132h2.75L1066.158 145h-2.75l2.332-11.748zm2.002-1.936c-.484 0-.88-.15-1.188-.451a1.466 1.466 0 01-.462-1.089c0-.499.172-.917.517-1.254.345-.337.796-.506 1.353-.506.484 0 .88.143 1.188.429.308.286.462.634.462 1.045 0 .543-.172.983-.517 1.32-.345.337-.796.506-1.353.506zm13.002 3.674l-7.898 7.81h6.512l-.44 2.2h-10.142l.33-1.738 7.898-7.81h-6.138l.44-2.2h9.79l-.352 1.738zm3.058-1.738h2.75L1084.22 145h-2.75l2.332-11.748zm2.002-1.936c-.484 0-.88-.15-1.188-.451a1.466 1.466 0 01-.462-1.089c0-.499.172-.917.517-1.254.345-.337.796-.506 1.353-.506.484 0 .88.143 1.188.429.308.286.462.634.462 1.045 0 .543-.172.983-.517 1.32-.345.337-.796.506-1.353.506zm10.758 1.804c1.32 0 2.365.345 3.135 1.034.77.69 1.155 1.665 1.155 2.926 0 .352-.051.821-.154 1.408L1099.4 145h-2.75l1.276-6.446a4.56 4.56 0 00.088-.902c0-1.423-.785-2.134-2.354-2.134-1.012 0-1.848.282-2.508.847-.66.565-1.107 1.412-1.342 2.541l-1.232 6.094h-2.75l2.332-11.748h2.618l-.264 1.298c1.056-.953 2.405-1.43 4.048-1.43zm20.35.132l-2.002 9.966c-.44 2.156-1.254 3.729-2.442 4.719-1.188.99-2.794 1.485-4.818 1.485-2.303 0-4.136-.535-5.5-1.606l1.43-2.068c.455.396 1.06.715 1.815.957a7.923 7.923 0 002.431.363c1.261 0 2.23-.279 2.904-.836.675-.557 1.122-1.408 1.342-2.552l.11-.572c-1.056.91-2.34 1.364-3.85 1.364-1.012 0-1.918-.198-2.717-.594a4.454 4.454 0 01-1.87-1.694c-.447-.733-.671-1.591-.671-2.574 0-1.203.286-2.299.858-3.289a6.211 6.211 0 012.387-2.343c1.02-.572 2.16-.858 3.421-.858.924 0 1.753.172 2.486.517.733.345 1.29.862 1.672 1.551l.374-1.936h2.64zm-7.964 8.888c.777 0 1.47-.172 2.079-.517a3.721 3.721 0 001.43-1.43c.345-.609.517-1.294.517-2.057 0-.836-.271-1.492-.814-1.969-.543-.477-1.298-.715-2.266-.715-.777 0-1.474.172-2.09.517a3.7 3.7 0 00-1.441 1.43c-.345.609-.517 1.294-.517 2.057 0 .821.275 1.474.825 1.958.55.484 1.309.726 2.277.726zm-761.684 35.014c-1.144 0-2.145-.216-3.003-.649-.858-.433-1.522-1.038-1.991-1.815-.47-.777-.704-1.68-.704-2.706 0-1.305.297-2.479.891-3.52a6.395 6.395 0 012.486-2.453c1.063-.594 2.262-.891 3.597-.891 1.144 0 2.149.213 3.014.638.865.425 1.533 1.027 2.002 1.804.47.777.704 1.68.704 2.706 0 1.305-.3 2.479-.902 3.52a6.552 6.552 0 01-2.497 2.464c-1.063.601-2.262.902-3.597.902zm.176-2.354c.777 0 1.47-.187 2.079-.561a3.956 3.956 0 001.441-1.562c.352-.667.528-1.426.528-2.277 0-.924-.271-1.646-.814-2.167-.543-.52-1.305-.781-2.288-.781-.777 0-1.47.187-2.079.561a3.956 3.956 0 00-1.441 1.562c-.352.667-.528 1.426-.528 2.277 0 .924.271 1.646.814 2.167.543.52 1.305.781 2.288.781zm21.934-9.548L367.02 177h-2.618l.264-1.298c-1.056.968-2.383 1.452-3.982 1.452-1.29 0-2.321-.348-3.091-1.045s-1.155-1.676-1.155-2.937c0-.47.051-.939.154-1.408l1.298-6.512h2.75l-1.298 6.446a4.588 4.588 0 00-.088.902c0 .69.194 1.217.583 1.584.389.367.972.55 1.749.55.997 0 1.826-.282 2.486-.847.66-.565 1.1-1.412 1.32-2.541l1.232-6.094h2.75zm5.896 1.518a4.19 4.19 0 011.881-1.276c.74-.25 1.624-.374 2.651-.374l-.506 2.618a3.953 3.953 0 00-.682-.066c-2.244 0-3.6 1.18-4.07 3.542L373.378 177h-2.75l2.332-11.748h2.618l-.308 1.518zm24.486-1.518L397.424 177h-2.618l.242-1.21c-1.027.91-2.303 1.364-3.828 1.364-.968 0-1.844-.205-2.629-.616a4.556 4.556 0 01-1.859-1.793c-.455-.785-.682-1.705-.682-2.761 0-1.305.29-2.482.869-3.531a6.318 6.318 0 012.376-2.453c1.005-.587 2.13-.88 3.377-.88 1.877 0 3.212.623 4.004 1.87l.33-1.738h2.75zm-7.832 9.548c.777 0 1.47-.187 2.079-.561a3.956 3.956 0 001.441-1.562c.352-.667.528-1.426.528-2.277 0-.924-.271-1.646-.814-2.167-.543-.52-1.305-.781-2.288-.781-.777 0-1.47.187-2.079.561a3.956 3.956 0 00-1.441 1.562c-.352.667-.528 1.426-.528 2.277 0 .924.271 1.646.814 2.167.543.52 1.305.781 2.288.781zm17.644-9.68c.968 0 1.844.205 2.629.616a4.576 4.576 0 011.859 1.782c.455.777.682 1.694.682 2.75 0 1.305-.29 2.482-.869 3.531a6.398 6.398 0 01-2.376 2.464c-1.005.594-2.123.891-3.355.891-.924 0-1.73-.161-2.42-.484a3.668 3.668 0 01-1.606-1.408l-1.188 6.006h-2.75l3.19-16.016h2.618l-.242 1.232c1.027-.91 2.303-1.364 3.828-1.364zm-1.65 9.68c.777 0 1.47-.187 2.079-.561a3.956 3.956 0 001.441-1.562c.352-.667.528-1.426.528-2.277 0-.924-.271-1.646-.814-2.167-.543-.52-1.305-.781-2.288-.781-.777 0-1.47.187-2.079.561a3.956 3.956 0 00-1.441 1.562c-.352.667-.528 1.426-.528 2.277 0 .924.271 1.646.814 2.167.543.52 1.305.781 2.288.781zm16.742-9.68c.968 0 1.844.205 2.629.616a4.576 4.576 0 011.859 1.782c.455.777.682 1.694.682 2.75 0 1.305-.29 2.482-.869 3.531a6.398 6.398 0 01-2.376 2.464c-1.005.594-2.123.891-3.355.891-.924 0-1.73-.161-2.42-.484a3.668 3.668 0 01-1.606-1.408l-1.188 6.006h-2.75l3.19-16.016h2.618l-.242 1.232c1.027-.91 2.303-1.364 3.828-1.364zm-1.65 9.68c.777 0 1.47-.187 2.079-.561a3.956 3.956 0 001.441-1.562c.352-.667.528-1.426.528-2.277 0-.924-.271-1.646-.814-2.167-.543-.52-1.305-.781-2.288-.781-.777 0-1.47.187-2.079.561a3.956 3.956 0 00-1.441 1.562c-.352.667-.528 1.426-.528 2.277 0 .924.271 1.646.814 2.167.543.52 1.305.781 2.288.781zm9.328 2.354c-.484 0-.891-.161-1.221-.484-.33-.323-.495-.733-.495-1.232 0-.557.183-1.02.55-1.386.367-.367.821-.55 1.364-.55.484 0 .887.161 1.21.484.323.323.484.733.484 1.232 0 .572-.187 1.038-.561 1.397-.374.36-.818.539-1.331.539zm42.24-15.554l-8.162 15.4h-3.058l-1.54-11.286-6.16 11.286H452.6l-2.024-15.4h2.838l1.518 11.704 6.314-11.704h2.662l1.518 11.814 6.314-11.814h2.838zm1.65 3.652h2.75L476.646 177h-2.75l2.332-11.748zm2.002-1.936c-.484 0-.88-.15-1.188-.451a1.466 1.466 0 01-.462-1.089c0-.499.172-.917.517-1.254.345-.337.796-.506 1.353-.506.484 0 .88.143 1.188.429.308.286.462.634.462 1.045 0 .543-.172.983-.517 1.32-.345.337-.796.506-1.353.506zm5.896 9.746c-.03.235-.044.403-.044.506 0 .88.462 1.32 1.386 1.32.572 0 1.085-.154 1.54-.462l.484 2.024c-.748.47-1.694.704-2.838.704-1.012 0-1.826-.279-2.442-.836-.616-.557-.924-1.327-.924-2.31 0-.323.03-.63.088-.924l1.122-5.544h-1.914l.44-2.2h1.914l.528-2.684h2.75l-.55 2.684h3.168l-.44 2.2h-3.168l-1.1 5.522zm14.19-7.942c1.32 0 2.365.345 3.135 1.034.77.69 1.155 1.672 1.155 2.948 0 .352-.051.814-.154 1.386L501.154 177h-2.75l1.276-6.446a4.56 4.56 0 00.088-.902c0-1.423-.785-2.134-2.354-2.134-1.012 0-1.848.282-2.508.847-.66.565-1.107 1.412-1.342 2.541L492.332 177h-2.75l3.256-16.324h2.75l-1.144 5.742c1.012-.865 2.303-1.298 3.872-1.298zm24.772 4.004h2.706l-1.254 6.204a8.886 8.886 0 01-2.651 1.397 9.71 9.71 0 01-3.091.495c-1.51 0-2.83-.275-3.96-.825-1.13-.55-1.998-1.32-2.607-2.31-.609-.99-.913-2.138-.913-3.443 0-1.73.396-3.3 1.188-4.708.792-1.408 1.914-2.519 3.366-3.333 1.452-.814 3.124-1.221 5.016-1.221 1.393 0 2.61.216 3.652.649 1.041.433 1.885 1.06 2.53 1.881l-2.068 1.716a4.467 4.467 0 00-1.782-1.32c-.69-.279-1.51-.418-2.464-.418-1.305 0-2.453.29-3.443.869a6.039 6.039 0 00-2.299 2.365c-.543.997-.814 2.112-.814 3.344 0 1.305.425 2.34 1.276 3.102.85.763 2.068 1.144 3.652 1.144 1.07 0 2.068-.242 2.992-.726l.968-4.862zm18.348-3.872L539.082 177h-2.618l.264-1.298c-1.056.968-2.383 1.452-3.982 1.452-1.29 0-2.321-.348-3.091-1.045s-1.155-1.676-1.155-2.937c0-.47.051-.939.154-1.408l1.298-6.512h2.75l-1.298 6.446a4.588 4.588 0 00-.088.902c0 .69.194 1.217.583 1.584.389.367.972.55 1.749.55.997 0 1.826-.282 2.486-.847.66-.565 1.1-1.412 1.32-2.541l1.232-6.094h2.75zm18.106-.132c1.32 0 2.358.337 3.113 1.012.755.675 1.133 1.643 1.133 2.904 0 .47-.051.953-.154 1.452L562.336 177h-2.75l1.298-6.446c.059-.293.088-.601.088-.924 0-1.408-.748-2.112-2.244-2.112-1.95 0-3.153 1.122-3.608 3.366L553.888 177h-2.75l1.298-6.446c.059-.293.088-.601.088-.924 0-1.408-.748-2.112-2.244-2.112-1.95 0-3.153 1.13-3.608 3.388L545.44 177h-2.75l2.332-11.748h2.618l-.242 1.276c.997-.939 2.28-1.408 3.85-1.408.85 0 1.591.165 2.222.495.63.33 1.107.81 1.43 1.441 1.203-1.29 2.75-1.936 4.642-1.936zm23.166 0c1.32 0 2.358.337 3.113 1.012.755.675 1.133 1.643 1.133 2.904 0 .47-.051.953-.154 1.452L585.502 177h-2.75l1.298-6.446c.059-.293.088-.601.088-.924 0-1.408-.748-2.112-2.244-2.112-1.95 0-3.153 1.122-3.608 3.366L577.054 177h-2.75l1.298-6.446c.059-.293.088-.601.088-.924 0-1.408-.748-2.112-2.244-2.112-1.95 0-3.153 1.13-3.608 3.388L568.606 177h-2.75l2.332-11.748h2.618l-.242 1.276c.997-.939 2.28-1.408 3.85-1.408.85 0 1.591.165 2.222.495.63.33 1.107.81 1.43 1.441 1.203-1.29 2.75-1.936 4.642-1.936zm8.646.132h2.75L591.772 177h-2.75l2.332-11.748zm2.002-1.936c-.484 0-.88-.15-1.188-.451a1.466 1.466 0 01-.462-1.089c0-.499.172-.917.517-1.254.345-.337.796-.506 1.353-.506.484 0 .88.143 1.188.429.308.286.462.634.462 1.045 0 .543-.172.983-.517 1.32-.345.337-.796.506-1.353.506zm7.898 13.838c-1.159 0-2.174-.216-3.047-.649-.873-.433-1.544-1.038-2.013-1.815-.47-.777-.704-1.68-.704-2.706 0-1.305.3-2.479.902-3.52a6.473 6.473 0 012.497-2.453c1.063-.594 2.277-.891 3.641-.891 1.188 0 2.211.231 3.069.693.858.462 1.522 1.148 1.991 2.057l-2.354 1.21c-.543-1.085-1.518-1.628-2.926-1.628-.777 0-1.47.187-2.079.561a3.956 3.956 0 00-1.441 1.562c-.352.667-.528 1.426-.528 2.277 0 .924.271 1.646.814 2.167.543.52 1.313.781 2.31.781.675 0 1.283-.136 1.826-.407a3.722 3.722 0 001.386-1.221l2.024 1.364c-.543.821-1.29 1.463-2.244 1.925-.953.462-1.995.693-3.124.693zm20.636-11.902L619.536 177h-2.618l.264-1.298c-1.056.968-2.383 1.452-3.982 1.452-1.29 0-2.321-.348-3.091-1.045s-1.155-1.676-1.155-2.937c0-.47.051-.939.154-1.408l1.298-6.512h2.75l-1.298 6.446a4.588 4.588 0 00-.088.902c0 .69.194 1.217.583 1.584.389.367.972.55 1.749.55.997 0 1.826-.282 2.486-.847.66-.565 1.1-1.412 1.32-2.541l1.232-6.094h2.75zm9.79-.132c.968 0 1.844.205 2.629.616a4.576 4.576 0 011.859 1.782c.455.777.682 1.694.682 2.75 0 1.305-.29 2.482-.869 3.531a6.398 6.398 0 01-2.376 2.464c-1.005.594-2.123.891-3.355.891-.968 0-1.804-.172-2.508-.517a3.595 3.595 0 01-1.606-1.507l-.374 1.87h-2.618l3.256-16.324h2.75l-1.122 5.676c.997-.821 2.215-1.232 3.652-1.232zm-1.65 9.68c.777 0 1.47-.187 2.079-.561a3.956 3.956 0 001.441-1.562c.352-.667.528-1.426.528-2.277 0-.924-.271-1.646-.814-2.167-.543-.52-1.305-.781-2.288-.781-.777 0-1.47.187-2.079.561a3.956 3.956 0 00-1.441 1.562c-.352.667-.528 1.426-.528 2.277 0 .924.271 1.646.814 2.167.543.52 1.305.781 2.288.781zm20.504-4.532a7.89 7.89 0 01-.176 1.672h-9.328c.044 1.921 1.173 2.882 3.388 2.882a5.51 5.51 0 001.892-.319 4.342 4.342 0 001.496-.891l1.144 1.914c-.601.543-1.324.95-2.167 1.221a8.602 8.602 0 01-2.651.407c-1.173 0-2.196-.213-3.069-.638-.873-.425-1.544-1.03-2.013-1.815-.47-.785-.704-1.69-.704-2.717 0-1.305.29-2.482.869-3.531a6.228 6.228 0 012.42-2.453c1.034-.587 2.196-.88 3.487-.88 1.643 0 2.955.458 3.938 1.375.983.917 1.474 2.174 1.474 3.773zm-5.544-2.948c-.924 0-1.712.25-2.365.748-.653.499-1.104 1.18-1.353 2.046h6.732c.015-.88-.253-1.566-.803-2.057-.55-.491-1.287-.737-2.211-.737zm8.184 6.182c.484 0 .887.161 1.21.484.323.323.484.733.484 1.232 0 .264-.048.51-.143.737-.095.227-.26.546-.495.957l-2.024 3.41h-1.76l1.584-3.432a1.808 1.808 0 01-.561-.616 1.684 1.684 0 01-.209-.836c0-.557.183-1.02.55-1.386.367-.367.821-.55 1.364-.55zm30.58-8.426L679.508 177h-4.048l-2.244-6.49-2.332 6.49h-4.048l-4.246-11.924h3.96l2.442 7.216 2.53-7.216h3.564l2.464 7.282 2.53-7.282h3.674zm13.464 5.984c0 .03-.022.374-.066 1.034h-8.668c.176.616.517 1.089 1.023 1.419.506.33 1.14.495 1.903.495.572 0 1.067-.08 1.485-.242.418-.161.84-.425 1.265-.792l2.2 2.288c-1.159 1.29-2.853 1.936-5.082 1.936-1.393 0-2.618-.264-3.674-.792s-1.874-1.261-2.453-2.2c-.58-.939-.869-2.002-.869-3.19 0-1.173.282-2.226.847-3.157a5.918 5.918 0 012.343-2.189c.997-.528 2.12-.792 3.366-.792 1.188 0 2.266.246 3.234.737a5.607 5.607 0 012.299 2.134c.565.931.847 2.035.847 3.311zm-6.358-3.212c-.645 0-1.184.183-1.617.55-.433.367-.708.865-.825 1.496h4.884c-.117-.63-.392-1.13-.825-1.496-.433-.367-.972-.55-1.617-.55zm10.076-7.37c.719 0 1.313.227 1.782.682.47.455.704 1.049.704 1.782 0 .337-.044.675-.132 1.012-.088.337-.279.843-.572 1.518l-1.408 3.212h-2.618l1.034-3.586a2.15 2.15 0 01-.957-.847c-.227-.374-.341-.81-.341-1.309 0-.733.235-1.327.704-1.782.47-.455 1.07-.682 1.804-.682zm17.006 4.598L713.014 177h-4.312l-4.906-11.924h4.29l2.86 7.282 3.014-7.282h3.982zm13.266 5.984c0 .03-.022.374-.066 1.034h-8.668c.176.616.517 1.089 1.023 1.419.506.33 1.14.495 1.903.495.572 0 1.067-.08 1.485-.242.418-.161.84-.425 1.265-.792l2.2 2.288c-1.159 1.29-2.853 1.936-5.082 1.936-1.393 0-2.618-.264-3.674-.792s-1.874-1.261-2.453-2.2c-.58-.939-.869-2.002-.869-3.19 0-1.173.282-2.226.847-3.157a5.918 5.918 0 012.343-2.189c.997-.528 2.12-.792 3.366-.792 1.188 0 2.266.246 3.234.737a5.607 5.607 0 012.299 2.134c.565.931.847 2.035.847 3.311zm-6.358-3.212c-.645 0-1.184.183-1.617.55-.433.367-.708.865-.825 1.496h4.884c-.117-.63-.392-1.13-.825-1.496-.433-.367-.972-.55-1.617-.55zm26.884 3.212c0 .03-.022.374-.066 1.034H743c.176.616.517 1.089 1.023 1.419.506.33 1.14.495 1.903.495.572 0 1.067-.08 1.485-.242.418-.161.84-.425 1.265-.792l2.2 2.288c-1.159 1.29-2.853 1.936-5.082 1.936-1.393 0-2.618-.264-3.674-.792s-1.874-1.261-2.453-2.2c-.58-.939-.869-2.002-.869-3.19 0-1.173.282-2.226.847-3.157a5.918 5.918 0 012.343-2.189c.997-.528 2.12-.792 3.366-.792 1.188 0 2.266.246 3.234.737a5.607 5.607 0 012.299 2.134c.565.931.847 2.035.847 3.311zm-6.358-3.212c-.645 0-1.184.183-1.617.55-.433.367-.708.865-.825 1.496h4.884c-.117-.63-.392-1.13-.825-1.496-.433-.367-.972-.55-1.617-.55zM761.238 177l-2.134-3.124-2.288 3.124h-4.532l4.532-5.962-4.4-5.962h4.708l2.112 3.014 2.2-3.014h4.422l-4.4 5.808 4.554 6.116h-4.774zm13.552-12.122c1.085 0 2.072.253 2.959.759s1.591 1.225 2.112 2.156c.52.931.781 2.013.781 3.245 0 1.232-.26 2.314-.781 3.245a5.53 5.53 0 01-2.112 2.156c-.887.506-1.874.759-2.959.759-1.393 0-2.5-.418-3.322-1.254v5.324h-4.18v-16.192h3.982v1.188c.777-.924 1.95-1.386 3.52-1.386zm-.88 8.998c.733 0 1.335-.253 1.804-.759.47-.506.704-1.199.704-2.079 0-.88-.235-1.573-.704-2.079-.47-.506-1.07-.759-1.804-.759-.733 0-1.335.253-1.804.759-.47.506-.704 1.199-.704 2.079 0 .88.235 1.573.704 2.079.47.506 1.07.759 1.804.759zm13.75-8.998c1.98 0 3.49.451 4.532 1.353 1.041.902 1.562 2.284 1.562 4.147V177h-3.894v-1.54c-.601 1.159-1.775 1.738-3.52 1.738-.924 0-1.723-.161-2.398-.484-.675-.323-1.184-.759-1.529-1.309-.345-.55-.517-1.177-.517-1.881 0-1.13.433-2.006 1.298-2.629.865-.623 2.2-.935 4.004-.935h2.376c-.073-1.261-.917-1.892-2.53-1.892-.572 0-1.151.092-1.738.275-.587.183-1.085.436-1.496.759l-1.408-2.838c.66-.44 1.463-.781 2.409-1.023a11.454 11.454 0 012.849-.363zm-.154 9.68c.484 0 .91-.117 1.276-.352.367-.235.63-.58.792-1.034v-1.034h-1.804c-1.217 0-1.826.403-1.826 1.21 0 .367.14.66.418.88.279.22.66.33 1.144.33zm16.654-9.68c1.481 0 2.673.44 3.575 1.32.902.88 1.353 2.207 1.353 3.982V177h-4.18v-6.138c0-1.628-.653-2.442-1.958-2.442-.719 0-1.294.235-1.727.704-.433.47-.649 1.173-.649 2.112V177h-4.18v-11.924h3.982v1.298a4.738 4.738 0 011.672-1.111 5.664 5.664 0 012.112-.385zm20.218-4.202V177h-3.982v-1.188c-.777.924-1.943 1.386-3.498 1.386-1.085 0-2.075-.253-2.97-.759s-1.602-1.228-2.123-2.167c-.52-.939-.781-2.024-.781-3.256 0-1.232.26-2.314.781-3.245a5.429 5.429 0 012.123-2.145c.895-.499 1.885-.748 2.97-.748 1.423 0 2.523.41 3.3 1.232v-5.434h4.18zm-6.6 13.2c.719 0 1.313-.253 1.782-.759.47-.506.704-1.206.704-2.101 0-.88-.231-1.57-.693-2.068-.462-.499-1.06-.748-1.793-.748-.733 0-1.335.25-1.804.748-.47.499-.704 1.188-.704 2.068 0 .895.235 1.595.704 2.101.47.506 1.07.759 1.804.759zm21.472-2.816c0 .03-.022.374-.066 1.034h-8.668c.176.616.517 1.089 1.023 1.419.506.33 1.14.495 1.903.495.572 0 1.067-.08 1.485-.242.418-.161.84-.425 1.265-.792l2.2 2.288c-1.159 1.29-2.853 1.936-5.082 1.936-1.393 0-2.618-.264-3.674-.792s-1.874-1.261-2.453-2.2c-.58-.939-.869-2.002-.869-3.19 0-1.173.282-2.226.847-3.157a5.918 5.918 0 012.343-2.189c.997-.528 2.12-.792 3.366-.792 1.188 0 2.266.246 3.234.737a5.607 5.607 0 012.299 2.134c.565.931.847 2.035.847 3.311zm-6.358-3.212c-.645 0-1.184.183-1.617.55-.433.367-.708.865-.825 1.496h4.884c-.117-.63-.392-1.13-.825-1.496-.433-.367-.972-.55-1.617-.55zm20.966-7.172V177h-3.982v-1.188c-.777.924-1.943 1.386-3.498 1.386-1.085 0-2.075-.253-2.97-.759s-1.602-1.228-2.123-2.167c-.52-.939-.781-2.024-.781-3.256 0-1.232.26-2.314.781-3.245a5.429 5.429 0 012.123-2.145c.895-.499 1.885-.748 2.97-.748 1.423 0 2.523.41 3.3 1.232v-5.434h4.18zm-6.6 13.2c.719 0 1.313-.253 1.782-.759.47-.506.704-1.206.704-2.101 0-.88-.231-1.57-.693-2.068-.462-.499-1.06-.748-1.793-.748-.733 0-1.335.25-1.804.748-.47.499-.704 1.188-.704 2.068 0 .895.235 1.595.704 2.101.47.506 1.07.759 1.804.759zm21.67 3.322c-1.276 0-2.427-.264-3.454-.792-1.027-.528-1.83-1.261-2.409-2.2-.58-.939-.869-2.002-.869-3.19 0-1.173.29-2.23.869-3.168a5.918 5.918 0 012.398-2.189c1.02-.52 2.174-.781 3.465-.781 1.29 0 2.45.26 3.476.781 1.027.52 1.826 1.247 2.398 2.178.572.931.858 1.991.858 3.179 0 1.188-.286 2.251-.858 3.19-.572.939-1.371 1.672-2.398 2.2-1.027.528-2.185.792-3.476.792zm0-3.322c.733 0 1.335-.253 1.804-.759.47-.506.704-1.206.704-2.101 0-.88-.235-1.57-.704-2.068-.47-.499-1.07-.748-1.804-.748-.733 0-1.335.25-1.804.748-.47.499-.704 1.188-.704 2.068 0 .895.235 1.595.704 2.101.47.506 1.07.759 1.804.759zm21.208-8.8V177h-3.982v-1.276c-.44.484-.968.85-1.584 1.1a5.169 5.169 0 01-1.958.374c-1.54 0-2.768-.455-3.685-1.364-.917-.91-1.375-2.273-1.375-4.092v-6.666h4.18v5.984c0 .895.169 1.547.506 1.958.337.41.829.616 1.474.616.66 0 1.199-.231 1.617-.693.418-.462.627-1.17.627-2.123v-5.742h4.18zm6.666 1.43a3.89 3.89 0 011.661-1.221c.682-.271 1.463-.407 2.343-.407v3.762a8.546 8.546 0 00-.946-.066c-.895 0-1.595.242-2.101.726s-.759 1.225-.759 2.222V177h-4.18v-11.924h3.982v1.43zm24.728-1.43L916.602 177h-4.312l-4.906-11.924h4.29l2.86 7.282 3.014-7.282h3.982zm1.078 0h4.18V177h-4.18v-11.924zm2.09-1.32c-.763 0-1.379-.213-1.848-.638a2.051 2.051 0 01-.704-1.584c0-.63.235-1.159.704-1.584.47-.425 1.085-.638 1.848-.638.763 0 1.379.202 1.848.605.47.403.704.92.704 1.551 0 .66-.235 1.206-.704 1.639-.47.433-1.085.649-1.848.649zm9.13 13.442c-.997 0-1.98-.114-2.948-.341-.968-.227-1.745-.524-2.332-.891l1.254-2.86c.543.337 1.188.605 1.936.803a8.656 8.656 0 002.222.297c.675 0 1.155-.07 1.441-.209.286-.14.429-.341.429-.605 0-.264-.172-.451-.517-.561-.345-.11-.891-.216-1.639-.319-.953-.117-1.764-.271-2.431-.462a3.752 3.752 0 01-1.727-1.056c-.484-.513-.726-1.232-.726-2.156 0-.763.227-1.441.682-2.035.455-.594 1.118-1.063 1.991-1.408s1.918-.517 3.135-.517c.865 0 1.723.088 2.574.264.85.176 1.562.425 2.134.748l-1.254 2.838a6.952 6.952 0 00-3.432-.88c-.66 0-1.144.077-1.452.231-.308.154-.462.356-.462.605 0 .279.169.473.506.583.337.11.895.224 1.672.341.983.147 1.797.315 2.442.506a3.73 3.73 0 011.683 1.045c.477.506.715 1.214.715 2.123 0 .748-.227 1.419-.682 2.013-.455.594-1.126 1.06-2.013 1.397-.887.337-1.954.506-3.201.506zm7.7-12.122h4.18V177h-4.18v-11.924zm2.09-1.32c-.763 0-1.379-.213-1.848-.638a2.051 2.051 0 01-.704-1.584c0-.63.235-1.159.704-1.584.47-.425 1.085-.638 1.848-.638.763 0 1.379.202 1.848.605.47.403.704.92.704 1.551 0 .66-.235 1.206-.704 1.639-.47.433-1.085.649-1.848.649zm12.298 1.122c1.085 0 2.072.25 2.959.748.887.499 1.591 1.214 2.112 2.145.52.931.781 2.013.781 3.245 0 1.232-.26 2.317-.781 3.256-.52.939-1.225 1.661-2.112 2.167-.887.506-1.874.759-2.959.759-1.57 0-2.743-.462-3.52-1.386V177h-3.982v-16.324h4.18v5.434c.807-.821 1.914-1.232 3.322-1.232zm-.88 8.998c.733 0 1.335-.253 1.804-.759.47-.506.704-1.206.704-2.101 0-.88-.235-1.57-.704-2.068-.47-.499-1.07-.748-1.804-.748-.733 0-1.335.25-1.804.748-.47.499-.704 1.188-.704 2.068 0 .895.235 1.595.704 2.101.47.506 1.07.759 1.804.759zm8.668-8.8h4.18V177h-4.18v-11.924zm2.09-1.32c-.763 0-1.379-.213-1.848-.638a2.051 2.051 0 01-.704-1.584c0-.63.235-1.159.704-1.584.47-.425 1.085-.638 1.848-.638.763 0 1.379.202 1.848.605.47.403.704.92.704 1.551 0 .66-.235 1.206-.704 1.639-.47.433-1.085.649-1.848.649zm4.796-3.08h4.18V177h-4.18v-16.324zm6.886 4.4h4.18V177h-4.18v-11.924zm2.09-1.32c-.763 0-1.379-.213-1.848-.638a2.051 2.051 0 01-.704-1.584c0-.63.235-1.159.704-1.584.47-.425 1.085-.638 1.848-.638.763 0 1.379.202 1.848.605.47.403.704.92.704 1.551 0 .66-.235 1.206-.704 1.639-.47.433-1.085.649-1.848.649zm13.024 12.76c-.352.22-.781.389-1.287.506a7.143 7.143 0 01-1.617.176c-1.555 0-2.75-.381-3.586-1.144-.836-.763-1.254-1.9-1.254-3.41v-4.004h-1.738v-3.124h1.738v-3.102h4.18v3.102h2.728v3.124h-2.728v3.96c0 .425.114.759.341 1.001.227.242.532.363.913.363.484 0 .91-.125 1.276-.374l1.034 2.926zm14.168-11.44l-5.148 12.408c-.601 1.467-1.335 2.497-2.2 3.091-.865.594-1.921.891-3.168.891-.63 0-1.265-.099-1.903-.297-.638-.198-1.155-.458-1.551-.781l1.452-2.926c.235.22.517.392.847.517.33.125.664.187 1.001.187.396 0 .722-.08.979-.242.257-.161.473-.418.649-.77l-5.104-12.078h4.29l2.926 7.282 2.948-7.282h3.982zm14.982-.198c1.085 0 2.072.25 2.959.748.887.499 1.591 1.214 2.112 2.145.52.931.781 2.013.781 3.245 0 1.232-.26 2.317-.781 3.256-.52.939-1.225 1.661-2.112 2.167-.887.506-1.874.759-2.959.759-1.57 0-2.743-.462-3.52-1.386V177h-3.982v-16.324h4.18v5.434c.807-.821 1.914-1.232 3.322-1.232zm-.88 8.998c.733 0 1.335-.253 1.804-.759.47-.506.704-1.206.704-2.101 0-.88-.235-1.57-.704-2.068-.47-.499-1.07-.748-1.804-.748-.733 0-1.335.25-1.804.748-.47.499-.704 1.188-.704 2.068 0 .895.235 1.595.704 2.101.47.506 1.07.759 1.804.759zm21.23-8.8l-5.148 12.408c-.601 1.467-1.335 2.497-2.2 3.091-.865.594-1.921.891-3.168.891-.63 0-1.265-.099-1.903-.297-.638-.198-1.155-.458-1.551-.781l1.452-2.926c.235.22.517.392.847.517.33.125.664.187 1.001.187.396 0 .722-.08.979-.242.257-.161.473-.418.649-.77l-5.104-12.078h4.29l2.926 7.282 2.948-7.282h3.982zm13.486-3.476V177h-4.356v-12.034h-2.86V161.6h7.216zm16.83 12.452h-2.288V177h-4.246v-2.948h-8.14v-2.838l6.908-9.614h4.51l-6.27 8.998h3.124v-2.618h4.114v2.618h2.288v3.454zm7.48-12.452V177h-4.356v-12.034h-2.86V161.6h7.216zm5.984 8.338c-1.159 0-2.105-.381-2.838-1.144-.733-.763-1.1-1.804-1.1-3.124 0-.865.169-1.62.506-2.266a3.599 3.599 0 011.397-1.485c.594-.345 1.272-.517 2.035-.517 1.173 0 2.127.385 2.86 1.155.733.77 1.1 1.808 1.1 3.113 0 1.32-.367 2.361-1.1 3.124-.733.763-1.687 1.144-2.86 1.144zm9.108-8.338h3.168L1087.63 177h-3.168l10.516-15.4zm-9.108 6.248c.396 0 .711-.176.946-.528.235-.352.352-.902.352-1.65 0-.748-.117-1.298-.352-1.65-.235-.352-.55-.528-.946-.528-.381 0-.693.18-.935.539-.242.36-.363.906-.363 1.639s.121 1.28.363 1.639c.242.36.554.539.935.539zm10.868 9.35c-1.173 0-2.123-.381-2.849-1.144-.726-.763-1.089-1.804-1.089-3.124 0-1.305.367-2.343 1.1-3.113.733-.77 1.68-1.155 2.838-1.155 1.173 0 2.127.385 2.86 1.155.733.77 1.1 1.808 1.1 3.113 0 1.32-.367 2.361-1.1 3.124-.733.763-1.687 1.144-2.86 1.144zm0-2.09c.396 0 .711-.176.946-.528.235-.352.352-.902.352-1.65 0-.748-.117-1.298-.352-1.65-.235-.352-.55-.528-.946-.528-.396 0-.711.176-.946.528-.235.352-.352.902-.352 1.65 0 .748.117 1.298.352 1.65.235.352.55.528.946.528zm-661.98 22.144L428.202 209h-2.706l-1.584-8.096-4.598 8.096h-2.662l-2.156-11.748h2.508l1.496 8.646 4.906-8.646h2.354l1.562 8.646 4.84-8.646h2.596zm1.804 0h2.75L436.98 209h-2.75l2.332-11.748zm2.002-1.936c-.484 0-.88-.15-1.188-.451a1.466 1.466 0 01-.462-1.089c0-.499.172-.917.517-1.254.345-.337.796-.506 1.353-.506.484 0 .88.143 1.188.429.308.286.462.634.462 1.045 0 .543-.172.983-.517 1.32-.345.337-.796.506-1.353.506zm5.896 9.746c-.03.235-.044.403-.044.506 0 .88.462 1.32 1.386 1.32.572 0 1.085-.154 1.54-.462l.484 2.024c-.748.47-1.694.704-2.838.704-1.012 0-1.826-.279-2.442-.836-.616-.557-.924-1.327-.924-2.31 0-.323.03-.63.088-.924l1.122-5.544h-1.914l.44-2.2h1.914l.528-2.684h2.75l-.55 2.684h3.168l-.44 2.2h-3.168l-1.1 5.522zm14.19-7.942c1.32 0 2.365.345 3.135 1.034.77.69 1.155 1.672 1.155 2.948 0 .352-.051.814-.154 1.386L461.488 209h-2.75l1.276-6.446a4.56 4.56 0 00.088-.902c0-1.423-.785-2.134-2.354-2.134-1.012 0-1.848.282-2.508.847-.66.565-1.107 1.412-1.342 2.541L452.666 209h-2.75l3.256-16.324h2.75l-1.144 5.742c1.012-.865 2.303-1.298 3.872-1.298zm15.664-4.444h2.75L473.808 209h-2.75l3.256-16.324zm16.918 4.576L488.9 209h-2.618l.242-1.21c-1.027.91-2.303 1.364-3.828 1.364-.968 0-1.844-.205-2.629-.616a4.556 4.556 0 01-1.859-1.793c-.455-.785-.682-1.705-.682-2.761 0-1.305.29-2.482.869-3.531a6.318 6.318 0 012.376-2.453c1.005-.587 2.13-.88 3.377-.88 1.877 0 3.212.623 4.004 1.87l.33-1.738h2.75zM483.4 206.8c.777 0 1.47-.187 2.079-.561a3.956 3.956 0 001.441-1.562c.352-.667.528-1.426.528-2.277 0-.924-.271-1.646-.814-2.167-.543-.52-1.305-.781-2.288-.781-.777 0-1.47.187-2.079.561a3.956 3.956 0 00-1.441 1.562c-.352.667-.528 1.426-.528 2.277 0 .924.271 1.646.814 2.167.543.52 1.305.781 2.288.781zm13.75-8.03a4.19 4.19 0 011.881-1.276c.74-.25 1.624-.374 2.651-.374l-.506 2.618a3.953 3.953 0 00-.682-.066c-2.244 0-3.6 1.18-4.07 3.542L495.258 209h-2.75l2.332-11.748h2.618l-.308 1.518zm18.612-1.518l-2.002 9.966c-.44 2.156-1.254 3.729-2.442 4.719-1.188.99-2.794 1.485-4.818 1.485-2.303 0-4.136-.535-5.5-1.606l1.43-2.068c.455.396 1.06.715 1.815.957a7.923 7.923 0 002.431.363c1.261 0 2.23-.279 2.904-.836.675-.557 1.122-1.408 1.342-2.552l.11-.572c-1.056.91-2.34 1.364-3.85 1.364-1.012 0-1.918-.198-2.717-.594a4.454 4.454 0 01-1.87-1.694c-.447-.733-.671-1.591-.671-2.574 0-1.203.286-2.299.858-3.289a6.211 6.211 0 012.387-2.343c1.02-.572 2.16-.858 3.421-.858.924 0 1.753.172 2.486.517.733.345 1.29.862 1.672 1.551l.374-1.936h2.64zm-7.964 8.888c.777 0 1.47-.172 2.079-.517a3.721 3.721 0 001.43-1.43c.345-.609.517-1.294.517-2.057 0-.836-.271-1.492-.814-1.969-.543-.477-1.298-.715-2.266-.715-.777 0-1.474.172-2.09.517a3.7 3.7 0 00-1.441 1.43c-.345.609-.517 1.294-.517 2.057 0 .821.275 1.474.825 1.958.55.484 1.309.726 2.277.726zm21.516-3.872a7.89 7.89 0 01-.176 1.672h-9.328c.044 1.921 1.173 2.882 3.388 2.882a5.51 5.51 0 001.892-.319 4.342 4.342 0 001.496-.891l1.144 1.914c-.601.543-1.324.95-2.167 1.221a8.602 8.602 0 01-2.651.407c-1.173 0-2.196-.213-3.069-.638-.873-.425-1.544-1.03-2.013-1.815-.47-.785-.704-1.69-.704-2.717 0-1.305.29-2.482.869-3.531a6.228 6.228 0 012.42-2.453c1.034-.587 2.196-.88 3.487-.88 1.643 0 2.955.458 3.938 1.375.983.917 1.474 2.174 1.474 3.773zm-5.544-2.948c-.924 0-1.712.25-2.365.748-.653.499-1.104 1.18-1.353 2.046h6.732c.015-.88-.253-1.566-.803-2.057-.55-.491-1.287-.737-2.211-.737zm26.95-2.068l-2.002 9.966c-.44 2.156-1.254 3.729-2.442 4.719-1.188.99-2.794 1.485-4.818 1.485-2.303 0-4.136-.535-5.5-1.606l1.43-2.068c.455.396 1.06.715 1.815.957a7.923 7.923 0 002.431.363c1.261 0 2.23-.279 2.904-.836.675-.557 1.122-1.408 1.342-2.552l.11-.572c-1.056.91-2.34 1.364-3.85 1.364-1.012 0-1.918-.198-2.717-.594a4.454 4.454 0 01-1.87-1.694c-.447-.733-.671-1.591-.671-2.574 0-1.203.286-2.299.858-3.289a6.211 6.211 0 012.387-2.343c1.02-.572 2.16-.858 3.421-.858.924 0 1.753.172 2.486.517.733.345 1.29.862 1.672 1.551l.374-1.936h2.64zm-7.964 8.888c.777 0 1.47-.172 2.079-.517a3.721 3.721 0 001.43-1.43c.345-.609.517-1.294.517-2.057 0-.836-.271-1.492-.814-1.969-.543-.477-1.298-.715-2.266-.715-.777 0-1.474.172-2.09.517a3.7 3.7 0 00-1.441 1.43c-.345.609-.517 1.294-.517 2.057 0 .821.275 1.474.825 1.958.55.484 1.309.726 2.277.726zm13.86-7.37a4.19 4.19 0 011.881-1.276c.74-.25 1.624-.374 2.651-.374l-.506 2.618a3.953 3.953 0 00-.682-.066c-2.244 0-3.6 1.18-4.07 3.542L554.724 209h-2.75l2.332-11.748h2.618l-.308 1.518zm10.406 10.384c-1.144 0-2.145-.216-3.003-.649-.858-.433-1.522-1.038-1.991-1.815-.47-.777-.704-1.68-.704-2.706 0-1.305.297-2.479.891-3.52a6.395 6.395 0 012.486-2.453c1.063-.594 2.262-.891 3.597-.891 1.144 0 2.149.213 3.014.638.865.425 1.533 1.027 2.002 1.804.47.777.704 1.68.704 2.706 0 1.305-.3 2.479-.902 3.52a6.552 6.552 0 01-2.497 2.464c-1.063.601-2.262.902-3.597.902zm.176-2.354c.777 0 1.47-.187 2.079-.561a3.956 3.956 0 001.441-1.562c.352-.667.528-1.426.528-2.277 0-.924-.271-1.646-.814-2.167-.543-.52-1.305-.781-2.288-.781-.777 0-1.47.187-2.079.561a3.956 3.956 0 00-1.441 1.562c-.352.667-.528 1.426-.528 2.277 0 .924.271 1.646.814 2.167.543.52 1.305.781 2.288.781zm29.018-9.548L589.66 209h-2.706l-1.584-8.096-4.598 8.096h-2.662l-2.156-11.748h2.508l1.496 8.646 4.906-8.646h2.354l1.562 8.646 4.84-8.646h2.596zm3.344 7.81c-.03.235-.044.403-.044.506 0 .88.462 1.32 1.386 1.32.572 0 1.085-.154 1.54-.462l.484 2.024c-.748.47-1.694.704-2.838.704-1.012 0-1.826-.279-2.442-.836-.616-.557-.924-1.327-.924-2.31 0-.323.03-.63.088-.924l1.122-5.544h-1.914l.44-2.2h1.914l.528-2.684h2.75l-.55 2.684h3.168l-.44 2.2h-3.168l-1.1 5.522zm14.19-7.942c1.32 0 2.365.345 3.135 1.034.77.69 1.155 1.672 1.155 2.948 0 .352-.051.814-.154 1.386L616.588 209h-2.75l1.276-6.446a4.56 4.56 0 00.088-.902c0-1.423-.785-2.134-2.354-2.134-1.012 0-1.848.282-2.508.847-.66.565-1.107 1.412-1.342 2.541L607.766 209h-2.75l3.256-16.324h2.75l-1.144 5.742c1.012-.865 2.303-1.298 3.872-1.298zm14.74.132h2.75L628.908 209h-2.75l2.332-11.748zm2.002-1.936c-.484 0-.88-.15-1.188-.451a1.466 1.466 0 01-.462-1.089c0-.499.172-.917.517-1.254.345-.337.796-.506 1.353-.506.484 0 .88.143 1.188.429.308.286.462.634.462 1.045 0 .543-.172.983-.517 1.32-.345.337-.796.506-1.353.506zm10.758 1.804c1.32 0 2.365.345 3.135 1.034.77.69 1.155 1.665 1.155 2.926 0 .352-.051.821-.154 1.408L644.088 209h-2.75l1.276-6.446a4.56 4.56 0 00.088-.902c0-1.423-.785-2.134-2.354-2.134-1.012 0-1.848.282-2.508.847-.66.565-1.107 1.412-1.342 2.541L635.266 209h-2.75l2.332-11.748h2.618l-.264 1.298c1.056-.953 2.405-1.43 4.048-1.43zm18.282 12.034c-1.159 0-2.174-.216-3.047-.649-.873-.433-1.544-1.038-2.013-1.815-.47-.777-.704-1.68-.704-2.706 0-1.305.3-2.479.902-3.52a6.473 6.473 0 012.497-2.453c1.063-.594 2.277-.891 3.641-.891 1.188 0 2.211.231 3.069.693.858.462 1.522 1.148 1.991 2.057l-2.354 1.21c-.543-1.085-1.518-1.628-2.926-1.628-.777 0-1.47.187-2.079.561a3.956 3.956 0 00-1.441 1.562c-.352.667-.528 1.426-.528 2.277 0 .924.271 1.646.814 2.167.543.52 1.313.781 2.31.781.675 0 1.283-.136 1.826-.407a3.722 3.722 0 001.386-1.221l2.024 1.364c-.543.821-1.29 1.463-2.244 1.925-.953.462-1.995.693-3.124.693zm12.716 0c-1.144 0-2.145-.216-3.003-.649-.858-.433-1.522-1.038-1.991-1.815-.47-.777-.704-1.68-.704-2.706 0-1.305.297-2.479.891-3.52a6.395 6.395 0 012.486-2.453c1.063-.594 2.262-.891 3.597-.891 1.144 0 2.149.213 3.014.638.865.425 1.533 1.027 2.002 1.804.47.777.704 1.68.704 2.706 0 1.305-.3 2.479-.902 3.52a6.552 6.552 0 01-2.497 2.464c-1.063.601-2.262.902-3.597.902zm.176-2.354c.777 0 1.47-.187 2.079-.561a3.956 3.956 0 001.441-1.562c.352-.667.528-1.426.528-2.277 0-.924-.271-1.646-.814-2.167-.543-.52-1.305-.781-2.288-.781-.777 0-1.47.187-2.079.561a3.956 3.956 0 00-1.441 1.562c-.352.667-.528 1.426-.528 2.277 0 .924.271 1.646.814 2.167.543.52 1.305.781 2.288.781zm16.94-9.68c1.32 0 2.365.345 3.135 1.034.77.69 1.155 1.665 1.155 2.926 0 .352-.051.821-.154 1.408L692.202 209h-2.75l1.276-6.446a4.56 4.56 0 00.088-.902c0-1.423-.785-2.134-2.354-2.134-1.012 0-1.848.282-2.508.847-.66.565-1.107 1.412-1.342 2.541L683.38 209h-2.75l2.332-11.748h2.618l-.264 1.298c1.056-.953 2.405-1.43 4.048-1.43zm19.69.132L701.684 209h-2.838l-2.706-11.748h2.706l1.958 8.734 5.478-8.734h2.772zm11.66 5.016a7.89 7.89 0 01-.176 1.672h-9.328c.044 1.921 1.173 2.882 3.388 2.882a5.51 5.51 0 001.892-.319 4.342 4.342 0 001.496-.891l1.144 1.914c-.601.543-1.324.95-2.167 1.221a8.602 8.602 0 01-2.651.407c-1.173 0-2.196-.213-3.069-.638-.873-.425-1.544-1.03-2.013-1.815-.47-.785-.704-1.69-.704-2.717 0-1.305.29-2.482.869-3.531a6.228 6.228 0 012.42-2.453c1.034-.587 2.196-.88 3.487-.88 1.643 0 2.955.458 3.938 1.375.983.917 1.474 2.174 1.474 3.773zm-5.544-2.948c-.924 0-1.712.25-2.365.748-.653.499-1.104 1.18-1.353 2.046h6.732c.015-.88-.253-1.566-.803-2.057-.55-.491-1.287-.737-2.211-.737zm11.506-.55a4.19 4.19 0 011.881-1.276c.74-.25 1.624-.374 2.651-.374l-.506 2.618a3.953 3.953 0 00-.682-.066c-2.244 0-3.6 1.18-4.07 3.542L724.784 209h-2.75l2.332-11.748h2.618l-.308 1.518zm8.602 10.384a10.95 10.95 0 01-2.849-.363c-.902-.242-1.602-.546-2.101-.913l1.144-2.112c.484.352 1.093.63 1.826.836a8.364 8.364 0 002.266.308c.88 0 1.544-.121 1.991-.363.447-.242.671-.59.671-1.045 0-.352-.187-.609-.561-.77-.374-.161-.964-.33-1.771-.506-.836-.161-1.522-.334-2.057-.517a3.346 3.346 0 01-1.386-.902c-.389-.418-.583-.994-.583-1.727 0-1.217.51-2.182 1.529-2.893 1.02-.711 2.372-1.067 4.059-1.067.807 0 1.591.092 2.354.275.763.183 1.386.429 1.87.737l-1.012 2.112a5.37 5.37 0 00-1.639-.682 7.816 7.816 0 00-1.837-.22c-.865 0-1.522.132-1.969.396-.447.264-.671.609-.671 1.034 0 .381.194.656.583.825.389.169.994.341 1.815.517.821.161 1.496.334 2.024.517s.983.48 1.364.891c.381.41.572.968.572 1.672 0 1.261-.513 2.237-1.54 2.926-1.027.69-2.39 1.034-4.092 1.034zm9.658-11.902h2.75L745.354 209h-2.75l2.332-11.748zm2.002-1.936c-.484 0-.88-.15-1.188-.451a1.466 1.466 0 01-.462-1.089c0-.499.172-.917.517-1.254.345-.337.796-.506 1.353-.506.484 0 .88.143 1.188.429.308.286.462.634.462 1.045 0 .543-.172.983-.517 1.32-.345.337-.796.506-1.353.506zm7.832 13.838c-1.144 0-2.145-.216-3.003-.649-.858-.433-1.522-1.038-1.991-1.815-.47-.777-.704-1.68-.704-2.706 0-1.305.297-2.479.891-3.52a6.395 6.395 0 012.486-2.453c1.063-.594 2.262-.891 3.597-.891 1.144 0 2.149.213 3.014.638.865.425 1.533 1.027 2.002 1.804.47.777.704 1.68.704 2.706 0 1.305-.3 2.479-.902 3.52a6.552 6.552 0 01-2.497 2.464c-1.063.601-2.262.902-3.597.902zm.176-2.354c.777 0 1.47-.187 2.079-.561a3.956 3.956 0 001.441-1.562c.352-.667.528-1.426.528-2.277 0-.924-.271-1.646-.814-2.167-.543-.52-1.305-.781-2.288-.781-.777 0-1.47.187-2.079.561a3.956 3.956 0 00-1.441 1.562c-.352.667-.528 1.426-.528 2.277 0 .924.271 1.646.814 2.167.543.52 1.305.781 2.288.781zm16.94-9.68c1.32 0 2.365.345 3.135 1.034.77.69 1.155 1.665 1.155 2.926 0 .352-.051.821-.154 1.408L774.724 209h-2.75l1.276-6.446a4.56 4.56 0 00.088-.902c0-1.423-.785-2.134-2.354-2.134-1.012 0-1.848.282-2.508.847-.66.565-1.107 1.412-1.342 2.541L765.902 209h-2.75l2.332-11.748h2.618l-.264 1.298c1.056-.953 2.405-1.43 4.048-1.43zm10.34 12.034a10.95 10.95 0 01-2.849-.363c-.902-.242-1.602-.546-2.101-.913l1.144-2.112c.484.352 1.093.63 1.826.836a8.364 8.364 0 002.266.308c.88 0 1.544-.121 1.991-.363.447-.242.671-.59.671-1.045 0-.352-.187-.609-.561-.77-.374-.161-.964-.33-1.771-.506-.836-.161-1.522-.334-2.057-.517a3.346 3.346 0 01-1.386-.902c-.389-.418-.583-.994-.583-1.727 0-1.217.51-2.182 1.529-2.893 1.02-.711 2.372-1.067 4.059-1.067.807 0 1.591.092 2.354.275.763.183 1.386.429 1.87.737l-1.012 2.112a5.37 5.37 0 00-1.639-.682 7.816 7.816 0 00-1.837-.22c-.865 0-1.522.132-1.969.396-.447.264-.671.609-.671 1.034 0 .381.194.656.583.825.389.169.994.341 1.815.517.821.161 1.496.334 2.024.517s.983.48 1.364.891c.381.41.572.968.572 1.672 0 1.261-.513 2.237-1.54 2.926-1.027.69-2.39 1.034-4.092 1.034zm27.214-11.902L807.108 209h-2.618l.242-1.21c-1.027.91-2.303 1.364-3.828 1.364-.968 0-1.844-.205-2.629-.616a4.556 4.556 0 01-1.859-1.793c-.455-.785-.682-1.705-.682-2.761 0-1.305.29-2.482.869-3.531a6.318 6.318 0 012.376-2.453c1.005-.587 2.13-.88 3.377-.88 1.877 0 3.212.623 4.004 1.87l.33-1.738h2.75zm-7.832 9.548c.777 0 1.47-.187 2.079-.561a3.956 3.956 0 001.441-1.562c.352-.667.528-1.426.528-2.277 0-.924-.271-1.646-.814-2.167-.543-.52-1.305-.781-2.288-.781-.777 0-1.47.187-2.079.561a3.956 3.956 0 00-1.441 1.562c-.352.667-.528 1.426-.528 2.277 0 .924.271 1.646.814 2.167.543.52 1.305.781 2.288.781zm14.982 2.354c-1.159 0-2.174-.216-3.047-.649-.873-.433-1.544-1.038-2.013-1.815-.47-.777-.704-1.68-.704-2.706 0-1.305.3-2.479.902-3.52a6.473 6.473 0 012.497-2.453c1.063-.594 2.277-.891 3.641-.891 1.188 0 2.211.231 3.069.693.858.462 1.522 1.148 1.991 2.057l-2.354 1.21c-.543-1.085-1.518-1.628-2.926-1.628-.777 0-1.47.187-2.079.561a3.956 3.956 0 00-1.441 1.562c-.352.667-.528 1.426-.528 2.277 0 .924.271 1.646.814 2.167.543.52 1.313.781 2.31.781.675 0 1.283-.136 1.826-.407a3.722 3.722 0 001.386-1.221l2.024 1.364c-.543.821-1.29 1.463-2.244 1.925-.953.462-1.995.693-3.124.693zm11.55-10.384a4.19 4.19 0 011.881-1.276c.74-.25 1.624-.374 2.651-.374l-.506 2.618a3.953 3.953 0 00-.682-.066c-2.244 0-3.6 1.18-4.07 3.542L826.248 209h-2.75l2.332-11.748h2.618l-.308 1.518zm10.406 10.384c-1.144 0-2.145-.216-3.003-.649-.858-.433-1.522-1.038-1.991-1.815-.47-.777-.704-1.68-.704-2.706 0-1.305.297-2.479.891-3.52a6.395 6.395 0 012.486-2.453c1.063-.594 2.262-.891 3.597-.891 1.144 0 2.149.213 3.014.638.865.425 1.533 1.027 2.002 1.804.47.777.704 1.68.704 2.706 0 1.305-.3 2.479-.902 3.52a6.552 6.552 0 01-2.497 2.464c-1.063.601-2.262.902-3.597.902zm.176-2.354c.777 0 1.47-.187 2.079-.561a3.956 3.956 0 001.441-1.562c.352-.667.528-1.426.528-2.277 0-.924-.271-1.646-.814-2.167-.543-.52-1.305-.781-2.288-.781-.777 0-1.47.187-2.079.561a3.956 3.956 0 00-1.441 1.562c-.352.667-.528 1.426-.528 2.277 0 .924.271 1.646.814 2.167.543.52 1.305.781 2.288.781zm12.21 2.354a10.95 10.95 0 01-2.849-.363c-.902-.242-1.602-.546-2.101-.913l1.144-2.112c.484.352 1.093.63 1.826.836a8.364 8.364 0 002.266.308c.88 0 1.544-.121 1.991-.363.447-.242.671-.59.671-1.045 0-.352-.187-.609-.561-.77-.374-.161-.964-.33-1.771-.506-.836-.161-1.522-.334-2.057-.517a3.346 3.346 0 01-1.386-.902c-.389-.418-.583-.994-.583-1.727 0-1.217.51-2.182 1.529-2.893 1.02-.711 2.372-1.067 4.059-1.067.807 0 1.591.092 2.354.275.763.183 1.386.429 1.87.737l-1.012 2.112a5.37 5.37 0 00-1.639-.682 7.816 7.816 0 00-1.837-.22c-.865 0-1.522.132-1.969.396-.447.264-.671.609-.671 1.034 0 .381.194.656.583.825.389.169.994.341 1.815.517.821.161 1.496.334 2.024.517s.983.48 1.364.891c.381.41.572.968.572 1.672 0 1.261-.513 2.237-1.54 2.926-1.027.69-2.39 1.034-4.092 1.034zm11.33 0a10.95 10.95 0 01-2.849-.363c-.902-.242-1.602-.546-2.101-.913l1.144-2.112c.484.352 1.093.63 1.826.836a8.364 8.364 0 002.266.308c.88 0 1.544-.121 1.991-.363.447-.242.671-.59.671-1.045 0-.352-.187-.609-.561-.77-.374-.161-.964-.33-1.771-.506-.836-.161-1.522-.334-2.057-.517a3.346 3.346 0 01-1.386-.902c-.389-.418-.583-.994-.583-1.727 0-1.217.51-2.182 1.529-2.893 1.02-.711 2.372-1.067 4.059-1.067.807 0 1.591.092 2.354.275.763.183 1.386.429 1.87.737l-1.012 2.112a5.37 5.37 0 00-1.639-.682 7.816 7.816 0 00-1.837-.22c-.865 0-1.522.132-1.969.396-.447.264-.671.609-.671 1.034 0 .381.194.656.583.825.389.169.994.341 1.815.517.821.161 1.496.334 2.024.517s.983.48 1.364.891c.381.41.572.968.572 1.672 0 1.261-.513 2.237-1.54 2.926-1.027.69-2.39 1.034-4.092 1.034zm27.214-11.902L887.144 209h-2.618l.242-1.21c-1.027.91-2.303 1.364-3.828 1.364-.968 0-1.844-.205-2.629-.616a4.556 4.556 0 01-1.859-1.793c-.455-.785-.682-1.705-.682-2.761 0-1.305.29-2.482.869-3.531a6.318 6.318 0 012.376-2.453c1.005-.587 2.13-.88 3.377-.88 1.877 0 3.212.623 4.004 1.87l.33-1.738h2.75zm-7.832 9.548c.777 0 1.47-.187 2.079-.561a3.956 3.956 0 001.441-1.562c.352-.667.528-1.426.528-2.277 0-.924-.271-1.646-.814-2.167-.543-.52-1.305-.781-2.288-.781-.777 0-1.47.187-2.079.561a3.956 3.956 0 00-1.441 1.562c-.352.667-.528 1.426-.528 2.277 0 .924.271 1.646.814 2.167.543.52 1.305.781 2.288.781zm12.364-14.124h2.75L893.502 209h-2.75l3.256-16.324zm6.358 0h2.75L899.86 209h-2.75l3.256-16.324zm15.048 16.478c-1.159 0-2.174-.216-3.047-.649-.873-.433-1.544-1.038-2.013-1.815-.47-.777-.704-1.68-.704-2.706 0-1.305.3-2.479.902-3.52a6.473 6.473 0 012.497-2.453c1.063-.594 2.277-.891 3.641-.891 1.188 0 2.211.231 3.069.693.858.462 1.522 1.148 1.991 2.057l-2.354 1.21c-.543-1.085-1.518-1.628-2.926-1.628-.777 0-1.47.187-2.079.561a3.956 3.956 0 00-1.441 1.562c-.352.667-.528 1.426-.528 2.277 0 .924.271 1.646.814 2.167.543.52 1.313.781 2.31.781.675 0 1.283-.136 1.826-.407a3.722 3.722 0 001.386-1.221l2.024 1.364c-.543.821-1.29 1.463-2.244 1.925-.953.462-1.995.693-3.124.693zm15.642-12.034c1.32 0 2.365.345 3.135 1.034.77.69 1.155 1.672 1.155 2.948 0 .352-.051.814-.154 1.386L933.894 209h-2.75l1.276-6.446a4.56 4.56 0 00.088-.902c0-1.423-.785-2.134-2.354-2.134-1.012 0-1.848.282-2.508.847-.66.565-1.107 1.412-1.342 2.541L925.072 209h-2.75l3.256-16.324h2.75l-1.144 5.742c1.012-.865 2.303-1.298 3.872-1.298zm20.152.132L948.876 209h-2.618l.242-1.21c-1.027.91-2.303 1.364-3.828 1.364-.968 0-1.844-.205-2.629-.616a4.556 4.556 0 01-1.859-1.793c-.455-.785-.682-1.705-.682-2.761 0-1.305.29-2.482.869-3.531a6.318 6.318 0 012.376-2.453c1.005-.587 2.13-.88 3.377-.88 1.877 0 3.212.623 4.004 1.87l.33-1.738h2.75zm-7.832 9.548c.777 0 1.47-.187 2.079-.561a3.956 3.956 0 001.441-1.562c.352-.667.528-1.426.528-2.277 0-.924-.271-1.646-.814-2.167-.543-.52-1.305-.781-2.288-.781-.777 0-1.47.187-2.079.561a3.956 3.956 0 00-1.441 1.562c-.352.667-.528 1.426-.528 2.277 0 .924.271 1.646.814 2.167.543.52 1.305.781 2.288.781zm17.842-9.68c1.32 0 2.365.345 3.135 1.034.77.69 1.155 1.665 1.155 2.926 0 .352-.051.821-.154 1.408L964.056 209h-2.75l1.276-6.446a4.56 4.56 0 00.088-.902c0-1.423-.785-2.134-2.354-2.134-1.012 0-1.848.282-2.508.847-.66.565-1.107 1.412-1.342 2.541L955.234 209h-2.75l2.332-11.748h2.618l-.264 1.298c1.056-.953 2.405-1.43 4.048-1.43zm15.07 0c1.32 0 2.365.345 3.135 1.034.77.69 1.155 1.665 1.155 2.926 0 .352-.051.821-.154 1.408L979.126 209h-2.75l1.276-6.446a4.56 4.56 0 00.088-.902c0-1.423-.785-2.134-2.354-2.134-1.012 0-1.848.282-2.508.847-.66.565-1.107 1.412-1.342 2.541L970.304 209h-2.75l2.332-11.748h2.618l-.264 1.298c1.056-.953 2.405-1.43 4.048-1.43zm18.634 5.148a7.89 7.89 0 01-.176 1.672h-9.328c.044 1.921 1.173 2.882 3.388 2.882a5.51 5.51 0 001.892-.319 4.342 4.342 0 001.496-.891l1.144 1.914c-.601.543-1.324.95-2.167 1.221a8.602 8.602 0 01-2.651.407c-1.173 0-2.196-.213-3.069-.638-.873-.425-1.544-1.03-2.013-1.815-.47-.785-.704-1.69-.704-2.717 0-1.305.29-2.482.869-3.531a6.228 6.228 0 012.42-2.453c1.034-.587 2.196-.88 3.487-.88 1.643 0 2.955.458 3.938 1.375.983.917 1.474 2.174 1.474 3.773zm-5.544-2.948c-.924 0-1.712.25-2.365.748-.653.499-1.104 1.18-1.353 2.046h6.732c.015-.88-.253-1.566-.803-2.057-.55-.491-1.287-.737-2.211-.737zm10.12-6.644h2.75L998.992 209h-2.75l3.256-16.324zm7.106 16.478a10.95 10.95 0 01-2.849-.363c-.902-.242-1.602-.546-2.101-.913l1.144-2.112c.484.352 1.093.63 1.826.836a8.364 8.364 0 002.266.308c.88 0 1.544-.121 1.991-.363.447-.242.671-.59.671-1.045 0-.352-.187-.609-.561-.77-.374-.161-.964-.33-1.771-.506-.836-.161-1.522-.334-2.057-.517a3.346 3.346 0 01-1.386-.902c-.389-.418-.583-.994-.583-1.727 0-1.217.51-2.182 1.529-2.893 1.02-.711 2.372-1.067 4.059-1.067.807 0 1.591.092 2.354.275.763.183 1.386.429 1.87.737l-1.012 2.112a5.37 5.37 0 00-1.639-.682 7.816 7.816 0 00-1.837-.22c-.865 0-1.522.132-1.969.396-.447.264-.671.609-.671 1.034 0 .381.194.656.583.825.389.169.994.341 1.815.517.821.161 1.496.334 2.024.517s.983.48 1.364.891c.381.41.572.968.572 1.672 0 1.261-.513 2.237-1.54 2.926-1.027.69-2.39 1.034-4.092 1.034zm8.448 0c-.484 0-.891-.161-1.221-.484-.33-.323-.495-.733-.495-1.232 0-.557.183-1.02.55-1.386.367-.367.821-.55 1.364-.55.484 0 .887.161 1.21.484.323.323.484.733.484 1.232 0 .572-.187 1.038-.561 1.397-.374.36-.818.539-1.331.539zm8.162-16.632c.484 0 .884.161 1.199.484.315.323.473.733.473 1.232 0 .25-.044.499-.132.748-.088.25-.242.565-.462.946l-2.024 3.41h-1.76l1.562-3.432a1.542 1.542 0 01-.583-.605 1.746 1.746 0 01-.209-.847c0-.572.19-1.038.572-1.397a1.92 1.92 0 011.364-.539zm4.664 0c.484 0 .884.161 1.199.484.315.323.473.733.473 1.232 0 .25-.044.499-.132.748-.088.25-.242.565-.462.946l-2.024 3.41h-1.76l1.562-3.432a1.542 1.542 0 01-.583-.605 1.746 1.746 0 01-.209-.847c0-.572.19-1.038.572-1.397a1.92 1.92 0 011.364-.539z" fill="#0065F2" fill-rule="nonzero"/><path d="M523.186 264.72h16l-.304 1.552h-16l.304-1.552zm26.888 5.472c-1.12 0-2.099-.203-2.936-.608-.837-.405-1.48-.976-1.928-1.712-.448-.736-.672-1.584-.672-2.544 0-1.27.29-2.413.872-3.432a6.274 6.274 0 012.456-2.408c1.056-.587 2.267-.88 3.632-.88 1.003 0 1.888.17 2.656.512.768.341 1.35.832 1.744 1.472l-1.872 1.536c-.597-.875-1.499-1.312-2.704-1.312-.821 0-1.547.192-2.176.576a3.949 3.949 0 00-1.464 1.568c-.347.661-.52 1.397-.52 2.208 0 .864.275 1.55.824 2.056.55.507 1.32.76 2.312.76 1.184 0 2.176-.432 2.976-1.296l1.536 1.568c-1.11 1.29-2.688 1.936-4.736 1.936zm12.5-8.928c.96 0 1.723.256 2.288.768.565.512.848 1.237.848 2.176 0 .341-.037.683-.112 1.024l-.96 4.768h-2.496l.928-4.608c.043-.181.064-.379.064-.592 0-.448-.123-.79-.368-1.024-.245-.235-.613-.352-1.104-.352-.64 0-1.17.184-1.592.552-.421.368-.707.92-.856 1.656L558.35 270h-2.496l2.368-11.872h2.496l-.8 4.048c.736-.608 1.621-.912 2.656-.912zm8.308 1.152a3.239 3.239 0 011.352-.88c.528-.181 1.15-.272 1.864-.272l-.448 2.304c-.299-.021-.49-.032-.576-.032-.757 0-1.363.187-1.816.56-.453.373-.76.955-.92 1.744l-.832 4.16h-2.496l1.712-8.608h2.368l-.208 1.024zm4.772-1.024h2.48L576.422 270h-2.48l1.712-8.608zm1.664-1.2c-.427 0-.776-.125-1.048-.376a1.203 1.203 0 01-.408-.92c0-.427.152-.781.456-1.064.304-.283.701-.424 1.192-.424.437 0 .792.12 1.064.36s.408.536.408.888c0 .459-.155.83-.464 1.112-.31.283-.71.424-1.2.424zm4.66 9.936a8.781 8.781 0 01-2.12-.248c-.667-.165-1.187-.381-1.56-.648l.96-1.808c.373.245.83.443 1.368.592.539.15 1.08.224 1.624.224.565 0 .987-.072 1.264-.216.277-.144.416-.35.416-.616 0-.213-.123-.368-.368-.464-.245-.096-.64-.197-1.184-.304a11.09 11.09 0 01-1.528-.384 2.54 2.54 0 01-1.04-.68c-.293-.315-.44-.744-.44-1.288 0-.95.397-1.69 1.192-2.224.795-.533 1.837-.8 3.128-.8.597 0 1.179.064 1.744.192s1.045.304 1.44.528l-.896 1.824c-.704-.437-1.552-.656-2.544-.656-.544 0-.957.08-1.24.24-.283.16-.424.363-.424.608 0 .224.123.387.368.488.245.101.656.21 1.232.328a11.42 11.42 0 011.496.376c.39.133.728.355 1.016.664.288.31.432.73.432 1.264 0 .96-.403 1.701-1.208 2.224-.805.523-1.848.784-3.128.784zm8.852-3.168a1.519 1.519 0 00-.032.352c0 .555.304.832.912.832.33 0 .667-.101 1.008-.304l.368 1.776c-.555.341-1.27.512-2.144.512-.81 0-1.461-.213-1.952-.64-.49-.427-.736-1.013-.736-1.76 0-.213.027-.464.08-.752l.688-3.472h-1.328l.384-1.92h1.328l.416-2.096h2.496l-.416 2.096h2.144l-.384 1.92h-2.144l-.688 3.456zm5.38-5.568h2.48L596.978 270h-2.48l1.712-8.608zm1.664-1.2c-.427 0-.776-.125-1.048-.376a1.203 1.203 0 01-.408-.92c0-.427.152-.781.456-1.064.304-.283.701-.424 1.192-.424.437 0 .792.12 1.064.36s.408.536.408.888c0 .459-.155.83-.464 1.112-.31.283-.71.424-1.2.424zm11.972 1.2L608.134 270h-2.368l.16-.848c-.715.65-1.595.976-2.64.976-.672 0-1.29-.155-1.856-.464a3.462 3.462 0 01-1.352-1.336c-.336-.581-.504-1.267-.504-2.056 0-.95.21-1.805.632-2.568a4.671 4.671 0 011.72-1.792 4.603 4.603 0 012.4-.648c1.323 0 2.256.432 2.8 1.296l.224-1.168h2.496zm-5.792 6.672c.49 0 .928-.12 1.312-.36s.683-.573.896-1c.213-.427.32-.917.32-1.472 0-.587-.173-1.05-.52-1.392-.347-.341-.83-.512-1.448-.512-.49 0-.928.12-1.312.36s-.683.573-.896 1c-.213.427-.32.917-.32 1.472 0 .587.173 1.05.52 1.392.347.341.83.512 1.448.512zm13.204-6.8c.96 0 1.723.253 2.288.76.565.507.848 1.23.848 2.168 0 .352-.037.699-.112 1.04l-.96 4.768h-2.496l.928-4.608c.043-.181.064-.379.064-.592 0-.448-.123-.79-.368-1.024-.245-.235-.613-.352-1.104-.352-.64 0-1.17.184-1.592.552-.421.368-.707.92-.856 1.656l-.864 4.368h-2.496l1.712-8.608h2.368l-.192.928c.768-.704 1.712-1.056 2.832-1.056zm20.408 1.008c0 1.045-.283 1.941-.848 2.688-.565.747-1.35 1.275-2.352 1.584l1.952 3.456h-2.736l-1.76-3.136h-2.208L629.09 270h-2.608l2.24-11.2h4.56c1.387 0 2.464.304 3.232.912.768.608 1.152 1.461 1.152 2.56zm-5.344 2.528c.864 0 1.533-.197 2.008-.592.475-.395.712-.96.712-1.696 0-.533-.181-.933-.544-1.2-.363-.267-.88-.4-1.552-.4h-2.048l-.784 3.888h2.208zm15.204.256c0 .395-.048.832-.144 1.312h-6.592c.085 1.173.827 1.76 2.224 1.76.437 0 .856-.07 1.256-.208.4-.139.75-.336 1.048-.592l1.04 1.648c-.48.384-1.03.672-1.648.864a6.548 6.548 0 01-1.952.288c-.885 0-1.661-.157-2.328-.472-.667-.315-1.179-.765-1.536-1.352-.357-.587-.536-1.264-.536-2.032 0-.95.216-1.805.648-2.568a4.65 4.65 0 011.8-1.792c.768-.432 1.643-.648 2.624-.648.832 0 1.555.155 2.168.464.613.31 1.088.752 1.424 1.328.336.576.504 1.243.504 2zm-4.208-1.92c-.587 0-1.083.157-1.488.472-.405.315-.693.75-.864 1.304h4.272c0-.555-.173-.99-.52-1.304-.347-.315-.813-.472-1.4-.472zm16.132-5.008L657.082 270h-2.368l.176-.864c-.725.661-1.605.992-2.64.992-.672 0-1.29-.155-1.856-.464a3.462 3.462 0 01-1.352-1.336c-.336-.581-.504-1.267-.504-2.056 0-.95.21-1.805.632-2.568a4.671 4.671 0 011.72-1.792 4.603 4.603 0 012.4-.648c.63 0 1.181.107 1.656.32.475.213.85.528 1.128.944l.88-4.4h2.496zm-6.432 9.936c.49 0 .928-.12 1.312-.36s.683-.573.896-1c.213-.427.32-.917.32-1.472 0-.587-.173-1.05-.52-1.392-.347-.341-.83-.512-1.448-.512-.49 0-.928.12-1.312.36s-.683.573-.896 1c-.213.427-.32.917-.32 1.472 0 .587.173 1.05.52 1.392.347.341.83.512 1.448.512zm17.604-9.936L668.254 270h-2.368l.176-.864c-.725.661-1.605.992-2.64.992-.672 0-1.29-.155-1.856-.464a3.462 3.462 0 01-1.352-1.336c-.336-.581-.504-1.267-.504-2.056 0-.95.21-1.805.632-2.568a4.671 4.671 0 011.72-1.792 4.603 4.603 0 012.4-.648c.63 0 1.181.107 1.656.32.475.213.85.528 1.128.944l.88-4.4h2.496zm-6.432 9.936c.49 0 .928-.12 1.312-.36s.683-.573.896-1c.213-.427.32-.917.32-1.472 0-.587-.173-1.05-.52-1.392-.347-.341-.83-.512-1.448-.512-.49 0-.928.12-1.312.36s-.683.573-.896 1c-.213.427-.32.917-.32 1.472 0 .587.173 1.05.52 1.392.347.341.83.512 1.448.512zm15.828-3.008c0 .395-.048.832-.144 1.312h-6.592c.085 1.173.827 1.76 2.224 1.76.437 0 .856-.07 1.256-.208.4-.139.75-.336 1.048-.592l1.04 1.648c-.48.384-1.03.672-1.648.864a6.548 6.548 0 01-1.952.288c-.885 0-1.661-.157-2.328-.472-.667-.315-1.179-.765-1.536-1.352-.357-.587-.536-1.264-.536-2.032 0-.95.216-1.805.648-2.568a4.65 4.65 0 011.8-1.792c.768-.432 1.643-.648 2.624-.648.832 0 1.555.155 2.168.464.613.31 1.088.752 1.424 1.328.336.576.504 1.243.504 2zm-4.208-1.92c-.587 0-1.083.157-1.488.472-.405.315-.693.75-.864 1.304h4.272c0-.555-.173-.99-.52-1.304-.347-.315-.813-.472-1.4-.472zm8.884-.72a3.239 3.239 0 011.352-.88c.528-.181 1.15-.272 1.864-.272l-.448 2.304c-.299-.021-.49-.032-.576-.032-.757 0-1.363.187-1.816.56-.453.373-.76.955-.92 1.744l-.832 4.16h-2.496l1.712-8.608h2.368l-.208 1.024zm4.292 4.608c.427 0 .776.133 1.048.4s.408.613.408 1.04c0 .224-.04.435-.12.632-.08.197-.227.461-.44.792l-1.6 2.576h-1.568l1.232-2.576a1.384 1.384 0 01-.456-.504 1.444 1.444 0 01-.168-.696c0-.49.16-.89.48-1.2.32-.31.715-.464 1.184-.464zm14.696-2.672l3.072 5.648h-2.8l-1.984-3.808-3.392 3.808h-3.104l5.36-5.808-2.896-5.392h2.768l1.872 3.6 3.264-3.6h2.944l-5.104 5.552zm13.284.704c0 .395-.048.832-.144 1.312h-6.592c.085 1.173.827 1.76 2.224 1.76.437 0 .856-.07 1.256-.208.4-.139.75-.336 1.048-.592l1.04 1.648c-.48.384-1.03.672-1.648.864a6.548 6.548 0 01-1.952.288c-.885 0-1.661-.157-2.328-.472-.667-.315-1.179-.765-1.536-1.352-.357-.587-.536-1.264-.536-2.032 0-.95.216-1.805.648-2.568a4.65 4.65 0 011.8-1.792c.768-.432 1.643-.648 2.624-.648.832 0 1.555.155 2.168.464.613.31 1.088.752 1.424 1.328.336.576.504 1.243.504 2zm-4.208-1.92c-.587 0-1.083.157-1.488.472-.405.315-.693.75-.864 1.304h4.272c0-.555-.173-.99-.52-1.304-.347-.315-.813-.472-1.4-.472zm8.884-.72a3.239 3.239 0 011.352-.88c.528-.181 1.15-.272 1.864-.272l-.448 2.304c-.299-.021-.49-.032-.576-.032-.757 0-1.363.187-1.816.56-.453.373-.76.955-.92 1.744l-.832 4.16h-2.496l1.712-8.608h2.368l-.208 1.024zm7.476 7.712c-.864 0-1.624-.16-2.28-.48-.656-.32-1.163-.77-1.52-1.352-.357-.581-.536-1.256-.536-2.024 0-.95.224-1.803.672-2.56a4.835 4.835 0 011.856-1.792c.79-.437 1.68-.656 2.672-.656.875 0 1.637.16 2.288.48.65.32 1.155.77 1.512 1.352.357.581.536 1.256.536 2.024 0 .95-.221 1.803-.664 2.56a4.762 4.762 0 01-1.856 1.792c-.795.437-1.688.656-2.68.656zm.16-2.064c.48 0 .912-.12 1.296-.36s.683-.573.896-1c.213-.427.32-.917.32-1.472 0-.587-.17-1.05-.512-1.392-.341-.341-.821-.512-1.44-.512-.49 0-.928.12-1.312.36s-.683.573-.896 1c-.213.427-.32.917-.32 1.472 0 .587.173 1.05.52 1.392.347.341.83.512 1.448.512zm11.46-2.368l2.4 4.304h-2.64l-1.408-2.64-2.48 2.64h-2.848l4.304-4.416-2.288-4.192h2.592l1.36 2.528 2.4-2.528h2.752l-4.144 4.304zm23.432-6.896l-2.224 11.2h-2.432l1.312-6.656-4.272 5.472h-1.152l-2.304-5.536-1.344 6.72h-2.432l2.24-11.2h2.112l2.8 6.976 5.472-6.976h2.224zm10.82 2.592L773.278 270h-2.368l.16-.848c-.715.65-1.595.976-2.64.976-.672 0-1.29-.155-1.856-.464a3.462 3.462 0 01-1.352-1.336c-.336-.581-.504-1.267-.504-2.056 0-.95.21-1.805.632-2.568a4.671 4.671 0 011.72-1.792 4.603 4.603 0 012.4-.648c1.323 0 2.256.432 2.8 1.296l.224-1.168h2.496zm-5.792 6.672c.49 0 .928-.12 1.312-.36s.683-.573.896-1c.213-.427.32-.917.32-1.472 0-.587-.173-1.05-.52-1.392-.347-.341-.83-.512-1.448-.512-.49 0-.928.12-1.312.36s-.683.573-.896 1c-.213.427-.32.917-.32 1.472 0 .587.173 1.05.52 1.392.347.341.83.512 1.448.512zm10.356-5.648a3.239 3.239 0 011.352-.88c.528-.181 1.15-.272 1.864-.272l-.448 2.304c-.299-.021-.49-.032-.576-.032-.757 0-1.363.187-1.816.56-.453.373-.76.955-.92 1.744l-.832 4.16h-2.496l1.712-8.608h2.368l-.208 1.024zm9.476 2.72l2.96 4.864h-2.896l-2.048-3.344-1.52 1.264-.416 2.08h-2.496l2.368-11.872h2.496l-1.328 6.64 4.128-3.376h3.248l-4.496 3.744zm12.98-.08c0 .395-.048.832-.144 1.312h-6.592c.085 1.173.827 1.76 2.224 1.76.437 0 .856-.07 1.256-.208.4-.139.75-.336 1.048-.592l1.04 1.648c-.48.384-1.03.672-1.648.864a6.548 6.548 0 01-1.952.288c-.885 0-1.661-.157-2.328-.472-.667-.315-1.179-.765-1.536-1.352-.357-.587-.536-1.264-.536-2.032 0-.95.216-1.805.648-2.568a4.65 4.65 0 011.8-1.792c.768-.432 1.643-.648 2.624-.648.832 0 1.555.155 2.168.464.613.31 1.088.752 1.424 1.328.336.576.504 1.243.504 2zm-4.208-1.92c-.587 0-1.083.157-1.488.472-.405.315-.693.75-.864 1.304h4.272c0-.555-.173-.99-.52-1.304-.347-.315-.813-.472-1.4-.472zm8.404 3.824a1.519 1.519 0 00-.032.352c0 .555.304.832.912.832.33 0 .667-.101 1.008-.304l.368 1.776c-.555.341-1.27.512-2.144.512-.81 0-1.461-.213-1.952-.64-.49-.427-.736-1.013-.736-1.76 0-.213.027-.464.08-.752l.688-3.472h-1.328l.384-1.92h1.328l.416-2.096h2.496l-.416 2.096h2.144l-.384 1.92h-2.144l-.688 3.456zm5.38-5.568h2.48L812.354 270h-2.48l1.712-8.608zm1.664-1.2c-.427 0-.776-.125-1.048-.376a1.203 1.203 0 01-.408-.92c0-.427.152-.781.456-1.064.304-.283.701-.424 1.192-.424.437 0 .792.12 1.064.36s.408.536.408.888c0 .459-.155.83-.464 1.112-.31.283-.71.424-1.2.424zm8.244 1.072c.96 0 1.723.253 2.288.76.565.507.848 1.23.848 2.168 0 .352-.037.699-.112 1.04l-.96 4.768h-2.496l.928-4.608c.043-.181.064-.379.064-.592 0-.448-.123-.79-.368-1.024-.245-.235-.613-.352-1.104-.352-.64 0-1.17.184-1.592.552-.421.368-.707.92-.856 1.656L817.27 270h-2.496l1.712-8.608h2.368l-.192.928c.768-.704 1.712-1.056 2.832-1.056zm15.124.128l-1.424 7.168c-.32 1.621-.936 2.805-1.848 3.552-.912.747-2.13 1.12-3.656 1.12a8.646 8.646 0 01-2.296-.288c-.699-.192-1.299-.475-1.8-.848l1.184-1.808c.341.288.781.515 1.32.68a5.775 5.775 0 001.704.248c.843 0 1.483-.184 1.92-.552.437-.368.736-.925.896-1.672l.064-.368c-.693.64-1.568.96-2.624.96-.715 0-1.36-.147-1.936-.44a3.379 3.379 0 01-1.368-1.256c-.336-.544-.504-1.184-.504-1.92 0-.875.208-1.67.624-2.384a4.57 4.57 0 011.72-1.696c.73-.416 1.55-.624 2.456-.624.672 0 1.261.125 1.768.376.507.25.888.637 1.144 1.16l.272-1.408h2.384zm-5.888 6.144c.725 0 1.323-.235 1.792-.704.47-.47.704-1.072.704-1.808 0-.523-.17-.936-.512-1.24-.341-.304-.816-.456-1.424-.456-.736 0-1.341.235-1.816.704-.475.47-.712 1.072-.712 1.808 0 .523.176.936.528 1.24.352.304.832.456 1.44.456zm26.232-8.736l-2.224 11.2h-2.432l1.312-6.656-4.272 5.472h-1.152l-2.304-5.536-1.344 6.72h-2.432l2.24-11.2h2.112l2.8 6.976 5.472-6.976h2.224zm10.82 2.592L866.07 270h-2.368l.16-.848c-.715.65-1.595.976-2.64.976-.672 0-1.29-.155-1.856-.464a3.462 3.462 0 01-1.352-1.336c-.336-.581-.504-1.267-.504-2.056 0-.95.21-1.805.632-2.568a4.671 4.671 0 011.72-1.792 4.603 4.603 0 012.4-.648c1.323 0 2.256.432 2.8 1.296l.224-1.168h2.496zm-5.792 6.672c.49 0 .928-.12 1.312-.36s.683-.573.896-1c.213-.427.32-.917.32-1.472 0-.587-.173-1.05-.52-1.392-.347-.341-.83-.512-1.448-.512-.49 0-.928.12-1.312.36s-.683.573-.896 1c-.213.427-.32.917-.32 1.472 0 .587.173 1.05.52 1.392.347.341.83.512 1.448.512zm13.204-6.8c.96 0 1.723.253 2.288.76.565.507.848 1.23.848 2.168 0 .352-.037.699-.112 1.04l-.96 4.768h-2.496l.928-4.608c.043-.181.064-.379.064-.592 0-.448-.123-.79-.368-1.024-.245-.235-.613-.352-1.104-.352-.64 0-1.17.184-1.592.552-.421.368-.707.92-.856 1.656L870.97 270h-2.496l1.712-8.608h2.368l-.192.928c.768-.704 1.712-1.056 2.832-1.056zm14.98.128L888.462 270h-2.368l.16-.848c-.715.65-1.595.976-2.64.976-.672 0-1.29-.155-1.856-.464a3.462 3.462 0 01-1.352-1.336c-.336-.581-.504-1.267-.504-2.056 0-.95.21-1.805.632-2.568a4.671 4.671 0 011.72-1.792 4.603 4.603 0 012.4-.648c1.323 0 2.256.432 2.8 1.296l.224-1.168h2.496zm-5.792 6.672c.49 0 .928-.12 1.312-.36s.683-.573.896-1c.213-.427.32-.917.32-1.472 0-.587-.173-1.05-.52-1.392-.347-.341-.83-.512-1.448-.512-.49 0-.928.12-1.312.36s-.683.573-.896 1c-.213.427-.32.917-.32 1.472 0 .587.173 1.05.52 1.392.347.341.83.512 1.448.512zm17.076-6.672l-1.424 7.168c-.32 1.621-.936 2.805-1.848 3.552-.912.747-2.13 1.12-3.656 1.12a8.646 8.646 0 01-2.296-.288c-.699-.192-1.299-.475-1.8-.848l1.184-1.808c.341.288.781.515 1.32.68a5.775 5.775 0 001.704.248c.843 0 1.483-.184 1.92-.552.437-.368.736-.925.896-1.672l.064-.368c-.693.64-1.568.96-2.624.96-.715 0-1.36-.147-1.936-.44a3.379 3.379 0 01-1.368-1.256c-.336-.544-.504-1.184-.504-1.92 0-.875.208-1.67.624-2.384a4.57 4.57 0 011.72-1.696c.73-.416 1.55-.624 2.456-.624.672 0 1.261.125 1.768.376.507.25.888.637 1.144 1.16l.272-1.408h2.384zm-5.888 6.144c.725 0 1.323-.235 1.792-.704.47-.47.704-1.072.704-1.808 0-.523-.17-.936-.512-1.24-.341-.304-.816-.456-1.424-.456-.736 0-1.341.235-1.816.704-.475.47-.712 1.072-.712 1.808 0 .523.176.936.528 1.24.352.304.832.456 1.44.456zm15.94-2.48c0 .395-.048.832-.144 1.312h-6.592c.085 1.173.827 1.76 2.224 1.76.437 0 .856-.07 1.256-.208.4-.139.75-.336 1.048-.592l1.04 1.648c-.48.384-1.03.672-1.648.864a6.548 6.548 0 01-1.952.288c-.885 0-1.661-.157-2.328-.472-.667-.315-1.179-.765-1.536-1.352-.357-.587-.536-1.264-.536-2.032 0-.95.216-1.805.648-2.568a4.65 4.65 0 011.8-1.792c.768-.432 1.643-.648 2.624-.648.832 0 1.555.155 2.168.464.613.31 1.088.752 1.424 1.328.336.576.504 1.243.504 2zm-4.208-1.92c-.587 0-1.083.157-1.488.472-.405.315-.693.75-.864 1.304h4.272c0-.555-.173-.99-.52-1.304-.347-.315-.813-.472-1.4-.472zm8.884-.72a3.239 3.239 0 011.352-.88c.528-.181 1.15-.272 1.864-.272l-.448 2.304c-.299-.021-.49-.032-.576-.032-.757 0-1.363.187-1.816.56-.453.373-.76.955-.92 1.744l-.832 4.16h-2.496l1.712-8.608h2.368l-.208 1.024z" fill="#7A7A7A" fill-rule="nonzero"/></g></svg>