<svg width="176" height="137" xmlns="http://www.w3.org/2000/svg"><g fill="none" fill-rule="evenodd"><path d="M107.342 46.63A35.022 35.022 0 01106 37c0-19.33 15.67-35 35-35 4.93 0 9.621 1.02 13.876 2.858L131.184 28.55a3 3 0 000 4.243l14.85 14.849a3 3 0 004.242 0l23.347-23.347A34.912 34.912 0 01176 37c0 19.33-15.67 35-35 35-2.776 0-5.477-.323-8.066-.934L74 130c-8.667 8-17 8.333-25 1s-8-16.333 0-27l58.342-57.37zM60.5 130c6.351 0 11.5-5.149 11.5-11.5S66.851 107 60.5 107 49 112.149 49 118.5 54.149 130 60.5 130z" fill="#9D9D9D"/><path d="M103.342 44.63A35.022 35.022 0 01102 35c0-19.33 15.67-35 35-35 4.93 0 9.621 1.02 13.876 2.858L127.184 26.55a3 3 0 000 4.243l14.85 14.849a3 3 0 004.242 0l23.347-23.347A34.912 34.912 0 01172 35c0 19.33-15.67 35-35 35-2.776 0-5.477-.323-8.066-.934L70 128c-8.667 8-17 8.333-25 1s-8-16.333 0-27l58.342-57.37zM56.5 128c6.351 0 11.5-5.149 11.5-11.5S62.851 105 56.5 105 45 110.149 45 116.5 50.149 128 56.5 128z" fill="#D8D8D8"/><path d="M57 .373C56.878 14.96 64.42 22.503 79.627 23 64.42 22.569 56.877 30.111 57 45.627 57.122 30.42 49.58 22.877 34.373 23 49.578 22.805 56.813 14.968 57 .373z" fill="#FDE4FF"/><path d="M141 83.544c-.137 16.413 8.348 24.898 25.456 25.456-17.108-.485-25.593 8-25.456 25.456.137-17.108-8.348-25.593-25.456-25.456 17.107-.22 25.245-9.036 25.456-25.456z" fill="#FAEDC1"/><path d="M16 52.444C15.916 62.474 21.101 67.659 31.556 68 21.101 67.703 15.916 72.889 16 83.556 16.084 73.101 10.899 67.916.444 68 10.898 67.866 15.87 62.478 16 52.444z" fill="#FFF"/></g></svg>