<svg xmlns="http://www.w3.org/2000/svg" width="1000" height="218.719"><path d="M684.213 0C619.567 0 576.66 48.083 576.66 109.29c0 64.713 43.49 109.2 107.554 109.2 62.84 0 107.334-46.486 107.334-109.252C791.547 46.485 747.047 0 684.213 0zM316.167.154c-20.537 0-46.522 7.073-65.641 22.795-22.807 18.76-40.461 48.114-40.461 87.602 0 34.05 11.032 61.472 30.937 80.047 19.485 18.19 47.044 28.12 81.217 28.12 27.51 0 60.735-10.382 74.985-19.193 4.987-3.081 6.553-4.404 5.26-9.441l-8.9-25.201c-1.032-4.133-5.616-5.192-9.34-3.342-6.256 3.075-10.928 5.495-17.27 7.834-12.32 4.554-25.066 7.66-37.2 7.66-25.548 0-40.076-6.943-51.2-19.758-7.067-8.136-11.206-18.45-12.493-30.367h140.98c5.13 0 7.415-3.545 7.415-9.54v-10.161c0-4.95-.224-12.72-.645-17.367-2.593-28.388-13.037-51.227-30.46-66.701C366.563 8.21 344.028.154 316.165.154zm229.845.203c-40.707 0-65.568 9.338-81.52 29.905-12.22 15.771-14.43 33.413-14.415 71.156v103.59c.563 7.381 3.532 10.834 10.431 10.834h32.205c7.45 0 10.495-3.886 10.495-10.834V99.486c0-23.772.29-37.038 8.65-46.01 7.19-7.715 16.835-12.763 37.068-12.763 4.01 0 13.62 1.058 16.973 1.467 1.268.154 2.301.254 2.846.254 3.49 0 4.702-1.27 5.822-5.705l4.832-23.749c.89-4.869.148-8.655-4.703-9.806C567.32 1.429 555.578.357 546.012.357zM11.87 3.18c-3.502 0-6.02 2.79-4.578 7.506 9.596 31.351 33.937 68.575 59.175 99.128C34.305 138.79 11.814 177.331.527 208.3c-1.664 4.554.917 7.531 3.454 7.531h37.953c5.464 0 7.969-1.944 10.475-7.494 10.258-22.665 25.493-48.819 45.472-70.03 18.315 17.635 34.34 44.451 44.612 70.03 2.877 7.072 6.205 7.494 10.506 7.494h41.38c7.92 0 8.62-4.294 7.198-8.037-15.784-41.604-49.363-84.07-68.303-102.008 17.343-18.513 48.781-54.269 62.518-95.1 2.023-6.007-1.715-7.505-4.815-7.505h-34.65c-4.202 0-7.01 1.467-10.116 7.506-18.66 35.194-35.46 55.947-42.693 63.427C92.121 60.581 77.135 36.24 66.17 10.686c-2.382-5.544-4.9-7.506-9.72-7.506H11.87zm797.832 0c-3.49 0-6.014 2.79-4.578 7.506 9.59 31.351 33.93 68.575 59.175 99.128-32.156 28.976-54.647 67.517-65.933 98.485-1.665 4.554.934 7.531 3.459 7.531h37.947c5.457 0 7.963-1.944 10.463-7.494 10.265-22.665 25.493-48.819 45.478-70.03 18.321 17.635 34.347 44.451 44.606 70.03 2.902 7.072 6.224 7.494 10.512 7.494h41.38c7.914 0 8.62-4.294 7.204-8.037-15.797-41.604-49.376-84.07-68.291-102.008 17.33-18.513 48.775-54.269 62.505-95.1 2.03-6.007-1.714-7.505-4.82-7.505h-34.637c-4.207 0-7.022 1.467-10.129 7.506-18.655 35.194-35.454 55.947-42.681 63.427-11.41-13.532-26.395-37.873-37.365-63.427-2.376-5.544-4.908-7.506-9.715-7.506h-44.58zM684.245 40.008c37.638 0 51.82 32.552 51.82 69.244 0 36.704-14.182 69.279-51.82 69.273-37.65 0-52.153-32.57-52.153-69.273 0-36.685 14.502-69.244 52.153-69.244zm-366.315.185c28.16 0 45.362 19.126 45.362 47.514v1.287H265.98c1.046-7.06 3.062-13.768 6.23-20.135 8.675-17.498 25.22-28.666 45.72-28.666z" fill="#d40e2a"/></svg>