<svg width="187" height="41" xmlns="http://www.w3.org/2000/svg"><path d="M127.948 0c-12.089 0-20.113 9.013-20.113 20.487 0 12.13 8.133 20.47 20.113 20.47 11.75 0 20.071-8.714 20.071-20.48C148.02 8.714 139.698 0 127.948 0zM59.123.029c-3.84 0-8.7 1.326-12.275 4.273-4.265 3.517-7.566 9.02-7.566 16.421 0 6.383 2.063 11.524 5.785 15.006C48.711 39.139 53.865 41 60.255 41c5.144 0 11.357-1.946 14.022-3.598.933-.578 1.225-.826.984-1.77l-1.664-4.724c-.194-.775-1.05-.973-1.747-.626-1.17.576-2.044 1.03-3.23 1.468-2.303.854-4.687 1.436-6.956 1.436-4.777 0-7.494-1.301-9.575-3.704-1.32-1.525-2.095-3.458-2.336-5.692h26.364c.959 0 1.386-.665 1.386-1.789v-1.904c0-.928-.042-2.385-.12-3.256-.485-5.321-2.438-9.602-5.697-12.503-3.139-2.799-7.353-4.31-12.563-4.31zm42.981.038c-7.612 0-12.261 1.75-15.244 5.606-2.285 2.956-2.698 6.263-2.696 13.338V38.43c.106 1.384.66 2.03 1.951 2.03h6.022c1.393 0 1.963-.728 1.963-2.03V18.65c0-4.457.054-6.944 1.617-8.626 1.345-1.446 3.149-2.392 6.932-2.392.75 0 2.547.198 3.174.275.237.029.43.047.532.047.653 0 .88-.237 1.089-1.069l.904-4.452c.166-.913.027-1.622-.88-1.838-1.38-.327-3.575-.528-5.364-.528zM2.22.596c-.655 0-1.126.523-.856 1.407C3.158 7.88 7.71 14.858 12.429 20.585 6.415 26.017 2.21 33.242.1 39.047c-.312.853.171 1.412.645 1.412h7.098c1.021 0 1.49-.365 1.958-1.405 1.919-4.249 4.768-9.152 8.504-13.128 3.425 3.306 6.421 8.333 8.342 13.128.538 1.325 1.16 1.405 1.965 1.405h7.738c1.481 0 1.612-.805 1.346-1.507-2.952-7.799-9.231-15.76-12.773-19.122 3.243-3.47 9.122-10.173 11.691-17.827.378-1.126-.32-1.407-.9-1.407h-6.48c-.786 0-1.31.275-1.891 1.407-3.49 6.597-6.632 10.488-7.984 11.89-2.131-2.537-4.934-7.1-6.984-11.89-.446-1.04-.917-1.407-1.818-1.407H2.22zm149.194 0c-.652 0-1.124.523-.856 1.407 1.794 5.877 6.345 12.855 11.066 18.582-6.013 5.432-10.22 12.657-12.33 18.462-.31.853.175 1.412.647 1.412h7.096c1.02 0 1.49-.365 1.957-1.405 1.92-4.249 4.767-9.152 8.504-13.128 3.426 3.306 6.423 8.333 8.342 13.128.542 1.325 1.163 1.405 1.965 1.405h7.739c1.48 0 1.611-.805 1.347-1.507-2.954-7.799-9.234-15.76-12.77-19.122 3.24-3.47 9.12-10.173 11.688-17.827.38-1.126-.32-1.407-.902-1.407h-6.477c-.787 0-1.313.275-1.894 1.407-3.488 6.597-6.63 10.488-7.981 11.89-2.134-2.537-4.936-7.1-6.988-11.89-.444-1.04-.917-1.407-1.816-1.407h-8.337zM127.954 7.5c7.038 0 9.69 6.102 9.69 12.98 0 6.88-2.652 12.987-9.69 12.986-7.04 0-9.753-6.106-9.753-12.986 0-6.877 2.712-12.98 9.753-12.98zm-68.501.034c5.266 0 8.483 3.586 8.483 8.907v.241H49.738c.196-1.323.573-2.58 1.166-3.774 1.622-3.28 4.716-5.374 8.549-5.374z" fill="#3A3A3A" opacity=".5"/></svg>