<?xml version="1.0" encoding="UTF-8"?>
<svg width="264px" height="89px" viewBox="0 0 264 89" version="1.1" xmlns="http://www.w3.org/2000/svg" xmlns:xlink="http://www.w3.org/1999/xlink">
    <!-- Generator: Sketch 55.2 (78181) - https://sketchapp.com -->
    <title>80%</title>
    <desc>Created with Sketch.</desc>
    <g id="PAGES" stroke="none" stroke-width="1" fill="none" fill-rule="evenodd">
        <g id="Artboard" transform="translate(-174.000000, -1434.000000)" fill="#CECECE" fill-rule="nonzero">
            <path d="M236.18125,1476.351 C240.053269,1478.60968 243.037906,1481.39265 245.13525,1484.7 C247.232594,1488.00735 248.28125,1491.79865 248.28125,1496.074 C248.28125,1501.39803 246.748599,1506.07665 243.68325,1510.11 C240.617901,1514.14335 236.302278,1517.24899 230.73625,1519.427 C225.170222,1521.60501 218.757286,1522.694 211.49725,1522.694 C204.237214,1522.694 197.824278,1521.60501 192.25825,1519.427 C186.692222,1517.24899 182.376599,1514.14335 179.31125,1510.11 C176.245901,1506.07665 174.71325,1501.39803 174.71325,1496.074 C174.71325,1491.79865 175.761906,1488.00735 177.85925,1484.7 C179.956594,1481.39265 182.941231,1478.60968 186.81325,1476.351 C183.909235,1474.33432 181.670758,1471.87401 180.09775,1468.97 C178.524742,1466.06599 177.73825,1462.83935 177.73825,1459.29 C177.73825,1454.36931 179.149903,1450.03352 181.97325,1446.2825 C184.796597,1442.53148 188.769391,1439.64768 193.89175,1437.631 C199.014109,1435.61432 204.88255,1434.606 211.49725,1434.606 C218.11195,1434.606 223.980391,1435.61432 229.10275,1437.631 C234.225109,1439.64768 238.197903,1442.53148 241.02125,1446.2825 C243.844597,1450.03352 245.25625,1454.36931 245.25625,1459.29 C245.25625,1462.83935 244.469758,1466.06599 242.89675,1468.97 C241.323742,1471.87401 239.085265,1474.33432 236.18125,1476.351 Z M211.49725,1451.425 C208.512568,1451.425 206.092593,1452.21149 204.23725,1453.7845 C202.381907,1455.35751 201.45425,1457.55565 201.45425,1460.379 C201.45425,1463.12168 202.361741,1465.27949 204.17675,1466.8525 C205.991759,1468.42551 208.431901,1469.212 211.49725,1469.212 C214.562599,1469.212 217.022907,1468.42551 218.87825,1466.8525 C220.733593,1465.27949 221.66125,1463.12168 221.66125,1460.379 C221.66125,1457.55565 220.733593,1455.35751 218.87825,1453.7845 C217.022907,1452.21149 214.562599,1451.425 211.49725,1451.425 Z M211.49725,1505.875 C215.369269,1505.875 218.454739,1504.92718 220.75375,1503.0315 C223.052761,1501.13582 224.20225,1498.57468 224.20225,1495.348 C224.20225,1492.12132 223.052761,1489.56018 220.75375,1487.6645 C218.454739,1485.76882 215.369269,1484.821 211.49725,1484.821 C207.625231,1484.821 204.539761,1485.76882 202.24075,1487.6645 C199.941739,1489.56018 198.79225,1492.12132 198.79225,1495.348 C198.79225,1498.57468 199.941739,1501.13582 202.24075,1503.0315 C204.539761,1504.92718 207.625231,1505.875 211.49725,1505.875 Z M292.02275,1522.694 C284.762714,1522.694 278.309445,1520.95968 272.66275,1517.491 C267.016055,1514.02232 262.599599,1508.96053 259.41325,1502.3055 C256.226901,1495.65047 254.63375,1487.76538 254.63375,1478.65 C254.63375,1469.53462 256.226901,1461.64953 259.41325,1454.9945 C262.599599,1448.33947 267.016055,1443.27768 272.66275,1439.809 C278.309445,1436.34032 284.762714,1434.606 292.02275,1434.606 C299.202119,1434.606 305.615055,1436.34032 311.26175,1439.809 C316.908445,1443.27768 321.324901,1448.33947 324.51125,1454.9945 C327.697599,1461.64953 329.29075,1469.53462 329.29075,1478.65 C329.29075,1487.76538 327.697599,1495.65047 324.51125,1502.3055 C321.324901,1508.96053 316.908445,1514.02232 311.26175,1517.491 C305.615055,1520.95968 299.202119,1522.694 292.02275,1522.694 Z M292.02275,1503.092 C296.056103,1503.092 299.262571,1501.13585 301.64225,1497.2235 C304.021929,1493.31115 305.21175,1487.12004 305.21175,1478.65 C305.21175,1470.17996 304.021929,1463.98885 301.64225,1460.0765 C299.262571,1456.16415 296.056103,1454.208 292.02275,1454.208 C287.908729,1454.208 284.661929,1456.16415 282.28225,1460.0765 C279.902571,1463.98885 278.71275,1470.17996 278.71275,1478.65 C278.71275,1487.12004 279.902571,1493.31115 282.28225,1497.2235 C284.661929,1501.13585 287.908729,1503.092 292.02275,1503.092 Z M356.21325,1482.159 C349.840551,1482.159 344.637603,1480.06169 340.60425,1475.867 C336.570897,1471.67231 334.55425,1465.94504 334.55425,1458.685 C334.55425,1453.92564 335.481907,1449.77135 337.33725,1446.222 C339.192593,1442.67265 341.753734,1439.95018 345.02075,1438.0545 C348.287766,1436.15882 352.018562,1435.211 356.21325,1435.211 C362.666616,1435.211 367.909896,1437.32848 371.94325,1441.5635 C375.976604,1445.79852 377.99325,1451.50563 377.99325,1458.685 C377.99325,1465.94504 375.976604,1471.67231 371.94325,1475.867 C367.909896,1480.06169 362.666616,1482.159 356.21325,1482.159 Z M406.30725,1436.3 L423.73125,1436.3 L365.89325,1521 L348.46925,1521 L406.30725,1436.3 Z M356.21325,1470.664 C358.391261,1470.664 360.125577,1469.69601 361.41625,1467.76 C362.706923,1465.82399 363.35225,1462.79902 363.35225,1458.685 C363.35225,1454.57098 362.706923,1451.54601 361.41625,1449.61 C360.125577,1447.67399 358.391261,1446.706 356.21325,1446.706 C354.115906,1446.706 352.401757,1447.69416 351.07075,1449.6705 C349.739743,1451.64684 349.07425,1454.65165 349.07425,1458.685 C349.07425,1462.71835 349.739743,1465.72316 351.07075,1467.6995 C352.401757,1469.67584 354.115906,1470.664 356.21325,1470.664 Z M415.98725,1522.089 C409.533884,1522.089 404.31077,1519.99169 400.31775,1515.797 C396.32473,1511.60231 394.32825,1505.87504 394.32825,1498.615 C394.32825,1491.43563 396.344897,1485.72852 400.37825,1481.4935 C404.411603,1477.25848 409.614551,1475.141 415.98725,1475.141 C422.440616,1475.141 427.683896,1477.25848 431.71725,1481.4935 C435.750604,1485.72852 437.76725,1491.43563 437.76725,1498.615 C437.76725,1505.87504 435.750604,1511.60231 431.71725,1515.797 C427.683896,1519.99169 422.440616,1522.089 415.98725,1522.089 Z M415.98725,1510.594 C418.165261,1510.594 419.899577,1509.62601 421.19025,1507.69 C422.480923,1505.75399 423.12625,1502.72902 423.12625,1498.615 C423.12625,1494.50098 422.480923,1491.47601 421.19025,1489.54 C419.899577,1487.60399 418.165261,1486.636 415.98725,1486.636 C413.809239,1486.636 412.074923,1487.60399 410.78425,1489.54 C409.493577,1491.47601 408.84825,1494.50098 408.84825,1498.615 C408.84825,1502.72902 409.493577,1505.75399 410.78425,1507.69 C412.074923,1509.62601 413.809239,1510.594 415.98725,1510.594 Z" id="80%"></path>
        </g>
    </g>
</svg>