<svg xmlns="http://www.w3.org/2000/svg" data-name="Layer 1" viewBox="0 0 128 160" x="0px" y="0px"><title>miscellaneous 70 final</title><path d="M110,0H18A18.02043,18.02043,0,0,0,0,18v92a18.02043,18.02043,0,0,0,18,18h92a18.02043,18.02043,0,0,0,18-18V18A18.02043,18.02043,0,0,0,110,0Zm14,110a14,14,0,0,1-14,14H18A14,14,0,0,1,4,110V18A14,14,0,0,1,18,4h92a14,14,0,0,1,14,14Z"/><path d="M64,9a55,55,0,1,0,55,55A55.06227,55.06227,0,0,0,64,9Zm0,106a51,51,0,1,1,51-51A51,51,0,0,1,64,115Z"/><path d="M41.70032,83.32166l-7.86652-2.36L35.74866,76h-4.2876L27.26825,86.86426A4,4,0,0,0,29.684,92.08179l7.737,2.69556a3.99636,3.99636,0,0,0,5.04773-2.33716L48.81348,76H44.52594ZM38.737,91,31,88.30444l1.3891-3.59937,7.86652,2.36011Z"/><path d="M49.263,40.9823,55.73706,37,57,43.67786,53.78827,52h4.28754l2.65594-6.882a4.00053,4.00053,0,0,0,.19861-2.18347l-1.26294-6.67786a4.00009,4.00009,0,0,0-6.02606-2.66382L47.1673,37.5752a4.0002,4.0002,0,0,0-1.636,1.96692L40.72339,52h4.28754Z"/><path d="M98.07581,76h-4.2876L97,84.32214,95.73706,91,89.263,87.0177,85.01093,76H80.72339l4.80786,12.45789a4.0002,4.0002,0,0,0,1.636,1.96692l6.47406,3.9823a4.00012,4.00012,0,0,0,6.02606-2.66382l1.26294-6.67786a4.00053,4.00053,0,0,0-.19861-2.18347Z"/><path d="M71.46106,52h4.2876l-1.83313-4.74988,7.69708-2.799L84.52594,52h4.28754L82.46875,35.55981A3.99636,3.99636,0,0,0,77.421,33.22266l-7.737,2.69556a4,4,0,0,0-2.41577,5.21753ZM78.737,37l1.43494,3.71814-7.69708,2.799L71,39.69556Z"/><path d="M28,56a7.0079,7.0079,0,0,0-7,7v2a7.0079,7.0079,0,0,0,7,7h72a7.0079,7.0079,0,0,0,7-7V63a7.0079,7.0079,0,0,0-7-7Zm75,7v2a3,3,0,0,1-3,3H28a3,3,0,0,1-3-3V63a3,3,0,0,1,3-3h72A3,3,0,0,1,103,63Z"/></svg>
