<?xml version="1.0" encoding="UTF-8"?>
<svg width="172px" height="25px" viewBox="0 0 172 25" version="1.1" xmlns="http://www.w3.org/2000/svg" xmlns:xlink="http://www.w3.org/1999/xlink">
    <!-- Generator: Sketch 55.2 (78181) - https://sketchapp.com -->
    <title>bethesda-grayscale</title>
    <desc>Created with Sketch.</desc>
    <g id="PAGES" stroke="none" stroke-width="1" fill="none" fill-rule="evenodd" opacity="0.5">
        <g id="Artboard" transform="translate(-904.000000, -828.000000)" fill="#000000" fill-rule="nonzero">
            <g id="logos-copy" transform="translate(190.000000, 828.000000)">
                <g id="bethesda-grayscale" transform="translate(714.000000, 0.000000)">
                    <path d="M0,0 L0,10.7039835 L10.4927885,10.7039835 L10.4927885,0 L0,0 Z M6.79472871,6.93380838 L3.69462569,6.93380838 L3.69462569,3.77189217 L6.79472871,3.77189217 L6.79472871,6.93380838 Z M22.1784856,14.1337569 L26.9174966,14.1337569 C28.7023523,14.1337569 29.5608688,14.9214457 29.5608688,16.3671875 C29.5608688,18.254636 28.1902473,18.7014938 26.6092891,18.7014938 L22.1784856,18.7014938 L22.1784856,14.1337569 Z M14.6299794,24.5372596 L28.5310783,24.5372596 C32.8584306,24.5372596 37.1136676,21.9943338 37.1136676,17.0866243 C37.1136676,13.4825721 35.0540865,11.7329155 32.8584306,10.9752747 C34.6793441,9.98240041 35.8761161,8.64096841 35.8761161,6.17101648 C35.8761161,3.66286058 34.5067823,0.026614011 28.0515968,0.026614011 L14.6299794,0.026614011 L14.6299794,24.5372596 Z M22.1784856,5.86023352 L26.1624313,5.86023352 C27.7073317,5.86023352 28.7358345,6.30666209 28.7358345,7.54335508 C28.7358345,9.12302541 27.7408139,9.56945398 26.1624313,9.56945398 L22.1784856,9.56945398 L22.1784856,5.86023352 Z M44.3496738,13.6195055 C44.6613152,11.6977163 45.8258929,10.6335852 47.8545673,10.6335852 C49.6029361,10.6335852 50.8379121,11.9711538 50.8379121,13.622081 L44.3509615,13.622081 L44.3496738,13.6195055 Z M57.3622081,17.1548764 C57.3622081,10.2223558 54.3054602,6.27275069 47.2347184,6.27275069 C41.600704,6.27275069 37.8266655,10.4966518 37.8266655,15.6808036 C37.8266655,21.6174451 42.1192479,24.9828297 47.8189389,24.9828297 C51.8668441,24.9828297 55.611693,23.1971154 56.9823146,19.3505323 L50.6335852,19.3505323 C50.0837054,20.2090488 48.8809238,20.6207074 47.7798764,20.6207074 C45.6563359,20.6207074 44.4887534,19.1766827 44.3157624,17.1531593 L57.3609203,17.1523008 L57.3622081,17.1548764 Z M65.8821257,1.2942136 L59.0826751,1.2942136 L59.0826751,6.72046703 L56.0619849,6.72046703 L56.0619849,10.9074519 L59.0826751,10.9074519 L59.0826751,19.4239354 C59.0826751,24.296875 62.2763565,24.7424451 65.1609718,24.7424451 C66.6011332,24.7424451 68.1481799,24.5376889 69.5209478,24.5376889 L69.5209478,19.3848729 C69.0045501,19.4578468 68.490728,19.4900412 67.9739011,19.4900412 C66.2594437,19.4900412 65.8799794,18.7688874 65.8799794,17.1222527 L65.8799794,10.9065934 L69.5200893,10.9065934 L69.5200893,6.72046703 L65.8782624,6.72046703 L65.8782624,1.29464286 L65.8821257,1.2942136 Z M70.6490385,24.5372596 L77.4454842,24.5372596 L77.4454842,15.1304945 C77.4454842,12.2802198 78.9899554,11.6947115 80.1592548,11.6947115 C82.1480082,11.6947115 82.3888221,13.138307 82.3888221,15.1970295 L82.3888221,24.5372596 L89.1891312,24.5372596 L89.1891312,12.3128434 C89.1891312,8.22802198 86.2667411,6.27189217 83.0726305,6.27189217 C80.1923077,6.27189217 78.6787431,7.26991758 77.5111607,8.64053915 L77.4437672,8.64053915 L77.4437672,0.026614011 L70.6486092,0.026614011 L70.6490385,24.5372596 Z M96.5912603,13.6195055 C96.8990385,11.6977163 98.0687672,10.6335852 100.095725,10.6335852 C101.847098,10.6335852 103.079069,11.9711538 103.079069,13.622081 L96.5916896,13.622081 L96.5912603,13.6195055 Z M109.602936,17.1548764 C109.602936,10.2223558 106.55091,6.27275069 99.4754464,6.27275069 C93.8435783,6.27275069 90.0669643,10.4966518 90.0669643,15.6808036 C90.0669643,21.6174451 94.3595467,24.9828297 100.062672,24.9828297 C104.107572,24.9828297 107.855426,22.8700206 109.223472,19.0247253 L102.876889,19.0247253 C102.330014,19.8828125 101.125086,20.6194196 100.024038,20.6194196 C97.8983516,20.6194196 96.7290522,19.1758242 96.5599245,17.1531593 L109.604653,17.1531593 L109.602936,17.1548764 Z M126.704584,11.9024725 C126.537174,7.3385989 121.900326,6.2736092 118.055031,6.2736092 C114.484032,6.2736092 109.642428,7.44119162 109.642428,11.9389595 C109.642428,14.9931319 111.735491,16.6419128 116.920072,17.5339114 C120.078554,18.0825034 120.662345,18.3915694 120.662345,19.4235062 C120.662345,20.453726 119.255666,20.7971326 118.364955,20.7971326 C117.539492,20.7971326 116.889166,20.586796 116.544471,20.2803056 C116.027644,19.8364526 115.756353,19.6488668 115.722871,19.0277301 L109.23635,19.0277301 C109.335938,23.6298077 113.939303,24.9862637 118.123712,24.9862637 C122.449777,24.9862637 127.191363,23.6448317 127.191363,18.7010646 C127.191363,15.7816793 125.198747,14.4436813 122.932263,13.721669 C120.66578,12.9678915 118.094523,12.8300996 116.960422,12.3471841 C116.585251,12.1771978 116.172734,11.938101 116.172734,11.4208448 C116.172734,10.2554087 117.269488,10.0502232 118.232315,10.0502232 C118.781336,10.0502232 119.332933,10.2214973 119.73987,10.5653331 C120.190161,10.872682 120.496223,11.3186813 120.533568,11.9024725 L126.70716,11.9007555 L126.704584,11.9024725 Z M146.750515,0.026614011 L139.955357,0.026614011 L139.955357,8.67616758 L139.885388,8.67616758 C138.856456,7.16432005 137.035113,6.2736092 135.010302,6.2736092 C129.035886,6.2736092 127.422734,11.3560268 127.422734,15.5421532 C127.422734,20.0064389 129.859633,24.9858345 134.907709,24.9858345 C138.238753,24.9858345 139.265968,23.7139423 140.125773,22.5785543 L140.1966,22.5785543 L140.1966,24.5372596 L146.752232,24.5372596 L146.752232,0.028331044 L146.750515,0.026614011 Z M140.195742,15.6121223 C140.195742,17.7378091 139.646291,20.0394918 137.212397,20.0394918 C134.773352,20.0394918 134.221755,17.7378091 134.221755,15.6121223 C134.221755,13.5182005 134.771205,11.2165179 137.21068,11.2165179 C139.642857,11.2165179 140.194025,13.5182005 140.194025,15.6121223 L140.195742,15.6121223 Z M159.580185,18.1855254 C159.475876,20.0394918 158.277387,20.964114 156.729481,20.964114 C155.49794,20.964114 154.60079,20.142943 154.60079,19.321772 C154.60079,18.1168441 155.390196,17.7378091 156.900326,17.3974073 C157.831817,17.1870707 158.75558,16.9492617 159.579756,16.537603 L159.579756,18.1859547 L159.580185,18.1855254 Z M166.104911,13.2417582 C166.104911,9.81026786 166.16887,6.27189217 157.655391,6.27189217 C153.433637,6.27189217 148.697201,7.09606799 148.491157,12.107658 L154.804688,12.107658 C154.842033,11.354739 155.257555,10.2884615 157.347184,10.2884615 C158.449948,10.2884615 159.580185,10.7370364 159.580185,11.9393887 C159.580185,13.0730598 158.651271,13.346068 157.727507,13.5190591 C154.257812,14.1711023 147.670845,13.9629121 147.670845,19.5973558 C147.670845,23.3374828 150.51511,24.9854052 153.951751,24.9854052 C156.152129,24.9854052 158.241758,24.5020604 159.684495,22.8554258 L159.753606,22.8554258 C159.718836,23.3370536 159.820141,24.0594952 159.99399,24.5381181 L166.929087,24.5381181 C166.171875,23.4053056 166.107916,21.8947459 166.107916,20.5546016 L166.107916,13.2443338 L166.104911,13.2417582 Z M168.089372,9.49004121 L167.572974,9.49004121 L167.572974,7.38753434 L166.783568,7.38753434 L166.783568,6.94153503 L168.855598,6.94153503 L168.855598,7.38753434 L168.091089,7.38753434 L168.091089,9.48961195 L168.089372,9.49004121 Z M169.645003,9.49004121 L169.159942,9.49004121 L169.159942,6.94196429 L169.968664,6.94196429 L170.429258,8.7006353 L170.892857,6.94239354 L171.703297,6.94239354 L171.703297,9.49047047 L171.211796,9.49047047 L171.211796,7.45836195 L170.657624,9.49004121 L170.194025,9.49004121 L169.64715,7.45879121 L169.648008,9.4921875 L169.645003,9.49004121 Z" id="Shape"></path>
                </g>
            </g>
        </g>
    </g>
</svg>