<svg xmlns="http://www.w3.org/2000/svg" xmlns:xlink="http://www.w3.org/1999/xlink" version="1.1" x="0px" y="0px" viewBox="0 0 128 160" style="enable-background:new 0 0 128 128;" xml:space="preserve"><g><g><path d="M15.086,77.048C7.87,77.048,2,71.195,2,64s5.87-13.048,13.086-13.048S28.172,56.805,28.172,64    S22.302,77.048,15.086,77.048z M15.086,54.952C10.076,54.952,6,59.011,6,64s4.076,9.048,9.086,9.048    c5.01,0,9.086-4.059,9.086-9.048S20.096,54.952,15.086,54.952z"/><path d="M112.914,77.048c-7.216,0-13.086-5.853-13.086-13.048s5.87-13.048,13.086-13.048S126,56.805,126,64    S120.13,77.048,112.914,77.048z M112.914,54.952c-5.01,0-9.086,4.059-9.086,9.048s4.076,9.048,9.086,9.048S122,68.989,122,64    S117.924,54.952,112.914,54.952z"/><g><path d="M92.927,66.017C92.927,66.017,92.927,66.017,92.927,66.017L26.172,66c-1.104,0-2-0.896-2-2s0.896-2,2-2h0l66.755,0.017     c1.104,0,1.999,0.896,1.999,2S94.031,66.017,92.927,66.017z"/><path d="M84.4,74.514c-0.513,0-1.026-0.196-1.417-0.588c-0.779-0.782-0.777-2.049,0.005-2.828l7.105-7.08l-7.14-7.114     c-0.782-0.779-0.784-2.046-0.005-2.828c0.779-0.783,2.046-0.785,2.829-0.005l8.561,8.531c0.376,0.375,0.588,0.885,0.588,1.417     s-0.212,1.042-0.588,1.417l-8.526,8.497C85.422,74.319,84.911,74.514,84.4,74.514z"/></g><path d="M112.914,36.096c-7.216,0-13.086-5.853-13.086-13.048S105.698,10,112.914,10S126,15.853,126,23.048    S120.13,36.096,112.914,36.096z M112.914,14c-5.01,0-9.086,4.059-9.086,9.048s4.076,9.048,9.086,9.048S122,28.037,122,23.048    S117.924,14,112.914,14z"/><path d="M112.914,118c-7.216,0-13.086-5.853-13.086-13.048s5.87-13.048,13.086-13.048S126,97.757,126,104.952    S120.13,118,112.914,118z M112.914,95.904c-5.01,0-9.086,4.059-9.086,9.048s4.076,9.048,9.086,9.048s9.086-4.059,9.086-9.048    S117.924,95.904,112.914,95.904z"/><g><path d="M24.065,59.523c-0.761,0-1.489-0.438-1.823-1.176c-0.455-1.006-0.008-2.191,0.998-2.646l68.756-31.094     c1.008-0.455,2.191-0.008,2.646,0.998s0.008,2.191-0.998,2.646L24.888,59.345C24.621,59.466,24.341,59.523,24.065,59.523z"/><path d="M87.804,39.357c-0.279,0-0.563-0.059-0.833-0.183c-1.004-0.461-1.444-1.648-0.983-2.652l4.179-9.105l-9.185-4.187     c-1.006-0.458-1.449-1.644-0.991-2.649c0.459-1.005,1.646-1.448,2.649-0.99l11.01,5.018c0.483,0.22,0.859,0.624,1.045,1.122     s0.165,1.049-0.057,1.532l-5.016,10.928C89.286,38.924,88.561,39.357,87.804,39.357z"/></g><g><path d="M92.819,103.689c-0.276,0-0.558-0.058-0.826-0.18L23.237,72.285c-1.005-0.457-1.451-1.642-0.994-2.648     c0.456-1.006,1.642-1.451,2.648-0.994l68.756,31.225c1.006,0.457,1.45,1.642,0.994,2.648     C94.307,103.253,93.579,103.689,92.819,103.689z"/><path d="M81.812,108.707c-0.76,0-1.485-0.435-1.821-1.171c-0.458-1.005-0.015-2.191,0.991-2.649l9.185-4.186l-4.179-9.105     c-0.461-1.004-0.021-2.191,0.983-2.652c1.002-0.46,2.191-0.02,2.651,0.983l5.016,10.928c0.222,0.483,0.242,1.034,0.057,1.532     s-0.562,0.902-1.045,1.122l-11.01,5.018C82.371,108.648,82.089,108.707,81.812,108.707z"/></g></g></g></svg>
