<?xml version="1.0" encoding="UTF-8"?>
<svg width="898px" height="177px" viewBox="0 0 898 177" version="1.1" xmlns="http://www.w3.org/2000/svg" xmlns:xlink="http://www.w3.org/1999/xlink">
    <!-- Generator: Sketch 55.2 (78181) - https://sketchapp.com -->
    <title>gameloft</title>
    <desc>Created with Sketch.</desc>
    <g id="PAGES" stroke="none" stroke-width="1" fill="none" fill-rule="evenodd">
        <g id="Artboard" transform="translate(-447.000000, -812.000000)" fill="#1B1918">
            <g id="gameloft" transform="translate(447.000000, 812.000000)">
                <path d="M388.482736,67.5427425 C393.371987,63.8799825 400.422801,65.1009025 406.238436,65.6096191 C409.841042,65.9148491 411.539414,68.0514591 412.517264,70.7476574 L440,138 L418.590228,138 C417.303583,133.065448 415.862541,127.164335 414.061238,122.331527 C404.900326,122.484142 395.739414,122.382399 386.578502,122.331527 L381.380456,138 L361,138 C370.521173,114.700777 379.115961,90.8928372 388.482736,67.5427425 L388.482736,67.5427425 Z M392,109 C397.333333,108.949495 402.666667,109 408,109 C406.871795,100.464646 403.128205,92.1313131 400.051282,84 C396.974359,92.0808081 392.717949,100.414141 392,109 Z M780.039072,73.5545686 C779.936094,68.8427564 784.982,65.8535422 789.307062,66.0055362 L885.539701,66.1068655 C892.181761,68.3361099 896.197891,75.1758373 898,81.5595829 L865.150121,81.4582536 L865.047144,138 L846.871584,138 L846.356695,80.394296 C830.549622,80.5462899 814.742549,80.4956253 798.935475,80.4956253 C796.103589,81.7115768 795.64019,95.9990074 802.127783,96.4549892 L820.509298,96.1510013 L820.509298,108.462511 C815,107.955864 809.490687,108.057193 803.981381,108.107858 C800.789073,107.854535 798.008676,110.843749 798.163143,113.883628 L798.317609,137.949335 L780.142049,137.949335 C780.245027,116.720848 779.884605,94.8337205 780.039072,73.5545686 L780.039072,73.5545686 Z M710.840375,66.3221136 C720.426687,65.7676198 730.064538,66.2212965 739.65085,66.0700709 C744.85632,66.170888 750.577184,65.213126 755.215722,68.1872291 C762.534304,72.6735879 766.245134,81.4446715 765.987437,89.7116699 C765.83282,99.2388814 766.193595,108.766093 765.78128,118.242896 C765.214348,127.870924 757.071137,137.448544 746.917893,137.750996 C734.445379,138.406306 721.921327,137.549361 709.448814,137.650179 C698.831716,137.24691 694.193178,125.350498 693.162392,116.529006 C693.26547,105.79199 692.750077,95.0549737 693.162392,84.3179575 C693.574706,75.1436057 701.51176,67.229467 710.840375,66.3221136 L710.840375,66.3221136 Z M718.567183,81.3445258 C715.419367,82.6832751 712.423864,85.559107 712.576178,89.1786885 C712.27155,97.1120179 711.916152,104.995764 712.017694,112.929093 C711.86538,117.837841 716.079393,123.242421 721.461143,122.895338 C727.147521,122.845755 732.88467,123.292005 738.520277,122.647422 C742.32812,122.201172 746.389818,119.672423 746.694446,115.606592 C747.3037,107.127846 746.795988,98.5995172 746.897531,90.1207714 C747.151387,85.1128572 742.73429,80.898276 737.657166,81.0966093 C731.310762,81.2453592 724.862816,80.6503595 718.567183,81.3445258 L718.567183,81.3445258 Z M634.024116,65.7161878 C640.108418,64.6419061 646.45053,65.8185004 652.637957,65 C652.947328,82.1373511 652.637957,99.3258584 652.792642,116.514366 C652.792642,120.044149 656.350412,123.113525 659.856621,122.49965 C667.126847,122.192712 674.448635,122.704275 681.71886,121.988087 C684.142269,127.819902 685.895373,131.196216 691,138 L639.541238,138 C635.674096,137.948844 633.86943,133.395936 634.230363,130.070778 C634.178801,108.6363 633.920992,87.201822 634.024116,65.7161878 L634.024116,65.7161878 Z M558.022899,75.6692308 C557.765287,70.8706294 561.629465,66.020979 566.472569,65.3573427 L620.364974,65 L620.416497,80.0594406 C606.556978,79.9062937 592.645936,79.0384615 578.734894,79.7020979 C574.561582,84.0412587 574.664626,95.1699301 582.805162,94.3531469 L616.449274,94.2 L616.449274,108.28951 L582.392983,108.28951 C574.613104,108.187413 573.118955,118.856643 579.250118,122.072727 L620.828676,121.766434 C620.674109,127.330769 621.086288,132.384615 620.983243,138 L566.472569,137.591608 C562.247734,137.744755 557.765287,134.528671 558.022899,130.036364 C557.971376,111.862937 558.022899,93.7916084 558.022899,75.6692308 Z M449.310577,75.1453997 C449.414102,63.1185157 468.928663,63.016593 471.620327,68.4694599 C479.384741,80.3434598 487.304444,92.2174597 495.120621,104.040498 C496.311164,105.773185 498.433437,104.193382 499.158116,102.817425 C506.301377,91.5040004 513.341113,80.1396143 520.587899,68.8771509 C522.968986,64.8512024 544.657584,60.6723698 543.984668,76.0627044 L543.674091,138.133657 L525.298311,138.133657 L524.780683,90.6376571 L496.725266,139 L468.773375,92.4213052 L468.514561,138.184618 L449,138.184618 C449.258814,117.341417 448.792949,95.9886013 449.310577,75.1453997 L449.310577,75.1453997 Z M303.85334,65.5620366 C319.922003,64.9489058 336.042003,65.9707905 352.059328,65 C352.110666,70.3138008 352.264679,75.5765074 352.007991,80.8903083 C341.84315,80.3282716 306.933595,77.1604288 304.931429,86.81724 C303.85334,92.0288523 303.083276,113.69281 306.214869,117.67816 C310.270538,122.889773 333.680474,125.444485 333.731812,117.67816 C333.9885,111.597946 335.323277,105.108977 331.01092,99.9995536 C338.506207,99.6929882 345.950156,99.8973651 353.445443,99.7440824 C354.523532,108.583386 353.650793,117.524878 353.907481,126.415275 C354.164169,131.524699 350.621876,138.575704 344.769392,137.962573 L306.574232,137.962573 C300.721748,138.16695 295.023276,135.101296 291.12162,130.911568 C286.090537,124.882448 284.858435,116.758464 285.012448,109.196517 C285.269136,100.459402 284.858435,91.7222869 285.217798,83.0362663 C285.782512,73.4816436 294.612576,66.1240733 303.85334,65.5620366 Z M100.484033,0.46300898 C130.980001,0.261236985 161.533726,0.145938703 192.000814,1.70246552 C201.126502,2.25013236 210.338825,3.25899233 219.031331,6.25674768 C228.128139,9.71569616 236.214191,16.0859263 241.239095,24.4738763 C245.917454,32.3141595 249.007481,41.1056536 250.278146,50.1565688 C251.779841,59.4380805 251.288903,68.8637151 251.375539,78.2317006 C251.462175,91.3180557 251.548811,104.433235 251.548811,117.51959 C251.086751,132.825437 248.632057,149.082495 239.361976,161.736482 C234.85689,167.501396 228.792351,172.170976 222.0636,175.082258 C218.771422,176.782908 215.479244,174.361644 213.313337,172.026853 C212.851277,170.643274 214.468487,169.720888 215.248214,168.798502 C223.189872,161.736482 228.301412,151.820829 230.294046,141.472809 C232.171165,131.384209 232.488832,121.122662 232.575468,110.889939 C232.228923,97.2270927 231.940135,83.506597 230.034137,69.9590488 C229.05226,62.7817307 226.972989,55.5755881 222.698933,49.6665511 C218.511513,44.3340055 213.024549,39.6644251 206.353557,37.9061263 C201.530804,36.4937223 196.477022,37.0413891 191.538754,36.6954943 C156.277792,35.7154589 120.987951,34.9083709 85.6981096,35.6866343 C74.8974545,36.4937223 63.8657693,34.3895286 53.2961442,37.185512 C43.6217606,39.4626531 37.7304941,49.4359545 36.7774951,58.7751154 C35.7956174,72.5244356 36.2865563,86.3314049 35.9688899,100.138374 C35.9688899,109.275763 37.2973128,119.191415 43.7372756,126.224611 C47.4626353,131.441858 53.7582043,134.209017 60.0826521,134.266666 C94.1307067,135.99614 128.265398,135.506122 162.37121,135.794368 C167.020689,135.563772 171.843442,136.342035 176.377407,135.073754 C181.575583,132.911911 184.376822,127.002874 184.347944,121.583855 C184.405701,116.308958 184.810004,110.889939 183.27943,105.78799 C182.384188,102.790235 179.09201,101.320182 176.146377,101.493129 C141.405232,102.184919 106.635208,102.559638 71.865185,103.13613 C65.800646,102.876708 59.3606832,105.499744 56.4439287,111.062887 C52.1121151,110.544044 47.6647865,110.284623 43.4773668,109.073991 C42.7842766,97.1117944 42.4666103,85.120773 42.8420341,73.1585762 C43.3907305,62.8393799 52.8340841,54.307307 63.1149216,54.3649561 C103.689575,53.2696224 144.293108,52.7796047 184.867761,53.9325875 C195.610659,54.6532018 207.422071,57.1032903 214.728396,65.6930124 C220.388633,71.7749968 223.594175,79.7305783 224.547174,87.9167563 C225.991111,99.9366023 225.3269,112.042922 225.442415,124.120417 C225.09587,132.306595 225.038112,140.72337 221.976964,148.448355 C217.240848,161.967078 204.591952,171.738608 190.672392,174.27517 C184.20355,175.514627 177.619193,175.341679 171.063715,175.6011 C124.02022,176.811732 76.8900887,176.840557 29.9621085,173.468082 C20.6053912,173.237485 12.5193392,167.155501 8.12976813,159.171095 C2.58504678,149.168969 1.57429028,137.408544 1.08335141,126.195786 C1.02559389,100.167199 0.361382481,74.1386116 0.27474621,48.1100243 C0.650170052,38.7132142 1.83419909,28.8263865 7.23452666,20.8419804 C12.8658843,11.7910652 22.8290555,6.4296951 33.0232567,4.15255402 C55.3465359,1.06832496 77.9874815,1.21244782 100.484033,0.46300898 Z" id="Shape"></path>
            </g>
        </g>
    </g>
</svg>