<?xml version="1.0" encoding="UTF-8"?>
<svg width="127px" height="25px" viewBox="0 0 127 25" version="1.1" xmlns="http://www.w3.org/2000/svg" xmlns:xlink="http://www.w3.org/1999/xlink">
    <!-- Generator: Sketch 55.2 (78181) - https://sketchapp.com -->
    <title>gameloft-grayscale</title>
    <desc>Created with Sketch.</desc>
    <g id="PAGES" stroke="none" stroke-width="1" fill="none" fill-rule="evenodd" opacity="0.5">
        <g id="Artboard" transform="translate(-370.000000, -828.000000)" fill="#191919" fill-rule="nonzero">
            <g id="logos-copy" transform="translate(190.000000, 828.000000)">
                <g id="gameloft-grayscale" transform="translate(180.000000, 0.000000)">
                    <path d="M54.8704429,9.53993538 C55.5610151,9.0225964 56.5568928,9.19504273 57.3783102,9.26689535 C57.8871528,9.31000694 58.1270359,9.61178801 58.2651503,9.99260698 L62.1468927,19.4915254 L59.1229136,19.4915254 C58.941184,18.7945548 58.737647,17.9610643 58.4832257,17.2784643 C57.1893116,17.3000201 55.8953975,17.2856496 54.6014833,17.2784643 L53.867296,19.4915254 L50.9887006,19.4915254 C52.333499,16.2006747 53.5474521,12.8379714 54.8704429,9.53993538 L54.8704429,9.53993538 Z M55.3672316,15.3954802 C56.1205273,15.3883468 56.873823,15.3954802 57.6271186,15.3954802 C57.4677677,14.1899218 56.939012,13.0128973 56.5044184,11.8644068 C56.0698247,13.0057639 55.4686369,14.1827883 55.3672316,15.3954802 Z M110.17501,10.3890634 C110.160465,9.72355316 110.873164,9.30134777 111.484048,9.32281585 L125.076229,9.3371279 C126.014373,9.65199292 126.581623,10.6180561 126.836158,11.5197151 L122.196345,11.5054031 L122.1818,19.4915254 L119.614631,19.4915254 L119.541906,11.3551266 C117.309269,11.3765946 115.076631,11.3694386 112.843994,11.3694386 C112.44401,11.5411832 112.378558,13.5591818 113.294885,13.623586 L115.891144,13.5806499 L115.891144,15.3195637 C115.112994,15.2480034 114.334843,15.2623154 113.556692,15.2694715 C113.105801,15.2336914 112.71309,15.6558968 112.734907,16.0852582 L112.756724,19.4843694 L110.189555,19.4843694 C110.2041,16.4859955 110.153193,13.3945933 110.17501,10.3890634 L110.17501,10.3890634 Z M100.401183,9.36753017 C101.755182,9.28921184 103.11646,9.35329047 104.470459,9.33193092 C105.205695,9.34617062 106.013727,9.2108935 106.668887,9.63096456 C107.702585,10.2646311 108.226714,11.5034847 108.190316,12.6711398 C108.168477,14.0167912 108.219434,15.3624425 108.161198,16.700974 C108.081123,18.060865 106.930952,19.4136362 105.496878,19.4563554 C103.735223,19.5489133 101.966289,19.4278758 100.204635,19.4421157 C98.7050446,19.3851568 98.0498839,17.7048726 97.9042927,16.4588992 C97.9188517,14.9423715 97.8460561,13.4258437 97.9042927,11.909316 C97.9625291,10.6135036 99.0835819,9.49568743 100.401183,9.36753017 L100.401183,9.36753017 Z M101.49254,11.4893398 C101.047933,11.6784287 100.62484,12.0846196 100.646353,12.59586 C100.603326,13.7163867 100.553129,14.8299102 100.567471,15.9504369 C100.545958,16.6437629 101.141157,17.4071216 101.901291,17.3580986 C102.704452,17.3510953 103.514784,17.414125 104.310774,17.3230822 C104.848605,17.2600525 105.422291,16.9028846 105.465317,16.3286147 C105.55137,15.1310517 105.479659,13.9264855 105.494002,12.7289225 C105.529857,12.02159 104.905973,11.4263102 104.188865,11.4543233 C103.292481,11.4753332 102.381754,11.3912937 101.49254,11.4893398 L101.49254,11.4893398 Z M89.5514288,9.28194743 C90.4107935,9.13021273 91.306572,9.29639836 92.1805024,9.18079096 C92.2241989,11.6013208 92.1805024,14.029076 92.2023506,16.4568314 C92.2023506,16.9553883 92.7048605,17.388916 93.2000877,17.3022105 C94.2269558,17.2588576 95.2611066,17.3311123 96.2879746,17.2299558 C96.630264,18.0536585 96.8778775,18.530539 97.5988701,19.4915254 L90.3306833,19.4915254 C89.7844768,19.4843 89.5295805,18.8412339 89.5805597,18.3715788 C89.573277,15.3441102 89.5368633,12.3166415 89.5514288,9.28194743 L89.5514288,9.28194743 Z M78.8167936,10.6877445 C78.7804078,10.0099759 79.3261956,9.32499703 80.0102499,9.23126309 L87.6221715,9.18079096 L87.6294487,11.3078306 C85.6718895,11.2861997 83.7070531,11.1636245 81.7422167,11.2573585 C81.1527658,11.8702343 81.1673201,13.4420805 82.3171133,13.3267157 L87.0691065,13.3050847 L87.0691065,15.2951285 L82.2588959,15.2951285 C81.1600429,15.2807081 80.9490049,16.7876614 81.8149884,17.2419106 L87.6876661,17.1986489 C87.6658346,17.9845719 87.724052,18.6983919 87.7094976,19.4915254 L80.0102499,19.4338429 C79.4135218,19.4554739 78.7804078,19.0012247 78.8167936,18.3667181 C78.8095164,15.7998499 78.8167936,13.2474023 78.8167936,10.6877445 Z M63.4619459,10.613757 C63.4765681,8.91504459 66.232862,8.90064873 66.6130405,9.67082767 C67.7097092,11.3479463 68.8283113,13.0250649 69.9322911,14.6949856 C70.1004469,14.9397154 70.400203,14.7165794 70.5025588,14.5222352 C71.5114939,12.9242938 72.5058069,11.3191546 73.5293643,9.72841114 C73.865676,9.15977435 76.9290373,8.56954376 76.8339927,10.7433198 L76.7901258,19.5104035 L74.1946767,19.5104035 L74.1215654,12.801929 L70.1589359,19.6327684 L66.2109287,13.0538567 L66.174373,19.5176014 L63.4180791,19.5176014 C63.4546347,16.5736465 63.3888346,13.557712 63.4619459,10.613757 L63.4619459,10.613757 Z M42.9171384,9.26017466 C45.1867236,9.17357427 47.4635597,9.31790826 49.7258938,9.18079096 C49.7331449,9.9313278 49.7548982,10.6746479 49.7186428,11.4251848 C48.2829308,11.3458011 43.3522027,10.8983656 43.0694109,12.262322 C42.9171384,12.9984255 42.8083723,16.0583065 43.2506877,16.621209 C43.8235223,17.3573126 47.1300105,17.7181476 47.1372616,16.621209 C47.1735169,15.7624218 47.3620448,14.8459007 46.7529548,14.1242307 C47.8116112,14.0809305 48.8630164,14.1097973 49.9216727,14.0881472 C50.0739452,15.3366364 49.950677,16.599559 49.9869323,17.8552648 C50.0231877,18.5769349 49.5228638,19.5728395 48.6962418,19.4862391 L43.3014452,19.4862391 C42.4748232,19.5151059 41.6699542,19.082104 41.1188729,18.4903345 C40.4082679,17.6387638 40.2342422,16.4913085 40.2559955,15.4232369 C40.2922508,14.1891811 40.2342422,12.9551253 40.2849997,11.7282862 C40.3647616,10.3787632 41.6119458,9.33955838 42.9171384,9.26017466 Z M14.19266,0.0653967486 C18.5000001,0.0368978792 22.815498,0.0206128112 27.118759,0.240461232 C28.407698,0.317815305 29.7088736,0.460309651 30.9366287,0.883721424 C32.2214886,1.37227347 33.3635863,2.27202349 34.0733185,3.45676219 C34.7341037,4.56414682 35.1705482,5.80588328 35.3500206,7.08426113 C35.5621244,8.39520911 35.4927829,9.72651343 35.5050196,11.0496752 C35.5172564,12.8980305 35.5294931,14.7504569 35.5294931,16.5988121 C35.4642304,18.7606549 35.1175222,21.0568496 33.8081887,22.8441359 C33.1718771,23.6583893 32.3153038,24.3179345 31.3649153,24.7291325 C30.8999184,24.9693373 30.4349215,24.6273508 30.1290024,24.2975781 C30.0637397,24.1021573 30.2921592,23.9718768 30.4022901,23.8415963 C31.5239932,22.8441359 32.2459621,21.4436199 32.5274076,19.9820352 C32.7925374,18.5570917 32.8374056,17.1077206 32.8496424,15.6624208 C32.8006953,13.7326402 32.7599061,11.7947171 32.4906973,9.88122158 C32.3520141,8.86747609 32.0583318,7.84965934 31.4546516,7.01504959 C30.8632081,6.26186518 30.0882131,5.60231993 29.1459826,5.35397264 C28.4648028,5.15448055 27.7509918,5.23183462 27.0534963,5.18297942 C22.0731345,5.04455634 17.0886936,4.93056086 12.1042528,5.04048507 C10.5787365,5.15448055 9.02058888,4.85727805 7.52770398,5.25219096 C6.16126562,5.57382106 5.32916583,6.98247945 5.19456145,8.30156997 C5.05587816,10.2435644 5.12521982,12.1937013 5.08035168,14.1438381 C5.08035168,15.4344298 5.26798203,16.8349456 6.1775813,17.8283349 C6.70376205,18.5652342 7.59296671,18.9560758 8.4862503,18.9642184 C13.2952976,19.2084944 18.1165816,19.1392828 22.9337867,19.1799955 C23.5904928,19.1474254 24.2716726,19.2573496 24.9120631,19.0782138 C25.6462688,18.7728688 26.041924,17.938259 26.0378452,17.1728609 C26.046003,16.4278189 26.1031079,15.6624208 25.8869251,14.9418065 C25.7604785,14.5183948 25.2954816,14.3107602 24.8794318,14.3351877 C19.9724904,14.4328982 15.0614701,14.4858246 10.1504499,14.56725 C9.29387655,14.5306085 8.38427729,14.9010938 7.97230631,15.6868484 C7.36046823,15.6135655 6.73231448,15.5769242 6.14087102,15.4059309 C6.04297692,13.7163551 5.9981088,12.0227081 6.05113476,10.3331322 C6.12863425,8.87561863 7.46244126,7.67052359 8.91453695,7.67866612 C14.6454202,7.52395797 20.3803825,7.45474643 26.1112657,7.6175971 C27.6286242,7.71937879 29.2969027,8.06543648 30.3288695,9.27867407 C31.128338,10.1377114 31.5810982,11.2613811 31.7157025,12.4176209 C31.9196484,14.1153393 31.8258333,15.8252715 31.842149,17.5311323 C31.793202,18.6873722 31.7850441,19.8761822 31.3526785,20.9672818 C30.6837356,22.8767059 28.8971684,24.2568655 26.9311288,24.615137 C26.0174506,24.7902016 25.0874566,24.7657739 24.1615417,24.8024153 C17.5169802,24.9734085 10.860182,24.9774798 4.23193623,24.5011415 C2.91036599,24.4685713 1.76826825,23.609534 1.14827233,22.4817931 C0.365119602,21.0690634 0.222357384,19.4079864 0.153015736,17.8242636 C0.144857894,14.1479095 0.0510427233,10.4715553 0.0388059619,6.79520117 C0.0918319282,5.46796811 0.259067668,4.07152352 1.0218258,2.94378254 C1.8172153,1.66540469 3.22444287,0.908149025 4.66430179,0.586518929 C7.81730733,0.150893356 11.015181,0.171249692 14.19266,0.0653967486 Z" id="Shape"></path>
                </g>
            </g>
        </g>
    </g>
</svg>