<?xml version="1.0" encoding="UTF-8"?>
<svg width="227px" height="179px" viewBox="0 0 227 179" version="1.1" xmlns="http://www.w3.org/2000/svg" xmlns:xlink="http://www.w3.org/1999/xlink">
    <!-- Generator: Sketch 55.2 (78181) - https://sketchapp.com -->
    <title>gear</title>
    <desc>Created with Sketch.</desc>
    <g id="Page-1" stroke="none" stroke-width="1" fill="none" fill-rule="evenodd">
        <g id="Icons" transform="translate(-111.000000, -379.000000)">
            <g id="gear" transform="translate(111.000000, 379.000000)">
                <path d="M105.340576,163.754247 L92.9974526,177.693786 L70.5276015,166.734507 L73.819791,148.92963 C71.0967572,146.230108 68.6706862,143.231518 66.5949282,139.98721 L48.4704761,139.821413 L42,115.673267 L58.0925696,106.184895 L58.579863,108.003499 C58.9335708,103.349692 59.8998568,98.8670873 61.3982715,94.6361354 L51.1399504,79.6967171 L67.2096406,60.545606 L83.074568,67.7676087 C86.4117211,65.6994741 90.0002819,63.9984596 93.7838514,62.7209641 L98.4285705,46 L123.428571,46 L128.181098,63.1091006 C131.738584,64.4011302 135.115076,66.0703771 138.262232,68.0684926 L154.788125,60.545606 L170.857816,79.6967171 L160.282954,95.0971162 L159.122391,93.7140119 C160.816213,98.2223594 161.901874,103.028309 162.27943,108.031916 L162.774337,106.184895 L178.866907,115.673267 L172.39643,139.821413 L154.262155,139.9873 C152.196083,143.216452 149.782975,146.202164 147.075427,148.891843 L147.386442,148.733373 L151.103238,167.041443 L128.828075,178.391206 L116.201214,164.623041 L118.711668,163.3439 C116.014281,163.775674 113.247623,164 110.428571,164 C108.711872,164 107.014604,163.916812 105.340576,163.754247 Z M109.928571,140 C125.668686,140 138.428571,127.240115 138.428571,111.5 C138.428571,95.7598846 125.668686,83 109.928571,83 C94.1884551,83 81.4285705,95.7598846 81.4285705,111.5 C81.4285705,127.240115 94.1884551,140 109.928571,140 Z" id="Combined-Shape" fill="#9D9D9D"></path>
                <path d="M102.340576,158.754247 L89.9974526,172.693786 L67.5276015,161.734507 L70.819791,143.92963 C68.0967572,141.230108 65.6706862,138.231518 63.5949282,134.98721 L45.4704761,134.821413 L39,110.673267 L55.0925696,101.184895 L55.579863,103.003499 C55.9335708,98.3496917 56.8998568,93.8670873 58.3982715,89.6361354 L48.1399504,74.6967171 L64.2096406,55.545606 L80.074568,62.7676087 C83.4117211,60.6994741 87.0002819,58.9984596 90.7838514,57.7209641 L95.4285705,41 L120.428571,41 L125.181098,58.1091006 C128.738584,59.4011302 132.115076,61.0703771 135.262232,63.0684926 L151.788125,55.545606 L167.857816,74.6967171 L157.282954,90.0971162 L156.122391,88.7140119 C157.816213,93.2223594 158.901874,98.0283086 159.27943,103.031916 L159.774337,101.184895 L175.866907,110.673267 L169.39643,134.821413 L151.262155,134.9873 C149.196083,138.216452 146.782975,141.202164 144.075427,143.891843 L144.386442,143.733373 L148.103238,162.041443 L125.828075,173.391206 L113.201214,159.623041 L115.711668,158.3439 C113.014281,158.775674 110.247623,159 107.428571,159 C105.711872,159 104.014604,158.916812 102.340576,158.754247 Z M106.928571,135 C122.668686,135 135.428571,122.240115 135.428571,106.5 C135.428571,90.7598846 122.668686,78 106.928571,78 C91.1884551,78 78.4285705,90.7598846 78.4285705,106.5 C78.4285705,122.240115 91.1884551,135 106.928571,135 Z" id="Combined-Shape" fill="#D8D8D8"></path>
                <path d="M52,7 C62.2294219,17.402214 72.8960886,17.402214 84,7 C72.9419188,17.4480443 72.9419188,28.1147109 84,39 C73.3333333,28.1605412 62.6666667,28.1605412 52,39 C62.6143682,28.1102521 62.1878742,17.452549 52,7 Z" id="Rectangle" fill="#FDE4FF" transform="translate(68.000000, 23.000000) rotate(-315.000000) translate(-68.000000, -23.000000) "></path>
                <path d="M183,79 C194.5081,90.7024908 206.5081,90.7024908 219,79 C206.559659,90.7540498 206.559659,102.75405 219,115 C207,102.805609 195,102.805609 183,115 C194.941164,102.749034 194.461359,90.7591177 183,79 Z" id="Rectangle" fill="#FAEDC1" transform="translate(201.000000, 97.000000) rotate(-315.000000) translate(-201.000000, -97.000000) "></path>
                <path d="M5,86 C12.0327276,93.1515221 19.3660609,93.1515221 27,86 C19.3975692,93.1830304 19.3975692,100.516364 27,108 C19.6666667,100.547872 12.3333333,100.547872 5,108 C12.2973782,100.513298 12.0041635,93.1861275 5,86 Z" id="Rectangle" fill="#FFFFFF" transform="translate(16.000000, 97.000000) rotate(-315.000000) translate(-16.000000, -97.000000) "></path>
            </g>
        </g>
    </g>
</svg>