<?xml version="1.0" encoding="UTF-8"?>
<svg width="120px" height="25px" viewBox="0 0 120 25" version="1.1" xmlns="http://www.w3.org/2000/svg" xmlns:xlink="http://www.w3.org/1999/xlink">
    <!-- Generator: Sketch 55.2 (78181) - https://sketchapp.com -->
    <title>grubhub-grayscale</title>
    <desc>Created with Sketch.</desc>
    <g id="PAGES" stroke="none" stroke-width="1" fill="none" fill-rule="evenodd" opacity="0.7">
        <g id="Artboard" transform="translate(-1130.000000, -828.000000)" fill="#5E5E5E" fill-rule="nonzero">
            <g id="logos-copy" transform="translate(190.000000, 828.000000)">
                <g id="grubhub-grayscale" transform="translate(940.000000, 0.000000)">
                    <path d="M100.452314,0.372455399 L96.2836809,0.372455399 C96.0486002,0.372455399 95.9312939,0.489948921 95.9312939,0.724842343 L95.9312939,17.2240222 C95.9312939,18.0461024 95.6670973,18.6624987 95.3146168,19.1324728 C94.9625107,19.6022596 94.4928174,19.7195659 93.9054435,19.7195659 C93.318444,19.7195659 92.8192603,19.4845789 92.466967,19.1324728 C92.1147673,18.6624987 91.8799675,18.0461024 91.8799675,17.2240222 L91.8799675,0.724842343 C91.8799675,0.489948921 91.6447932,0.372455399 91.5274869,0.372455399 L87.3291766,0.372455399 C87.0942832,0.372455399 86.9769769,0.489948921 86.9769769,0.724842343 L86.9769769,17.3416094 C86.9769769,19.4846725 87.4467637,21.5104293 88.7677467,22.8314122 C90.0595201,24.152676 91.8504771,24.8572627 93.9053498,24.8572627 C96.0485066,24.8572627 97.83937,24.1527697 99.0430466,22.8314122 C100.334914,21.5399197 100.834004,19.6316564 100.834004,17.3416094 L100.834004,0.724842343 C100.951404,0.607536063 100.716604,0.372455399 100.452314,0.372455399 L100.452314,0.372455399 Z M116.452778,12.0866063 C117.157271,11.3818324 118.478535,9.70846253 118.478535,7.53600264 C118.478535,5.01134304 117.509751,3.48467622 116.775768,2.63310565 C115.454598,1.22393235 113.692944,0.489948921 111.638071,0.489948921 L105.061804,0.489948921 C104.797608,0.489948921 104.680021,0.724842343 104.680021,0.842148624 L104.680021,24.152676 C104.680021,24.3874758 104.914914,24.505063 105.061804,24.505063 L112.019574,24.505063 C114.162731,24.505063 116.188394,23.6829828 117.509751,21.9802162 C118.214245,21.0407361 119.065534,19.4551821 119.065534,17.0774128 C118.830641,14.2296694 117.069174,12.5562059 116.452778,12.0866063 L116.452778,12.0866063 Z M109.524124,5.27525877 L111.667468,5.27525877 C112.254561,5.27525877 112.724161,5.39256505 113.076641,5.86244551 C113.458144,6.244042 113.575731,6.83132237 113.575731,7.56521218 C113.575731,8.29910199 113.458144,8.85679833 113.076641,9.35616921 C112.724161,9.70836891 112.254561,9.94326233 111.784774,9.94326233 L109.641711,9.94326233 L109.641711,5.27525877 L109.524124,5.27525877 Z M113.340744,19.0148856 C112.988357,19.4846725 112.518664,19.602166 111.784681,19.602166 L109.406818,19.602166 L109.406818,14.5523787 L111.784681,14.5523787 C112.371961,14.5523787 112.841654,14.8165753 113.193854,15.1691495 C113.575638,15.6387491 113.810531,16.2258422 113.810531,16.9598256 C113.927837,17.9286089 113.722434,18.5158892 113.340744,19.0148856 L113.340744,19.0148856 Z M28.3193427,14.1120823 C28.7890359,13.7598826 29.170726,13.5249891 29.5230194,13.0258991 C30.3450059,12.0865127 31.4311891,10.4128619 31.4311891,7.77070882 C31.4311891,5.24586198 30.4624058,3.60188888 29.5230194,2.63310565 C28.3193427,1.22393235 26.5283857,0.489948921 24.5027225,0.372455399 L17.5741623,0.372455399 C17.3392689,0.372455399 17.221869,0.607536063 17.221869,0.724842343 L17.221869,24.0060666 C17.221869,24.2408664 17.4567624,24.3582663 17.5741623,24.3582663 L21.7429822,24.3582663 C21.9778756,24.3582663 22.0953692,24.1232793 22.0953692,24.0060666 L22.0953692,15.4039493 L23.5339392,15.4039493 L26.1467892,24.2408664 C26.1467892,24.3582663 26.4109858,24.4756662 26.5284793,24.4756662 L30.9321927,24.4756662 C31.0495926,24.4756662 31.1670861,24.3582663 31.284486,24.3582663 C31.4018859,24.3582663 31.4018859,24.1232793 31.4018859,24.0060666 L28.3193427,14.1120823 Z M25.6770024,9.7962784 C25.324709,10.2663461 24.7375223,10.5302618 24.0035388,10.5302618 L21.977782,10.5302618 L21.977782,5.27525877 L24.0035388,5.27525877 C24.7081255,5.27525877 25.2952186,5.51015219 25.6770024,5.97984541 C26.1466956,6.47912267 26.2934923,7.06621579 26.2934923,7.88829596 C26.2934923,8.73958567 26.1760924,9.32658518 25.6770024,9.7962784 L25.6770024,9.7962784 Z M63.6372399,12.0866063 C64.3712234,11.3818324 65.6630904,9.70846253 65.6630904,7.53600264 C65.6630904,5.01134304 64.7236103,3.48467622 63.9896269,2.63310565 C62.6685503,1.22393235 60.8774997,0.489948921 58.8519301,0.489948921 L52.3048728,0.489948921 C52.0700729,0.489948921 51.9525794,0.724842343 51.9525794,0.842148624 L51.9525794,24.152676 C51.9525794,24.3874758 52.1875665,24.505063 52.3048728,24.505063 L59.2335266,24.505063 C61.3766833,24.505063 63.4024401,23.6829828 64.7528198,21.9802162 C65.4575001,21.0407361 66.3088834,19.4551821 66.3088834,17.0774128 C66.1621804,14.2296694 64.3712234,12.5562059 63.6372399,12.0866063 L63.6372399,12.0866063 Z M56.7379829,5.27525877 L58.8812332,5.27525877 C59.46842,5.27525877 59.9382068,5.39256505 60.2905002,5.86244551 C60.6426999,6.244042 60.760287,6.83132237 60.760287,7.56521218 C60.760287,8.29910199 60.6426999,8.85679833 60.2905002,9.35616921 C59.9381132,9.70836891 59.46842,9.94326233 58.9986331,9.94326233 L56.8553828,9.94326233 L56.8553828,5.27525877 L56.7379829,5.27525877 Z M60.672003,19.0148856 C60.3198969,19.4846725 59.8499229,19.602166 59.116033,19.602166 L56.7379829,19.602166 L56.7379829,14.5523787 L59.116033,14.5523787 C59.7031262,14.5523787 60.172913,14.8165753 60.5252063,15.1691495 C60.877406,15.6387491 61.1416963,16.2258422 61.1416963,16.9598256 C61.171093,17.9286089 61.0537868,18.5158892 60.672003,19.0148856 Z M6.91717222,0.0202556959 C4.77392187,0.0202556959 2.98315208,0.724842343 1.77947543,2.04582528 C0.487608412,3.36699546 0.0179151875,5.24586198 0.0179151875,7.53590902 L0.0179151875,17.458822 C0.0179151875,19.6022596 0.487608412,21.627642 1.77947543,22.9489994 C3.10055199,24.2702632 4.89141539,24.9748498 6.91717222,24.9748498 C9.06023532,24.9748498 10.8804019,24.2703568 12.0840786,22.9489994 C13.3759456,21.6571324 13.8456388,19.7488691 13.8456388,17.458822 L13.8456388,11.9981351 C13.8456388,11.7341257 13.6107454,11.4993259 13.3759456,11.4993259 L7.29876871,11.4993259 C7.03466574,11.4993259 6.79977232,11.7341257 6.79977232,11.9981351 L6.79977232,16.0497424 C6.79977232,16.2845422 7.03466574,16.5195292 7.29876871,16.5195292 L8.85483231,16.5195292 L8.85483231,17.4883124 C8.85483231,18.3103926 8.61993888,19.044376 8.26773918,19.5141629 C7.91525862,19.9839497 7.41635585,20.101256 6.82907548,20.101256 C6.24198235,20.101256 5.77219551,19.8664562 5.39059902,19.5141629 C5.0383057,19.044376 4.80350589,18.3104862 4.80350589,17.4883124 L4.80350589,7.68289294 C4.80350589,6.83132237 5.0383057,6.09733894 5.39059902,5.65676164 C5.77228913,5.18706841 6.24198235,5.06976213 6.82907548,5.06976213 C7.41635585,5.06976213 7.91535224,5.30465555 8.26773918,5.65676164 C8.6200325,6.12654848 8.85483231,6.83132237 8.85483231,7.68289294 L8.85483231,8.62227939 C8.85483231,8.85689195 9.08963211,9.00378226 9.20712563,9.00378226 L13.3760392,9.00378226 C13.610839,9.00378226 13.7283325,8.85689195 13.7283325,8.62227939 L13.7283325,7.68289294 C13.7283325,5.53945535 13.2586393,3.51379215 11.9375627,2.19271559 C10.8804955,0.724842343 8.94283542,0.0202556959 6.91717222,0.0202556959 Z M47.7838531,0.372455399 L43.6149396,0.372455399 C43.3800461,0.372455399 43.2625526,0.489948921 43.2625526,0.724842343 L43.2625526,17.2240222 C43.2625526,18.0461024 42.9984496,18.6624987 42.6461563,19.1324728 C42.2937694,19.6022596 41.8239825,19.7195659 41.2368894,19.7195659 C40.6497963,19.7195659 40.1506127,19.4845789 39.7984129,19.1324728 C39.4461196,18.6624987 39.2113198,18.0461024 39.2113198,17.2240222 L39.2113198,0.724842343 C39.2113198,0.489948921 38.9470296,0.372455399 38.8296297,0.372455399 L34.6608098,0.372455399 C34.4259164,0.372455399 34.3085165,0.489948921 34.3085165,0.724842343 L34.3085165,17.3416094 C34.3085165,19.4846725 34.8076065,21.5104293 36.0992862,22.8314122 C37.4203628,24.152676 39.2113198,24.8572627 41.236983,24.8572627 C43.3802334,24.8572627 45.2003999,24.1527697 46.3746798,22.8314122 C47.6957564,21.5399197 48.1654496,19.6316564 48.1654496,17.3416094 L48.1654496,0.724842343 C48.1361464,0.607536063 48.0186529,0.372455399 47.7838531,0.372455399 Z M82.8961601,0.372455399 L78.7273401,0.372455399 C78.4925403,0.372455399 78.3751404,0.607536063 78.3751404,0.724842343 L78.3751404,9.7962784 L74.2063205,9.7962784 L74.2063205,0.724842343 C74.2063205,0.489948921 73.9714271,0.372455399 73.8539336,0.372455399 L69.68502,0.372455399 C69.4501266,0.372455399 69.3328203,0.607536063 69.3328203,0.724842343 L69.3328203,24.0060666 C69.3328203,24.2408664 69.5677137,24.3582663 69.68502,24.3582663 L73.8539336,24.3582663 C74.0887334,24.3582663 74.2063205,24.1232793 74.2063205,24.0060666 L74.2063205,14.6994563 L78.3751404,14.6994563 L78.3751404,24.0060666 C78.3751404,24.2408664 78.6100339,24.3582663 78.7273401,24.3582663 L82.8961601,24.3582663 C83.1311471,24.3582663 83.2486406,24.1232793 83.2486406,24.0060666 L83.2486406,0.724842343 C83.2486406,0.607536063 83.1311471,0.372455399 82.8961601,0.372455399 L82.8961601,0.372455399 Z" id="Shape"></path>
                </g>
            </g>
        </g>
    </g>
</svg>