<?xml version="1.0" encoding="UTF-8"?>
<svg width="1457px" height="666px" viewBox="0 0 1457 666" version="1.1" xmlns="http://www.w3.org/2000/svg" xmlns:xlink="http://www.w3.org/1999/xlink">
    <!-- Generator: Sketch 55.2 (78181) - https://sketchapp.com -->
    <title>heroBanner-blue</title>
    <desc>Created with Sketch.</desc>
    <defs>
        <linearGradient x1="50%" y1="0%" x2="50%" y2="100%" id="linearGradient-1">
            <stop stop-color="#20A6FF" offset="0%"></stop>
            <stop stop-color="#2074FF" offset="32.3204066%"></stop>
            <stop stop-color="#0E57D1" offset="66.1321282%"></stop>
            <stop stop-color="#0041AD" offset="100%"></stop>
        </linearGradient>
    </defs>
    <g id="heroBanner-blue" stroke="none" stroke-width="1" fill="none" fill-rule="evenodd">
        <g id="heroBanner-magenta" fill-rule="nonzero">
            <rect id="Rectangle" fill="url(#linearGradient-1)" x="0.00681608227" y="0" width="1457" height="666"></rect>
            <path d="M1.00681608,45 L150.285887,45.6605269 L227.006816,46 C241.006816,47.3333333 248.006816,54.3333333 248.006816,67 C248.006816,79.6666667 241.006816,86.6666667 227.006816,88 L85.0068161,88 C73.1319669,90.2801836 67.1319669,97.2801836 67.0068161,109 C66.8816653,120.719816 72.8816653,128.05315 85.0068161,131 L167.006816,131 C177.197765,134.298197 182.197765,141.298197 182.006816,152 C181.815867,162.701803 176.815867,170.035137 167.006816,174 L21.0068161,174 C6.75000745,173.481004 -0.249992548,180.481004 0.00681608227,195 C0.263624713,209.518996 7.26362471,216.518996 21.0068161,216 L241.006816,216 C251.600649,220.096741 256.933983,227.430074 257.006816,238 C257.07965,248.569926 251.746316,255.903259 241.006816,260 L207.006816,260 C196.888632,263.593576 192.221965,270.593576 193.006816,281 C193.791667,291.406424 198.458334,298.073091 207.006816,301 L299.006816,302 C309.284857,304.089732 314.618191,311.089732 315.006816,323 C315.395442,334.910268 310.062108,342.243602 299.006816,345 L150.006816,345 C139.998053,346.441593 134.998053,353.441593 135.006816,366 C135.015579,378.558407 140.015579,385.558407 150.006816,387 L235.006816,387 C246.062042,389.182452 251.728709,396.849119 252.006816,410 C252.284924,423.150881 246.618257,430.484215 235.006816,432 L85.0068161,432 C77.0068161,431.333333 70.3401494,438.333333 65.0068161,453 C58.3401494,471.666667 36.6734827,480.333333 0.00681608227,479 L1.00681608,45 Z" id="Path-4" fill="#CFFFFB" opacity="0.0809151786"></path>
            <path d="M1142.01363,7.20592652e-07 L1291.2927,0.660527582 L1368.01363,1.00000072 C1382.01363,2.33333405 1389.01363,9.33333405 1389.01363,22.0000007 C1389.01363,34.6666674 1382.01363,41.6666674 1368.01363,43.0000007 L1226.01363,43.0000007 C1214.13878,45.2801843 1208.13878,52.2801843 1208.01363,64.0000007 C1207.88848,75.7198171 1213.88848,83.0531505 1226.01363,86.0000007 L1308.01363,86.0000007 C1318.20458,89.2981973 1323.20458,96.2981973 1323.01363,107.000001 C1322.82268,117.701804 1317.82268,125.035138 1308.01363,129.000001 L1162.01363,129.000001 C1147.75682,128.481005 1140.75682,135.481005 1141.01363,150.000001 C1141.27044,164.518997 1148.27044,171.518997 1162.01363,171.000001 L1382.01363,171.000001 C1392.60747,175.096742 1397.9408,182.430075 1398.01363,193.000001 C1398.08647,203.569927 1392.75313,210.90326 1382.01363,215.000001 L1348.01363,215.000001 C1337.89545,218.593577 1333.22878,225.593577 1334.01363,236.000001 C1334.79848,246.406425 1339.46515,253.073092 1348.01363,256.000001 L1440.01363,257.000001 C1450.29167,259.089733 1455.62501,266.089733 1456.01363,278.000001 C1456.40226,289.910269 1451.06892,297.243603 1440.01363,300.000001 L1291.01363,300.000001 C1281.00487,301.441594 1276.00487,308.441594 1276.01363,321.000001 C1276.0224,333.558408 1281.0224,340.558408 1291.01363,342.000001 L1376.01363,342.000001 C1387.06886,344.182453 1392.73552,351.84912 1393.01363,365.000001 C1393.29174,378.150882 1387.62507,385.484216 1376.01363,387.000001 L1226.01363,387.000001 C1218.01363,386.333334 1211.34697,393.333334 1206.01363,408.000001 C1199.34697,426.666668 1177.6803,435.333334 1141.01363,434.000001 L1142.01363,7.20592652e-07 Z" id="Path-4" fill="#CFFFFB" opacity="0.0809151786" transform="translate(1298.520124, 217.066667) rotate(180.000000) translate(-1298.520124, -217.066667) "></path>
            <path d="M174.363701,59.4468337 L193.824204,64.2462286 C194.543042,64.4235101 195.105134,64.9834017 195.285233,65.7015391 L200.192736,85.2699537 C200.461427,86.3413449 199.81071,87.427696 198.739319,87.6963869 C198.399515,87.7816052 198.043288,87.7760727 197.706295,87.6803431 L178.644823,82.2655592 C177.975445,82.0754092 177.453018,81.5510012 177.265403,80.880908 L171.958869,61.9278825 C171.66106,60.8642172 172.28191,59.7605245 173.345575,59.4627158 C173.677896,59.3696713 174.028639,59.3642 174.363701,59.4468337 Z" id="Rectangle" fill="#5CA9FF" opacity="0.607933408" transform="translate(186.068791, 73.572557) rotate(45.000000) translate(-186.068791, -73.572557) "></path>
            <path d="M17.3637017,334.861047 L36.8242046,339.660442 C37.5430428,339.837724 38.1051346,340.397615 38.2852341,341.115753 L43.1927367,360.684167 C43.4614276,361.755558 42.8107105,362.84191 41.7393194,363.1106 C41.3995158,363.195819 41.0432886,363.190286 40.7062953,363.094557 L21.6448239,357.679773 C20.9754457,357.489623 20.4530188,356.965215 20.2654038,356.295122 L14.9588696,337.342096 C14.6610609,336.278431 15.2819103,335.174738 16.3455755,334.876929 C16.6778969,334.783885 17.0286399,334.778414 17.3637017,334.861047 Z" id="Rectangle" fill="#5CA9FF" opacity="0.607933408" transform="translate(29.068791, 348.986771) rotate(45.000000) translate(-29.068791, -348.986771) "></path>
            <path d="M781.363702,40.8610475 L794.435352,44.0848084 C795.15419,44.26209 795.716282,44.8219815 795.896382,45.5401189 L799.192737,58.6841675 C799.461428,59.7555586 798.810711,60.8419098 797.73932,61.1106007 C797.399516,61.195819 797.043289,61.1902864 796.706296,61.0945569 L783.902673,57.4574373 C783.233295,57.2672874 782.710868,56.7428793 782.523253,56.0727862 L778.95887,43.3420963 C778.661061,42.278431 779.281911,41.1747383 780.345576,40.8769296 C780.677897,40.7838851 781.02864,40.7784137 781.363702,40.8610475 Z" id="Rectangle" fill="#5CA9FF" opacity="0.607933408" transform="translate(789.068791, 50.986771) rotate(45.000000) translate(-789.068791, -50.986771) "></path>
            <path d="M1077.36371,69.8610461 L1106.40749,77.0238918 C1107.12633,77.2011733 1107.68842,77.7610649 1107.86852,78.4792023 L1115.19274,107.684166 C1115.46143,108.755557 1114.81071,109.841909 1113.73932,110.110599 C1113.39952,110.195818 1113.04329,110.190285 1112.7063,110.094556 L1084.25805,102.013275 C1083.58868,101.823125 1083.06625,101.298717 1082.87863,100.628624 L1074.95887,72.3420949 C1074.66106,71.2784296 1075.28191,70.1747369 1076.34558,69.8769282 C1076.6779,69.7838837 1077.02864,69.7784123 1077.36371,69.8610461 Z" id="Rectangle" fill="#5CA9FF" opacity="0.607933408" transform="translate(1095.068790, 89.986769) rotate(45.000000) translate(-1095.068790, -89.986769) "></path>
            <path d="M1398.36371,372.861046 L1415.42839,377.069578 C1416.14723,377.24686 1416.70932,377.806752 1416.88942,378.524889 L1421.19274,395.684166 C1421.46143,396.755557 1420.81071,397.841909 1419.73932,398.110599 C1419.39952,398.195818 1419.04329,398.190285 1418.7063,398.094556 L1401.99152,393.346396 C1401.32214,393.156246 1400.79972,392.631838 1400.6121,391.961745 L1395.95887,375.342095 C1395.66106,374.27843 1396.28191,373.174737 1397.34558,372.876928 C1397.6779,372.783884 1398.02864,372.778413 1398.36371,372.861046 Z" id="Rectangle" fill="#5CA9FF" opacity="0.607933408" transform="translate(1408.568790, 385.486769) rotate(45.000000) translate(-1408.568790, -385.486769) "></path>
        </g>
    </g>
</svg>