<?xml version="1.0" encoding="UTF-8"?>
<svg width="1440px" height="636px" viewBox="0 0 1440 636" version="1.1" xmlns="http://www.w3.org/2000/svg" xmlns:xlink="http://www.w3.org/1999/xlink">
    <!-- Generator: Sketch 55.2 (78181) - https://sketchapp.com -->
    <title>PURPLE</title>
    <desc>Created with Sketch.</desc>
    <defs>
        <linearGradient x1="50.0000013%" y1="10.5480065%" x2="50%" y2="100%" id="linearGradient-1">
            <stop stop-color="#2C0083" offset="0%"></stop>
            <stop stop-color="#3600A1" offset="21.5398015%"></stop>
            <stop stop-color="#6C0AEA" offset="59.6679688%"></stop>
            <stop stop-color="#C78BFF" offset="100%"></stop>
        </linearGradient>
    </defs>
    <g id="PAGES" stroke="none" stroke-width="1" fill="none" fill-rule="evenodd">
        <g id="Homepage-Copy">
            <g id="PURPLE" transform="translate(-0.006816, -30.000000)">
                <rect id="Rectangle" fill="url(#linearGradient-1)" x="0.00681608227" y="28" width="1441" height="638"></rect>
                <path d="M1.00681608,45 L150.285887,45.6605269 L227.006816,46 C241.006816,47.3333333 248.006816,54.3333333 248.006816,67 C248.006816,79.6666667 241.006816,86.6666667 227.006816,88 L85.0068161,88 C73.1319669,90.2801836 67.1319669,97.2801836 67.0068161,109 C66.8816653,120.719816 72.8816653,128.05315 85.0068161,131 L167.006816,131 C177.197765,134.298197 182.197765,141.298197 182.006816,152 C181.815867,162.701803 176.815867,170.035137 167.006816,174 L21.0068161,174 C6.75000745,173.481004 -0.249992548,180.481004 0.00681608227,195 C0.263624713,209.518996 7.26362471,216.518996 21.0068161,216 L241.006816,216 C251.600649,220.096741 256.933983,227.430074 257.006816,238 C257.07965,248.569926 251.746316,255.903259 241.006816,260 L207.006816,260 C196.888632,263.593576 192.221965,270.593576 193.006816,281 C193.791667,291.406424 198.458334,298.073091 207.006816,301 L299.006816,302 C309.284857,304.089732 314.618191,311.089732 315.006816,323 C315.395442,334.910268 310.062108,342.243602 299.006816,345 L150.006816,345 C139.998053,346.441593 134.998053,353.441593 135.006816,366 C135.015579,378.558407 140.015579,385.558407 150.006816,387 L235.006816,387 C246.062042,389.182452 251.728709,396.849119 252.006816,410 C252.284924,423.150881 246.618257,430.484215 235.006816,432 L85.0068161,432 C77.0068161,431.333333 70.3401494,438.333333 65.0068161,453 C58.3401494,471.666667 36.6734827,480.333333 0.00681608227,479 L1.00681608,45 Z" id="Path-4" fill="#D8D8D8" opacity="0.0601748512"></path>
                <path d="M1142.01363,0 L1291.2927,0.660526861 L1368.01363,1 C1382.01363,2.33333333 1389.01363,9.33333333 1389.01363,22 C1389.01363,34.6666667 1382.01363,41.6666667 1368.01363,43 L1226.01363,43 C1214.13878,45.2801836 1208.13878,52.2801836 1208.01363,64 C1207.88848,75.7198164 1213.88848,83.0531498 1226.01363,86 L1308.01363,86 C1318.20458,89.2981966 1323.20458,96.2981966 1323.01363,107 C1322.82268,117.701803 1317.82268,125.035137 1308.01363,129 L1162.01363,129 C1147.75682,128.481004 1140.75682,135.481004 1141.01363,150 C1141.27044,164.518996 1148.27044,171.518996 1162.01363,171 L1382.01363,171 C1392.60747,175.096741 1397.9408,182.430074 1398.01363,193 C1398.08647,203.569926 1392.75313,210.903259 1382.01363,215 L1348.01363,215 C1337.89545,218.593576 1333.22878,225.593576 1334.01363,236 C1334.79848,246.406424 1339.46515,253.073091 1348.01363,256 L1440.01363,257 C1450.29167,259.089732 1455.62501,266.089732 1456.01363,278 C1456.40226,289.910268 1451.06892,297.243602 1440.01363,300 L1291.01363,300 C1281.00487,301.441593 1276.00487,308.441593 1276.01363,321 C1276.0224,333.558407 1281.0224,340.558407 1291.01363,342 L1376.01363,342 C1387.06886,344.182452 1392.73552,351.849119 1393.01363,365 C1393.29174,378.150881 1387.62507,385.484215 1376.01363,387 L1226.01363,387 C1218.01363,386.333333 1211.34697,393.333333 1206.01363,408 C1199.34697,426.666667 1177.6803,435.333333 1141.01363,434 L1142.01363,0 Z" id="Path-4" fill="#D8D8D8" opacity="0.0601748512" transform="translate(1298.520122, 217.066667) scale(-1, -1) translate(-1298.520122, -217.066667) "></path>
                <path d="M174.336195,59.4068857 L193.796698,64.2062806 C194.515536,64.3835621 195.077628,64.9434537 195.257727,65.6615911 L200.16523,85.2300057 C200.433921,86.3013969 199.783204,87.387748 198.711813,87.6564389 C198.372009,87.7416572 198.015782,87.7361247 197.678789,87.6403951 L178.617317,82.2256112 C177.947939,82.0354612 177.425512,81.5110532 177.237897,80.84096 L171.931363,61.8879345 C171.633554,60.8242692 172.254404,59.7205765 173.318069,59.4227678 C173.65039,59.3297233 174.001133,59.324252 174.336195,59.4068857 Z" id="Rectangle" fill="#FFFFFF" opacity="0.0496186756" transform="translate(186.006816, 73.585786) rotate(-315.000000) translate(-186.006816, -73.585786) "></path>
                <path d="M17.3361951,334.821099 L36.796698,339.620494 C37.5155362,339.797776 38.077628,340.357667 38.2577275,341.075805 L43.1652301,360.644219 C43.433921,361.71561 42.7832039,362.801962 41.7118128,363.070652 C41.3720092,363.155871 41.015782,363.150338 40.6787887,363.054609 L21.6173173,357.639825 C20.9479391,357.449675 20.4255122,356.925267 20.2378972,356.255174 L14.931363,337.302148 C14.6335543,336.238483 15.2544037,335.13479 16.3180689,334.836981 C16.6503903,334.743937 17.0011333,334.738466 17.3361951,334.821099 Z" id="Rectangle" fill="#FFFFFF" opacity="0.0496186756" transform="translate(29.006816, 349.000000) rotate(-315.000000) translate(-29.006816, -349.000000) "></path>
                <path d="M781.336195,40.8210993 L794.407845,44.0448602 C795.126683,44.2221418 795.688775,44.7820333 795.868875,45.5001707 L799.16523,58.6442193 C799.433921,59.7156104 798.783204,60.8019616 797.711813,61.0706525 C797.372009,61.1558708 797.015782,61.1503382 796.678789,61.0546087 L783.875166,57.4174891 C783.205788,57.2273392 782.683361,56.7029311 782.495746,56.032838 L778.931363,43.3021481 C778.633554,42.2384828 779.254404,41.1347901 780.318069,40.8369814 C780.65039,40.7439369 781.001133,40.7384655 781.336195,40.8210993 Z" id="Rectangle" fill="#8A2782" opacity="0.18594215" transform="translate(789.006816, 51.000000) rotate(-315.000000) translate(-789.006816, -51.000000) "></path>
                <path d="M1077.3362,69.8210993 L1106.37998,76.983945 C1107.09882,77.1612265 1107.66091,77.7211181 1107.84101,78.4392555 L1115.16523,107.644219 C1115.43392,108.71561 1114.7832,109.801962 1113.71181,110.070652 C1113.37201,110.155871 1113.01578,110.150338 1112.67879,110.054609 L1084.23054,101.973328 C1083.56117,101.783178 1083.03874,101.25877 1082.85112,100.588677 L1074.93136,72.3021481 C1074.63355,71.2384828 1075.2544,70.1347901 1076.31807,69.8369814 C1076.65039,69.7439369 1077.00113,69.7384655 1077.3362,69.8210993 Z" id="Rectangle" fill="#8A2782" opacity="0.237072173" transform="translate(1095.006816, 90.000000) rotate(-315.000000) translate(-1095.006816, -90.000000) "></path>
                <path d="M1398.3362,372.821099 L1415.40088,377.029631 C1416.11972,377.206913 1416.68181,377.766805 1416.86191,378.484942 L1421.16523,395.644219 C1421.43392,396.71561 1420.7832,397.801962 1419.71181,398.070652 C1419.37201,398.155871 1419.01578,398.150338 1418.67879,398.054609 L1401.96401,393.306449 C1401.29463,393.116299 1400.77221,392.591891 1400.58459,391.921798 L1395.93136,375.302148 C1395.63355,374.238483 1396.2544,373.13479 1397.31807,372.836981 C1397.65039,372.743937 1398.00113,372.738466 1398.3362,372.821099 Z" id="Rectangle" fill="#C75BBF" opacity="0.186965216" transform="translate(1408.506816, 385.500000) rotate(-315.000000) translate(-1408.506816, -385.500000) "></path>
            </g>
        </g>
    </g>
</svg>