<?xml version="1.0" encoding="UTF-8"?>
<svg width="95px" height="25px" viewBox="0 0 95 25" version="1.1" xmlns="http://www.w3.org/2000/svg" xmlns:xlink="http://www.w3.org/1999/xlink">
    <!-- Generator: Sketch 55.2 (78181) - https://sketchapp.com -->
    <title>linkedin-grayscale</title>
    <desc>Created with Sketch.</desc>
    <g id="PAGES" stroke="none" stroke-width="1" fill="none" fill-rule="evenodd" opacity="0.5">
        <g id="Artboard" transform="translate(-751.000000, -828.000000)" fill-rule="nonzero">
            <g id="logos-copy" transform="translate(190.000000, 828.000000)">
                <g id="linkedin-grayscale" transform="translate(561.000000, 0.000000)">
                    <path d="M69.4872041,1.81883455 C69.4872041,0.831498624 70.3085104,0.0301682703 71.3210619,0.0301682703 L92.4654421,0.0301682703 C93.478321,0.0301682703 94.2992998,0.831498624 94.2992998,1.81883455 L94.2992998,23.211113 C94.2992998,24.1987764 93.478321,24.9994518 92.4654421,24.9994518 L71.3210619,24.9994518 C70.3085104,24.9994518 69.4872041,24.1987764 69.4872041,23.2114405 L69.4872041,1.81850708 L69.4872041,1.81883455 Z" id="Path" fill="#545454"></path>
                    <path d="M0.0308232195,20.9456437 L10.3855702,20.9456437 L10.3855702,17.5458024 L3.77877005,17.5458024 L3.77877005,4.57617071 L0.0308232195,4.57617071 L0.0308232195,20.9456437 Z M15.6281111,20.9456437 L15.6281111,9.67069311 L11.8804917,9.67069311 L11.8804917,20.9456437 L15.6281111,20.9456437 Z M13.7546289,8.13156248 C15.0612526,8.13156248 15.8746995,7.26571963 15.8746995,6.18308859 C15.8504663,5.07687938 15.0612526,4.23559712 13.779517,4.23559712 C12.4974539,4.23559712 11.6591189,5.07720685 11.6591189,6.18308859 C11.6591189,7.26571963 12.4725658,8.13156248 13.7300683,8.13156248 L13.7546289,8.13156248 L13.7546289,8.13156248 Z M17.3679837,20.9456437 L21.115603,20.9456437 L21.115603,14.648962 C21.115603,14.3119907 21.1398361,13.9750193 21.2390609,13.7349804 C21.509555,13.0616926 22.1261896,12.3641717 23.1616643,12.3641717 C24.5180641,12.3641717 25.0606896,13.3983365 25.0606896,14.913234 L25.0606896,20.9453162 L28.807654,20.9453162 L28.807654,14.4806401 C28.807654,11.0172687 26.9587324,9.40576616 24.4928486,9.40576616 C22.4713479,9.40576616 21.5835642,10.535881 21.0903875,11.3057738 L21.115603,11.3057738 L21.115603,9.67069311 L17.3679837,9.67069311 C17.4174323,10.7287636 17.3679837,20.9456437 17.3679837,20.9456437 L17.3679837,20.9456437 Z M34.0947314,4.57617071 L30.3471121,4.57617071 L30.3471121,20.9456437 L34.0947314,20.9456437 L34.0947314,17.2900447 L35.0313088,16.1108087 L37.9654812,20.9456437 L42.5756687,20.9456437 L37.6452111,13.946529 L41.9593615,9.18504827 L37.4480714,9.18504827 C37.4480714,9.18504827 34.3662079,13.4448379 34.0947314,13.9504587 L34.0947314,4.57617071 Z" id="Shape" fill="#000000"></path>
                    <path d="M52.597374,16.2424534 C52.6468226,15.9529659 52.7208319,15.397569 52.7208319,14.7694727 C52.7208319,11.8549487 51.2413017,8.8958882 47.3459912,8.8958882 C43.1792044,8.8958882 41.2559461,12.1912651 41.2559461,15.1801258 C41.2559461,18.8766592 43.5983719,21.1850276 47.690822,21.1850276 C49.3183708,21.1850276 50.8218067,20.9453162 52.055076,20.4400229 L51.5618993,17.9649699 C50.5506577,18.3003039 49.515183,18.4682983 48.2334474,18.4682983 C46.4830957,18.4682983 44.9547717,17.7494916 44.8313138,16.2182203 L52.597374,16.2417985 L52.597374,16.2424534 L52.597374,16.2424534 Z M44.8067532,13.7071451 C44.905323,12.7450247 45.5468458,11.3254223 47.149179,11.3254223 C48.8500821,11.3254223 49.2450165,12.8409747 49.2450165,13.7071451 L44.8070807,13.7071451 L44.8067532,13.7071451 Z M61.971007,4.57617071 L61.971007,10.2427912 L61.9215584,10.2427912 C61.3789329,9.44964775 60.2448884,8.9204488 58.74178,8.9204488 C55.8567287,8.9204488 53.3174906,11.2291447 53.3417238,15.1732489 C53.3417238,18.8291753 55.6350284,21.2102432 58.4945366,21.2102432 C60.0480762,21.2102432 61.5269515,20.5363004 62.2670441,19.2375362 L62.3407258,19.2375362 L62.4890718,20.9456437 L65.8171962,20.9456437 C65.768075,20.1518453 65.7182989,18.7810366 65.7182989,17.4341335 L65.7182989,4.57584324 L61.9706795,4.57584324 L61.971007,4.57617071 Z M61.971007,15.7266809 C61.971007,16.0148586 61.9464464,16.3040187 61.8966703,16.5437301 C61.6756249,17.5785498 60.7878413,18.2993214 59.7029179,18.2993214 C58.1500334,18.2993214 57.1387918,17.0490234 57.1387918,15.0769713 C57.1387918,13.2254299 58.0023423,11.7341106 59.727806,11.7341106 C60.8864111,11.7341106 61.6998581,12.5275815 61.9218858,13.5132801 C61.971007,13.7303958 61.971007,13.9710896 61.971007,14.1872228 L61.971007,15.7263535 L61.971007,15.7266809 Z" id="Shape" fill="#000000"></path>
                    <path d="M77.0086408,20.9318898 L77.0086408,9.65693918 L73.2610214,9.65693918 L73.2610214,20.9318898 L77.0089683,20.9318898 L77.0086408,20.9318898 Z M75.1354861,8.11780854 C76.4421097,8.11780854 77.2555566,7.25196569 77.2555566,6.1699896 C77.2309961,5.06345292 76.4421097,4.22184319 75.1603741,4.22184319 C73.8776561,4.22184319 73.0399761,5.06345292 73.0399761,6.1699896 C73.0399761,7.25196569 73.8530955,8.11780854 75.1109255,8.11780854 L75.1351586,8.11780854 L75.1354861,8.11780854 Z M79.0828649,20.9318898 L82.8301568,20.9318898 L82.8301568,14.6361905 C82.8301568,14.2995466 82.8547174,13.9622478 82.9536147,13.7218814 C83.2244362,13.0482662 83.8410709,12.3510727 84.8765456,12.3510727 C86.2322905,12.3510727 86.7749159,13.3849101 86.7749159,14.90079 L86.7749159,20.9318898 L90.5222078,20.9318898 L90.5222078,14.4672136 C90.5222078,11.0041697 88.6736136,9.39266717 86.2080573,9.39266717 C84.1865566,9.39266717 83.298773,10.5224546 82.8055962,11.2920199 L82.8304843,11.2920199 L82.8304843,9.65726665 L79.0831924,9.65726665 C79.1319861,10.7150096 79.0828649,20.9322172 79.0828649,20.9322172 L79.0828649,20.9318898 Z" id="Shape" fill="#FFFFFF"></path>
                </g>
            </g>
        </g>
    </g>
</svg>