<?xml version="1.0" encoding="UTF-8"?>
<svg width="836px" height="197px" viewBox="0 0 836 197" version="1.1" xmlns="http://www.w3.org/2000/svg" xmlns:xlink="http://www.w3.org/1999/xlink">
    <!-- Generator: Sketch 51.3 (57544) - http://www.bohemiancoding.com/sketch -->
    <title>gummicube_logo_vector_01</title>
    <desc>Created with Sketch.</desc>
    <defs></defs>
    <g id="Page-1" stroke="none" stroke-width="1" fill="none" fill-rule="evenodd">
        <g id="gummicube_logo_vector_01" fill="#FFFFFF" fill-rule="nonzero">
            <path d="M835.25,78.35 L835.25,63.85 L783.85,63.85 L783.85,143.15 L835.75,143.15 L835.75,128.65 L803.1,128.65 L803.1,110.7 L831.8,110.7 L831.8,96.3 L803.1,96.3 L803.1,78.35 L835.25,78.35 Z M767.65,103.05 C771.35,101.95 774.35,99.817 776.65,96.65 C778.983,93.517 780.15,89.883 780.15,85.75 C780.15,79.383 777.75,74.133 772.95,70 C768.15,65.9 761.167,63.85 752,63.85 L719.55,63.85 L719.55,143.15 L755.6,143.15 C763.767,143.15 770.233,141.133 775,137.1 C779.733,133.067 782.1,127.9 782.1,121.6 C782.1,111.933 777.283,105.75 767.65,103.05 Z M760.65,86.65 C760.65,89.483 759.4,91.767 756.9,93.5 C754.367,95.233 750.617,96.1 745.65,96.1 L738.65,96.1 L738.65,78.35 L748.75,78.35 C756.683,78.35 760.65,81.117 760.65,86.65 Z M738.65,128.65 L738.65,110.35 L748.75,110.35 C758.117,110.35 762.8,113.4 762.8,119.5 C762.8,125.6 758.083,128.65 748.65,128.65 L738.65,128.65 Z M666.05,63.85 L647,63.85 L647,113.25 C647,123.15 650.083,130.8 656.25,136.2 C662.45,141.6 670.717,144.3 681.05,144.3 C691.35,144.3 699.567,141.583 705.7,136.15 C711.8,130.717 714.85,122.8 714.85,112.4 L714.85,63.85 L695.8,63.85 L695.8,112.6 C695.8,122.767 690.833,127.85 680.9,127.85 C671,127.85 666.05,122.95 666.05,113.15 L666.05,63.85 Z M599.8,103.6 C599.8,96.233 602.067,90.333 606.6,85.9 C611.133,81.467 616.967,79.25 624.1,79.25 C631.233,79.25 637.917,81.05 644.15,84.65 L644.15,67.25 C639.083,64.25 631.867,62.75 622.5,62.75 C609.667,62.75 599.283,66.567 591.35,74.2 C583.35,81.833 579.35,91.633 579.35,103.6 C579.35,115.6 583.467,125.35 591.7,132.85 C599.9,140.317 610.117,144.05 622.35,144.05 C631.817,144.05 639.083,142.583 644.15,139.65 L644.15,121.85 C638.617,125.617 632.1,127.5 624.6,127.5 C617.133,127.5 611.133,125.367 606.6,121.1 C602.067,116.8 599.8,110.967 599.8,103.6 Z M577.95,63.85 L558.9,63.85 L558.9,143.15 L577.95,143.15 L577.95,63.85 Z M486.1,63.85 L465.15,63.85 L457.95,143.15 L477.1,143.15 L479.7,112.4 C480.4,102.533 480.75,94.817 480.75,89.25 C482.483,95.45 489.067,113.15 500.5,142.35 L511.75,142.35 C523.783,111.75 530.667,94.05 532.4,89.25 L534.05,112.4 L537.15,143.15 L556.2,143.15 L547.55,63.85 L526.6,63.85 L514.8,92.55 C510.367,103.383 507.483,111.383 506.15,116.55 C505.35,113.317 504.317,109.9 503.05,106.3 C501.75,102.7 496.1,88.55 486.1,63.85 Z M386.15,63.85 L365.2,63.85 L358,143.15 L377.15,143.15 L379.75,112.4 C380.45,102.533 380.8,94.817 380.8,89.25 C382.533,95.45 389.117,113.15 400.55,142.35 L411.8,142.35 C423.833,111.75 430.717,94.05 432.45,89.25 L434.1,112.4 L437.2,143.15 L456.25,143.15 L447.6,63.85 L426.65,63.85 L414.85,92.55 C410.417,103.383 407.533,111.383 406.2,116.55 C405.4,113.317 404.367,109.9 403.1,106.3 C401.8,102.7 396.15,88.55 386.15,63.85 Z M308.55,63.85 L289.5,63.85 L289.5,113.25 C289.5,123.15 292.583,130.8 298.75,136.2 C304.95,141.6 313.217,144.3 323.55,144.3 C333.85,144.3 342.067,141.583 348.2,136.15 C354.3,130.717 357.35,122.8 357.35,112.4 L357.35,63.85 L338.3,63.85 L338.3,112.6 C338.3,122.767 333.333,127.85 323.4,127.85 C313.5,127.85 308.55,122.95 308.55,113.15 L308.55,63.85 Z M280.9,85.45 L280.9,67.35 C274.033,64.05 265.9,62.4 256.5,62.4 C243.133,62.4 232.083,66.15 223.35,73.65 C214.65,81.05 210.3,91 210.3,103.5 C210.3,115.967 214.483,125.85 222.85,133.15 C231.183,140.417 241.7,144.05 254.4,144.05 C267.1,144.05 277.417,141.317 285.35,135.85 L285.35,95.85 L253.3,95.85 L253.3,111.25 L266.8,111.25 L266.8,126.2 C263.333,127.233 259.833,127.75 256.3,127.75 C248.433,127.75 242.233,125.55 237.7,121.15 C233.133,116.75 230.85,110.85 230.85,103.45 C230.85,96.017 233.183,90.1 237.85,85.7 C242.417,81.267 248.767,79.05 256.9,79.05 C265,79.05 273,81.183 280.9,85.45 Z" id="Shape"></path>
            <path d="M171.05,55.05 C170.717,54.65 170.317,54.417 169.85,54.35 C169.65,54.317 169.467,54.3 169.3,54.3 C169.133,53.933 168.867,53.65 168.5,53.45 L98.55,13 C98.783,12.133 98.9,11.217 98.9,10.25 C98.9,7.483 97.917,5.133 95.95,3.2 C94.05,1.267 91.717,0.3 88.95,0.3 C86.183,0.3 83.817,1.267 81.85,3.2 C79.95,5.133 79,7.483 79,10.25 C79,11.917 79.35,13.433 80.05,14.8 L18.5,50.4 C18.133,49.9 17.717,49.417 17.25,48.95 C15.35,47.017 13.017,46.05 10.25,46.05 C7.483,46.05 5.117,47.017 3.15,48.95 C1.25,50.883 0.3,53.233 0.3,56 C0.3,58.767 1.25,61.1 3.15,63 C4.883,64.733 6.917,65.7 9.25,65.9 L9.35,139.2 C6.95,139.367 4.883,140.317 3.15,142.05 C1.25,143.983 0.3,146.333 0.3,149.1 C0.3,151.867 1.25,154.2 3.15,156.1 C5.117,158.067 7.483,159.05 10.25,159.05 C13.017,159.05 15.35,158.067 17.25,156.1 C17.583,155.767 17.9,155.433 18.2,155.1 L86.9,194.75 C88.433,195.65 89.317,196.117 89.55,196.15 C90.017,196.217 90.467,196.133 90.9,195.9 L170.5,149.9 C170.8,149.7 171.05,149.45 171.25,149.15 C171.417,148.85 171.5,148.517 171.5,148.15 L171.5,56.3 C171.5,55.833 171.35,55.417 171.05,55.05 Z M20.2,56 C20.2,54.6 19.95,53.317 19.45,52.15 L81.15,16.5 C81.35,16.733 81.583,16.983 81.85,17.25 C83.783,19.183 86.117,20.167 88.85,20.2 L88.9,99.4 L19.65,59.45 C20.017,58.383 20.2,57.233 20.2,56 Z M17.25,63 C17.317,62.933 17.4,62.867 17.5,62.8 L86.9,102.85 L17.9,142.75 C17.7,142.517 17.483,142.283 17.25,142.05 C15.617,140.383 13.65,139.433 11.35,139.2 L11.25,65.9 C13.583,65.7 15.583,64.733 17.25,63 Z M95.95,17.25 C96.217,17.017 96.45,16.767 96.65,16.5 L165.5,56.3 L90.9,99.45 L90.85,20.05 C92.817,19.683 94.517,18.75 95.95,17.25 Z M98.9,178.6 L98.9,107.5 L160.5,71.85 L160.5,143 L98.9,178.6 Z M20.2,149.1 C20.2,147.367 19.817,145.8 19.05,144.4 L87.9,104.65 L87.9,190.7 L19.95,151.5 C20.117,150.733 20.2,149.933 20.2,149.1 Z" id="Shape"></path>
        </g>
    </g>
</svg>