<?xml version="1.0" encoding="UTF-8"?>
<svg width="124px" height="25px" viewBox="0 0 124 25" version="1.1" xmlns="http://www.w3.org/2000/svg" xmlns:xlink="http://www.w3.org/1999/xlink">
    <!-- Generator: Sketch 55.2 (78181) - https://sketchapp.com -->
    <title>mcafee-grayscale</title>
    <desc>Created with Sketch.</desc>
    <g id="PAGES" stroke="none" stroke-width="1" fill="none" fill-rule="evenodd" opacity="0.7">
        <g id="Artboard" transform="translate(-562.000000, -828.000000)" fill-rule="nonzero">
            <g id="logos-copy" transform="translate(190.000000, 828.000000)">
                <g id="mcafee-grayscale" transform="translate(372.000000, 0.000000)">
                    <g id="Group" fill="#3C3C3C">
                        <path d="M61.6103812,15.8832394 L58.3937837,13.9878026 L58.163639,14.3612449 C57.4460652,15.5108827 56.4408107,16.0851588 55.2054114,16.0851588 C53.0798299,16.0851588 51.5002992,14.4763173 51.5002992,12.3800466 C51.5002992,10.2544651 53.1080552,8.67384888 55.2054114,8.67384888 C56.469036,8.67384888 57.3874435,9.21989969 58.163639,10.3977628 L58.3937837,10.7712051 L61.6103812,8.87576827 L61.3237859,8.47410067 C59.7713949,6.23236126 57.7901967,5.1706561 55.1761005,5.1706561 C50.2649,5.1706561 47.6225786,8.90507915 47.6225786,12.4082719 C47.6225786,15.9125503 50.2649,19.6469734 55.1761005,19.6469734 C57.6751243,19.6469734 60.0308505,18.3822632 61.3237859,16.3142179 L61.6103812,15.8832394 Z M61.4377727,19.5894372 L65.8615442,19.5894372 L67.1827049,16.3142179 L73.8178193,16.3142179 L75.13898,19.5894372 L79.5909768,19.5894372 L71.6640125,0.430978474 L67.6994448,0.430978474 L68.7633211,2.98753844 L61.4377727,19.5894372 Z M70.5436856,7.98450044 L72.3240501,12.4940334 L68.7046994,12.4940334 L70.5436856,7.98450044 Z M81.429963,19.6176625 L85.3065981,19.6176625 L85.3065981,11.0013498 L87.8349328,11.0013498 L87.8349328,7.38199905 L85.3055125,7.38199905 L85.3055125,5.68739603 C85.3055125,4.94051142 85.7940272,4.16431593 86.7135203,4.16431593 C87.2020349,4.16431593 87.5168555,4.25116298 87.8045363,4.36623532 L88.2355148,4.53775824 L89.845442,1.00525458 L89.4144635,0.861956948 C88.6958042,0.574276103 87.6905496,0.460289352 86.9718903,0.460289352 C85.2208367,0.460289352 83.7563783,1.03456545 82.779349,2.12558149 C81.9173921,3.0732999 81.4288775,4.39446061 81.4288775,5.86000454 L81.4288775,7.41022434 L79.7060491,7.41022434 L79.7060491,11.029575 L81.4288775,11.029575 L81.429963,19.6176625 Z" id="Shape"></path>
                        <polygon id="Path" points="41.7343487 8.55986213 41.7343487 19.5894372 45.9572864 19.5894372 45.9572864 0.314820548 37.6557943 6.57649268 29.3260768 0.315906136 29.3260768 19.5601263 33.5490145 19.5894372 33.5490145 8.55986213 37.6557943 11.6038512"></polygon>
                        <path d="M96.5956287,5.1706561 C91.7115679,5.1706561 89.0692465,8.87576827 89.0692465,12.3789611 C89.0692465,15.8832394 91.7115679,19.5894372 96.5945431,19.5894372 C98.835197,19.5601263 100.932553,18.5548717 102.56962,16.6876602 L99.4105587,14.9648319 C98.6050523,15.797478 97.5997977,16.2284564 96.5087817,16.2284564 C94.8999401,16.2284564 93.493018,15.1656657 93.1195757,13.7587435 L103.69009,13.7587435 L103.69009,12.8099395 C103.718172,7.55460756 99.5538563,5.19888139 96.5945431,5.1706561 L96.5956287,5.1706561 Z M93.2042515,10.6279075 C93.722077,9.30674674 94.8130931,8.55986213 96.2200153,8.55986213 C97.6562483,8.55986213 98.7765752,9.30674674 99.3508513,10.6561327 L93.2042515,10.6279075 Z M112.477783,5.19888139 C107.595893,5.19888139 104.953571,8.90399356 104.953571,12.4082719 C104.953571,15.9125503 107.595893,19.6176625 112.478868,19.6176625 C114.719522,19.5894372 116.815793,18.5841826 118.452859,16.7169711 L115.293798,14.9930572 C114.489377,15.8267888 113.484123,16.2566817 112.392021,16.2566817 C110.784265,16.2566817 109.376257,15.193891 109.002815,13.7869688 L119.573186,13.7869688 L119.573186,12.8392504 C119.602497,7.58283285 115.437096,5.19888139 112.478868,5.19888139 L112.477783,5.19888139 Z M109.089662,10.6268219 C109.606402,9.30674674 110.697418,8.53163684 112.105426,8.55986213 C113.541659,8.55986213 114.661986,9.30674674 115.236262,10.6561327 L109.089662,10.6268219 Z M119.084672,4.53775824 L120.721739,4.53775824 L120.721739,4.85366437 L120.061701,4.85366437 L120.061701,6.57866386 L119.716484,6.57866386 L119.716484,4.85366437 L119.084672,4.85366437 L119.084672,4.53775824 Z M120.981194,4.53775824 L121.469709,4.53775824 L122.042899,6.11837451 L122.58895,4.53775824 L123.077465,4.53775824 L123.077465,6.57866386 L122.732248,6.57866386 L122.732248,4.99804759 L122.157972,6.57757827 L121.871376,6.57757827 L121.296015,4.99804759 L121.296015,6.57757827 L120.951883,6.57757827 L120.951883,4.53775824 L120.981194,4.53775824 Z" id="Shape"></path>
                        <polygon id="Path" points="10.7136689 5.11311993 0.287680845 0.287680845 0.287680845 19.4743648 10.7136689 24.2998039 10.7136689 19.5883516 4.56706912 16.7451964 4.56706912 6.98033145 10.7136689 9.82457226"></polygon>
                    </g>
                    <polygon id="Path" fill="#2A2A2A" points="10.7136689 5.11311993 21.1678823 0.287680845 21.1678823 19.4743648 10.7136689 24.2998039 10.7136689 19.5883516 16.888494 16.7451964 16.888494 6.98033145 10.7147545 9.82457226"></polygon>
                </g>
            </g>
        </g>
    </g>
</svg>