<?xml version="1.0" encoding="UTF-8"?>
<svg width="118px" height="25px" viewBox="0 0 118 25" version="1.1" xmlns="http://www.w3.org/2000/svg" xmlns:xlink="http://www.w3.org/1999/xlink">
    <!-- Generator: Sketch 55.2 (78181) - https://sketchapp.com -->
    <title>microsoft-grayscale</title>
    <desc>Created with Sketch.</desc>
    <g id="PAGES" stroke="none" stroke-width="1" fill="none" fill-rule="evenodd" opacity="0.8">
        <g id="Artboard" transform="translate(-190.000000, -828.000000)" fill-rule="nonzero">
            <g id="logos-copy" transform="translate(190.000000, 828.000000)">
                <g id="microsoft-grayscale" transform="translate(0.000000, 0.000000)">
                    <path d="M41.3178295,14.3992248 L40.620155,16.375969 L40.5620155,16.375969 C40.4457364,15.9302326 40.2325581,15.251938 39.8837209,14.4379845 L36.1434109,5.03875969 L32.4806202,5.03875969 L32.4806202,20.0193798 L34.9031008,20.0193798 L34.9031008,10.7751938 C34.9031008,10.1937984 34.9031008,9.53488372 34.8837209,8.72093023 C34.8643411,8.31395349 34.8255814,8.00387597 34.8062016,7.77131783 L34.8643411,7.77131783 C34.9806202,8.35271318 35.1162791,8.77906977 35.2131783,9.0503876 L39.7093023,19.9806202 L41.4147287,19.9806202 L45.872093,8.95348837 C45.9689922,8.70155039 46.0658915,8.19767442 46.1627907,7.77131783 L46.2209302,7.77131783 C46.1627907,8.87596899 46.124031,9.86434109 46.1046512,10.4651163 L46.1046512,19.9612403 L48.6821705,19.9612403 L48.6821705,5 L45.1550388,5 L41.3178295,14.3992248 L41.3178295,14.3992248 Z M51.124031,9.2248062 L53.6434109,9.2248062 L53.6434109,19.9612403 L51.124031,19.9612403 L51.124031,9.2248062 Z M52.4031008,4.68992248 C51.9767442,4.68992248 51.627907,4.84496124 51.3372093,5.11627907 C51.0465116,5.3875969 50.8914729,5.73643411 50.8914729,6.1627907 C50.8914729,6.56976744 51.0465116,6.91860465 51.3372093,7.18992248 C51.627907,7.46124031 51.9767442,7.59689922 52.4031008,7.59689922 C52.8294574,7.59689922 53.1976744,7.44186047 53.4689922,7.18992248 C53.7596899,6.91860465 53.9147287,6.56976744 53.9147287,6.1627907 C53.9147287,5.75581395 53.7596899,5.40697674 53.4689922,5.11627907 C53.2170543,4.84496124 52.8488372,4.68992248 52.4031008,4.68992248 L52.4031008,4.68992248 Z M62.5775194,9.12790698 C62.1124031,9.03100775 61.627907,8.97286822 61.1627907,8.97286822 C60.0193798,8.97286822 58.9728682,9.2248062 58.1007752,9.72868217 C57.2286822,10.2325581 56.5310078,10.9302326 56.0852713,11.8023256 C55.620155,12.6937984 55.3875969,13.7209302 55.3875969,14.9031008 C55.3875969,15.9302326 55.620155,16.8410853 56.0658915,17.6744186 C56.5116279,18.4883721 57.1317829,19.1472868 57.9651163,19.5930233 C58.7596899,20.0387597 59.6899225,20.2713178 60.7364341,20.2713178 C61.9379845,20.2713178 62.9651163,20.0193798 63.7790698,19.5542636 L63.7984496,19.5348837 L63.7984496,17.2093023 L63.7015504,17.2868217 C63.3333333,17.5581395 62.9069767,17.7906977 62.4806202,17.9263566 C62.0348837,18.0813953 61.627907,18.1589147 61.2790698,18.1589147 C60.2713178,18.1589147 59.4767442,17.8682171 58.9147287,17.2286822 C58.3333333,16.6085271 58.0426357,15.755814 58.0426357,14.6899225 C58.0426357,13.5852713 58.3333333,12.7131783 58.9341085,12.0736434 C59.5348837,11.4341085 60.3294574,11.1046512 61.2984496,11.1046512 C62.1124031,11.1046512 62.9457364,11.375969 63.7015504,11.9186047 L63.7984496,11.996124 L63.7984496,9.53488372 L63.7790698,9.51550388 C63.4496124,9.37984496 63.0813953,9.2248062 62.5775194,9.12790698 L62.5775194,9.12790698 Z M70.8914729,9.0503876 C70.2713178,9.0503876 69.6899225,9.24418605 69.1860465,9.65116279 C68.7596899,10 68.4689922,10.503876 68.2170543,11.1046512 L68.1976744,11.1046512 L68.1976744,9.2248062 L65.6782946,9.2248062 L65.6782946,19.9612403 L68.1976744,19.9612403 L68.1976744,14.4767442 C68.1976744,13.5465116 68.3914729,12.7713178 68.8178295,12.2093023 C69.244186,11.627907 69.7868217,11.3372093 70.4457364,11.3372093 C70.6782946,11.3372093 70.9108527,11.3953488 71.2015504,11.4341085 C71.4728682,11.5116279 71.6666667,11.5891473 71.8023256,11.6860465 L71.8992248,11.7635659 L71.8992248,9.24418605 L71.8410853,9.2248062 C71.6666667,9.10852713 71.3178295,9.0503876 70.8914729,9.0503876 L70.8914729,9.0503876 Z M77.751938,8.99224806 C75.9883721,8.99224806 74.5736434,9.51550388 73.5852713,10.5426357 C72.5775194,11.5697674 72.0930233,12.9844961 72.0930233,14.7674419 C72.0930233,16.4341085 72.5968992,17.7906977 73.5658915,18.7790698 C74.5348837,19.748062 75.8527132,20.251938 77.5,20.251938 C79.2248062,20.251938 80.6007752,19.7286822 81.5891473,18.6821705 C82.5968992,17.6356589 83.0813953,16.2403101 83.0813953,14.5155039 C83.0813953,12.8100775 82.6162791,11.4534884 81.6666667,10.4651163 C80.755814,9.47674419 79.4186047,8.99224806 77.751938,8.99224806 L77.751938,8.99224806 Z M79.7674419,17.248062 C79.3023256,17.8488372 78.5658915,18.1395349 77.6550388,18.1395349 C76.744186,18.1395349 76.0077519,17.8488372 75.4844961,17.2093023 C74.9612403,16.6085271 74.7093023,15.7364341 74.7093023,14.6317829 C74.7093023,13.4883721 74.9806202,12.6162791 75.4844961,11.996124 C76.0077519,11.375969 76.7248062,11.0658915 77.6356589,11.0658915 C78.5271318,11.0658915 79.2248062,11.3565891 79.7286822,11.9573643 C80.2325581,12.5581395 80.503876,13.4302326 80.503876,14.5736434 C80.4651163,15.7364341 80.251938,16.6472868 79.7674419,17.248062 L79.7674419,17.248062 Z M88.7015504,13.6821705 C87.9069767,13.3527132 87.4031008,13.1007752 87.1705426,12.8875969 C86.9767442,12.6937984 86.879845,12.4224806 86.879845,12.0736434 C86.879845,11.7829457 86.996124,11.4922481 87.2868217,11.2984496 C87.5775194,11.1046512 87.9069767,11.0077519 88.3914729,11.0077519 C88.8178295,11.0077519 89.2635659,11.0852713 89.6899225,11.2015504 C90.1162791,11.3178295 90.503876,11.4922481 90.8139535,11.7248062 L90.9108527,11.8023256 L90.9108527,9.4379845 L90.8527132,9.41860465 C90.5620155,9.30232558 90.1744186,9.18604651 89.7093023,9.08914729 C89.244186,9.01162791 88.8178295,8.97286822 88.4689922,8.97286822 C87.2674419,8.97286822 86.2790698,9.26356589 85.503876,9.90310078 C84.7286822,10.503876 84.3604651,11.3178295 84.3604651,12.2674419 C84.3604651,12.7713178 84.4379845,13.2170543 84.6124031,13.5852713 C84.7868217,13.9534884 85.0387597,14.3023256 85.3875969,14.5930233 C85.7364341,14.8643411 86.2403101,15.1744186 86.9379845,15.4651163 C87.5193798,15.7170543 87.9651163,15.9108527 88.2364341,16.0658915 C88.5077519,16.2209302 88.6821705,16.3953488 88.8178295,16.5310078 C88.9147287,16.6860465 88.9728682,16.879845 88.9728682,17.1317829 C88.9728682,17.8488372 88.4302326,18.1976744 87.3255814,18.1976744 C86.8992248,18.1976744 86.4534884,18.120155 85.9302326,17.9457364 C85.4069767,17.7713178 84.9224806,17.5193798 84.5155039,17.2286822 L84.4186047,17.1511628 L84.4186047,19.6124031 L84.4767442,19.6317829 C84.8449612,19.8062016 85.2906977,19.9224806 85.8333333,20.0581395 C86.375969,20.1550388 86.8604651,20.2325581 87.2868217,20.2325581 C88.5852713,20.2325581 89.6511628,19.9418605 90.4069767,19.3023256 C91.1821705,18.6821705 91.5891473,17.8875969 91.5891473,16.8604651 C91.5891473,16.1434109 91.3953488,15.503876 90.9689922,15.0193798 C90.4069767,14.5542636 89.7093023,14.0697674 88.7015504,13.6821705 L88.7015504,13.6821705 Z M98.2364341,8.99224806 C96.4728682,8.99224806 95.0581395,9.51550388 94.0697674,10.5426357 C93.0813953,11.5697674 92.5775194,12.9844961 92.5775194,14.7674419 C92.5775194,16.4341085 93.0813953,17.7906977 94.0503876,18.7790698 C95.0193798,19.748062 96.3372093,20.251938 97.9844961,20.251938 C99.7093023,20.251938 101.085271,19.7286822 102.073643,18.6821705 C103.081395,17.6356589 103.565891,16.2403101 103.565891,14.5155039 C103.565891,12.8100775 103.100775,11.4534884 102.151163,10.4651163 C101.24031,9.47674419 99.9031008,8.99224806 98.2364341,8.99224806 L98.2364341,8.99224806 Z M100.232558,17.248062 C99.7674419,17.8488372 99.0310078,18.1395349 98.120155,18.1395349 C97.1899225,18.1395349 96.4728682,17.8488372 95.9496124,17.2093023 C95.4263566,16.6085271 95.1744186,15.7364341 95.1744186,14.6317829 C95.1744186,13.4883721 95.4457364,12.6162791 95.9496124,11.996124 C96.4728682,11.375969 97.1899225,11.0658915 98.1007752,11.0658915 C98.9728682,11.0658915 99.6899225,11.3565891 100.193798,11.9573643 C100.697674,12.5581395 100.968992,13.4302326 100.968992,14.5736434 C100.968992,15.7364341 100.717054,16.6472868 100.232558,17.248062 L100.232558,17.248062 Z M117.034884,11.2984496 L117.034884,9.2248062 L114.496124,9.2248062 L114.496124,6.04651163 L114.418605,6.06589147 L112.015504,6.78294574 L111.957364,6.80232558 L111.957364,9.2248062 L108.158915,9.2248062 L108.158915,7.86821705 C108.158915,7.24806202 108.313953,6.76356589 108.585271,6.45348837 C108.856589,6.14341085 109.263566,5.98837209 109.767442,5.98837209 C110.116279,5.98837209 110.484496,6.06589147 110.891473,6.24031008 L110.988372,6.29844961 L110.988372,4.10852713 L110.930233,4.08914729 C110.581395,3.97286822 110.116279,3.89534884 109.515504,3.89534884 C108.75969,3.89534884 108.100775,4.06976744 107.5,4.36046512 C106.899225,4.68992248 106.453488,5.13565891 106.124031,5.73643411 C105.794574,6.31782946 105.620155,6.97674419 105.620155,7.73255814 L105.620155,9.2248062 L103.856589,9.2248062 L103.856589,11.2790698 L105.620155,11.2790698 L105.620155,19.9612403 L108.158915,19.9612403 L108.158915,11.2984496 L111.957364,11.2984496 L111.957364,16.8217054 C111.957364,19.0891473 113.023256,20.2325581 115.155039,20.2325581 C115.503876,20.2325581 115.872093,20.1744186 116.22093,20.1162791 C116.589147,20.0387597 116.860465,19.9418605 117.015504,19.8643411 L117.034884,19.8449612 L117.034884,17.7713178 L116.937984,17.8488372 C116.782946,17.9457364 116.647287,18.0232558 116.414729,18.0813953 C116.22093,18.1395349 116.046512,18.1589147 115.910853,18.1589147 C115.406977,18.1589147 115.05814,18.0426357 114.806202,17.751938 C114.573643,17.4806202 114.457364,17.0348837 114.457364,16.375969 L114.457364,11.2984496 L117.034884,11.2984496 L117.034884,11.2984496 Z" id="Shape" fill="#737373"></path>
                    <polygon id="Path" fill="#6F6F6F" points="0 0 11.879845 0 11.879845 11.879845 0 11.879845"></polygon>
                    <polygon id="Path" fill="#A0A0A0" points="13.120155 0 25 0 25 11.879845 13.120155 11.879845"></polygon>
                    <polygon id="Path" fill="#878787" points="0 13.120155 11.879845 13.120155 11.879845 25 0 25"></polygon>
                    <polygon id="Path" fill="#BBBBBB" points="13.120155 13.120155 25 13.120155 25 25 13.120155 25"></polygon>
                </g>
            </g>
        </g>
    </g>
</svg>