<?xml version="1.0" encoding="UTF-8"?>
<svg width="176px" height="137px" viewBox="0 0 176 137" version="1.1" xmlns="http://www.w3.org/2000/svg" xmlns:xlink="http://www.w3.org/1999/xlink">
    <!-- Generator: Sketch 55.2 (78181) - https://sketchapp.com -->
    <title>wrench</title>
    <desc>Created with Sketch.</desc>
    <g id="PAGES" stroke="none" stroke-width="1" fill="none" fill-rule="evenodd">
        <g id="Artboard" transform="translate(-615.000000, -1775.000000)">
            <g id="wrench" transform="translate(615.000000, 1775.000000)">
                <path d="M107.341697,46.6306643 C106.467888,43.5710347 106,40.3401579 106,37 C106,17.6700338 121.670034,2 141,2 C145.929696,2 150.621351,3.01917313 154.875754,4.8583082 L131.184063,28.5499989 C130.01249,29.7215717 130.01249,31.6210667 131.184063,32.7926395 L146.033306,47.641882 C147.204879,48.8134548 149.104374,48.8134548 150.275946,47.641882 L173.62274,24.2950884 C175.157688,28.2335427 176,32.5184051 176,37 C176,56.3299662 160.329966,72 141,72 C138.223986,72 135.523456,71.6768151 132.933982,71.066018 L74,130 C65.3333333,138 57,138.333333 49,131 C41,123.666667 41,114.666667 49,104 L107.341697,46.6306643 Z M60.5,130 C66.8512746,130 72,124.851275 72,118.5 C72,112.148725 66.8512746,107 60.5,107 C54.1487254,107 49,112.148725 49,118.5 C49,124.851275 54.1487254,130 60.5,130 Z" id="wrench-copy" fill="#9D9D9D"></path>
                <path d="M103.341697,44.6306643 C102.467888,41.5710347 102,38.3401579 102,35 C102,15.6700338 117.670034,0 137,0 C141.929696,0 146.621351,1.01917313 150.875754,2.8583082 L127.184063,26.5499989 C126.01249,27.7215717 126.01249,29.6210667 127.184063,30.7926395 L142.033306,45.641882 C143.204879,46.8134548 145.104374,46.8134548 146.275946,45.641882 L169.62274,22.2950884 C171.157688,26.2335427 172,30.5184051 172,35 C172,54.3299662 156.329966,70 137,70 C134.223986,70 131.523456,69.6768151 128.933982,69.066018 L70,128 C61.3333333,136 53,136.333333 45,129 C37,121.666667 37,112.666667 45,102 L103.341697,44.6306643 Z M56.5,128 C62.8512746,128 68,122.851275 68,116.5 C68,110.148725 62.8512746,105 56.5,105 C50.1487254,105 45,110.148725 45,116.5 C45,122.851275 50.1487254,128 56.5,128 Z" fill="#D8D8D8"></path>
                <path d="M41,7 C51.2294219,17.402214 61.8960886,17.402214 73,7 C61.9419188,17.4480443 61.9419188,28.1147109 73,39 C62.3333333,28.1605412 51.6666667,28.1605412 41,39 C51.6143682,28.1102521 51.1878742,17.452549 41,7 Z" id="Rectangle" fill="#FDE4FF" transform="translate(57.000000, 23.000000) rotate(-315.000000) translate(-57.000000, -23.000000) "></path>
                <path d="M123,91 C134.5081,102.702491 146.5081,102.702491 159,91 C146.559659,102.75405 146.559659,114.75405 159,127 C147,114.805609 135,114.805609 123,127 C134.941164,114.749034 134.461359,102.759118 123,91 Z" id="Rectangle" fill="#FAEDC1" transform="translate(141.000000, 109.000000) rotate(-315.000000) translate(-141.000000, -109.000000) "></path>
                <path d="M5,57 C12.0327276,64.1515221 19.3660609,64.1515221 27,57 C19.3975692,64.1830304 19.3975692,71.5163638 27,79 C19.6666667,71.5478721 12.3333333,71.5478721 5,79 C12.2973782,71.5132983 12.0041635,64.1861275 5,57 Z" id="Rectangle" fill="#FFFFFF" transform="translate(16.000000, 68.000000) rotate(-315.000000) translate(-16.000000, -68.000000) "></path>
            </g>
        </g>
    </g>
</svg>