<?xml version="1.0" encoding="UTF-8"?>
<svg width="187px" height="41px" viewBox="0 0 187 41" version="1.1" xmlns="http://www.w3.org/2000/svg" xmlns:xlink="http://www.w3.org/1999/xlink">
    <!-- Generator: Sketch 55.2 (78181) - https://sketchapp.com -->
    <title>xerox</title>
    <desc>Created with Sketch.</desc>
    <g id="PAGES" stroke="none" stroke-width="1" fill="none" fill-rule="evenodd" opacity="0.5">
        <g id="Artboard" transform="translate(-534.000000, -894.000000)" fill="#3A3A3A" fill-rule="nonzero">
            <g id="xerox" transform="translate(534.000000, 894.000000)">
                <path d="M127.947905,0 C115.859065,0 107.835177,9.01341751 107.835177,20.4868191 C107.835177,32.6178646 115.967811,40.9571627 127.947905,40.9571627 C139.698914,40.9571627 148.019359,32.2429877 148.019359,20.4773001 C148.019359,8.71392572 139.697739,0 127.947905,0 Z M59.1231367,0.0289224861 C55.2829027,0.0289224861 50.4236104,1.35472857 46.8483405,4.30195221 C42.5834538,7.81866895 39.2821446,13.3210646 39.2821446,20.7233352 C39.2821446,27.1060831 41.3452333,32.2466356 45.0674572,35.7285512 C48.710997,39.1385627 53.8646367,41 60.2549972,41 C65.3992514,41 71.6123844,39.0537486 74.2770765,37.402102 C75.2096568,36.8244864 75.5024689,36.576393 75.2606535,35.6322591 L73.5966452,30.908165 C73.4034219,30.1333708 72.5462868,29.9349249 71.8497286,30.2817286 C70.6799557,30.85818 69.8062823,31.3118201 68.6203264,31.75025 C66.316636,32.6039105 63.9330554,33.186188 61.6640721,33.186188 C56.8866129,33.186188 54.1698319,31.8845655 52.0894532,29.4824789 C50.7681074,27.9572578 49.9940807,26.0238958 49.7534136,23.7899886 L76.116762,23.7899886 C77.0759598,23.7899886 77.5031912,23.1253787 77.5031912,22.0014733 L77.5031912,20.096897 C77.5031912,19.1689986 77.4613444,17.7123862 77.3826641,16.8413243 C76.8978591,11.5198568 74.9447133,7.2386596 71.6864682,4.33783304 C68.5473852,1.53907404 64.3333364,0.0289224861 59.1231367,0.0289224861 Z M102.104283,0.0670002915 C94.4920331,0.0670002915 89.842998,1.81732339 86.860131,5.67271946 C84.5749423,8.62922401 84.1617247,11.936152 84.1643248,19.0113411 L84.1643248,38.4298109 C84.2696125,39.8135351 84.8249426,40.4607003 86.1150538,40.4607003 L92.1374039,40.4607003 C93.5304903,40.4607003 94.0998081,39.7323444 94.0998081,38.4298109 L94.0998081,18.649243 C94.0998081,14.1930375 94.1542419,11.7062755 95.717431,10.0244673 C97.0619255,8.57811244 98.8656621,7.63184908 102.649215,7.63184908 C103.398982,7.63184908 105.195964,7.83025744 105.8231,7.90680671 C106.060298,7.93581543 106.253439,7.9544035 106.355248,7.9544035 C107.007827,7.9544035 107.234582,7.71658077 107.444011,6.88495573 L108.3476,2.43325668 C108.514206,1.52044285 108.375254,0.810686281 107.468117,0.594949541 C106.088915,0.267869947 103.893082,0.0670002915 102.104283,0.0670002915 L102.104283,0.0670002915 Z M2.21961936,0.59604803 C1.56473966,0.59604803 1.09392975,1.11924529 1.36351083,2.00306165 C3.15810319,7.88011119 7.70978052,14.8578798 12.4293814,20.5853062 C6.4150254,26.01696 2.20914362,33.2415961 0.0987026502,39.0467302 C-0.212555121,39.9003907 0.270048878,40.4585034 0.744437967,40.4585034 L7.84167237,40.4585034 C8.86334969,40.4585034 9.33182435,40.0940827 9.80042429,39.0536867 C11.7188181,34.8050937 14.5676767,29.9023471 18.3038111,25.9263197 C21.7286599,29.2319449 24.7254397,34.2587925 26.6461298,39.0536867 C27.1841737,40.3794141 27.8065976,40.4585034 28.6107257,40.4585034 L36.3489466,40.4585034 C37.8299811,40.4585034 37.9609727,39.6536207 37.6948362,38.9519041 C34.7432057,31.1529536 28.4639606,23.1924465 24.9222235,19.8299943 C28.1654375,16.3596709 34.0443567,9.65702671 36.6130112,2.00306165 C36.9913665,0.876833651 36.2924035,0.59604803 35.7127091,0.59604803 L29.233086,0.59604803 C28.4474597,0.59604803 27.9223787,0.871033782 27.3415361,2.00306165 C23.8518897,8.60038588 20.7104636,12.4906524 19.3578776,13.8929309 C17.2265815,11.356302 14.4241529,6.79331443 12.3738658,2.00306165 C11.9283891,0.963822306 11.4574343,0.59604803 10.5560943,0.59604803 L2.21961936,0.59604803 Z M151.414213,0.59604803 C150.76163,0.59604803 150.289674,1.11924529 150.558103,2.00306165 C152.351521,7.88011119 156.903226,14.8578798 161.623974,20.5853062 C155.610796,26.01696 151.404839,33.2415961 149.294393,39.0467302 C148.983133,39.9003907 149.469125,40.4585034 149.941222,40.4585034 L157.037361,40.4585034 C158.057862,40.4585034 158.526469,40.0940827 158.993922,39.0536867 C160.913464,34.8050937 163.761124,29.9023471 167.498405,25.9263197 C170.924429,29.2319449 173.921233,34.2587925 175.839627,39.0536867 C176.382291,40.3794141 177.003488,40.4585034 177.805318,40.4585034 L185.543539,40.4585034 C187.023416,40.4585034 187.155475,39.6536207 186.890525,38.9519041 C183.936573,31.1529536 177.657224,23.1924465 174.120104,19.8299943 C177.360993,16.3596709 183.241195,9.65702671 185.8087,2.00306165 C186.188203,0.876833651 185.488142,0.59604803 184.907302,0.59604803 L178.430235,0.59604803 C177.64346,0.59604803 177.116971,0.871033782 176.536129,2.00306165 C173.047602,8.60038588 169.906098,12.4906524 168.554662,13.8929309 C166.421068,11.356302 163.6188,6.79331443 161.567364,2.00306165 C161.123063,0.963822306 160.649704,0.59604803 159.750687,0.59604803 L151.414213,0.59604803 Z M127.953748,7.49967806 C134.992071,7.49967806 137.644146,13.6018502 137.644146,20.4798626 C137.644146,27.3601919 134.992071,33.4665875 127.953748,33.4655396 C120.913097,33.4655396 118.201259,27.3601919 118.201259,20.4798626 C118.201259,13.6030087 120.913097,7.49967806 127.953748,7.49967806 Z M59.452943,7.53445852 C64.7186779,7.53445852 67.9355118,11.1196789 67.9355118,16.4411521 L67.9355118,16.6824277 L49.7384386,16.6824277 C49.9339845,15.3590136 50.3111074,14.1015631 50.9035365,12.9080574 C52.5257055,9.62795426 55.6196505,7.53445852 59.452943,7.53445852 Z" id="path370"></path>
            </g>
        </g>
    </g>
</svg>